<?xml version="1.0" encoding="UTF-8"?> <svg xmlns="http://www.w3.org/2000/svg" xmlns:xlink="http://www.w3.org/1999/xlink" width="535.33544" height="470" viewBox="0 0 535.33544 470"><defs><style>.a,.aa{fill:#fff;}.a,.ac,.ag,.d,.e,.g,.l,.m,.n,.p,.t,.w,.x{fill-rule:evenodd;}.b{fill:#f4f6f8;}.ab,.ad,.ah,.aj,.c,.h,.k,.q,.v{fill:none;}.ab,.c,.q{stroke:#212322;}.ab,.c,.h,.k{stroke-linecap:round;}.d{fill:#ffd917;}.e{fill:#dde3eb;}.f{mask:url(#a);}.g{fill:#bbc7d6;}.ad,.aj,.h{stroke:#fff;}.h{stroke-width:2px;}.i{mask:url(#c);}.j{mask:url(#e);}.ah,.k{stroke:#1b4478;}.k{stroke-width:3px;}.l{fill:#ffe145;}.m{fill:#212322;}.n{fill:#fdd0be;}.o{mask:url(#g);}.p{fill:#fcb093;}.ad,.q,.v{stroke-width:0.5px;}.r{mask:url(#h);}.s{mask:url(#i);}.ak,.t{fill:#1b4478;}.u{mask:url(#j);}.v{stroke:#496993;}.w{fill:#f5333f;}.x{fill:#f75c65;}.y{mask:url(#k);}.z{mask:url(#l);}.ab{stroke-width:1.5px;}.ac{fill:#a6a7a7;}.ae{mask:url(#m);}.af{opacity:0.4;}.ag{fill:#00c5b4;}.ai{mask:url(#n);}</style><mask id="a" x="264.2715" y="115.20151" width="159.125" height="172.78" maskUnits="userSpaceOnUse"><polygon class="a" points="264.272 115.202 398.007 115.202 423.397 142.642 423.397 287.982 264.272 287.982 264.272 115.202"></polygon></mask><mask id="c" x="272.07927" y="107.03879" width="159.125" height="172.78" maskUnits="userSpaceOnUse"><polygon class="a" points="272.079 107.039 405.814 107.039 431.204 134.479 431.204 279.819 272.079 279.819 272.079 107.039"></polygon></mask><mask id="e" x="280.0575" y="99.44367" width="159.125" height="172.78" maskUnits="userSpaceOnUse"><polygon class="a" points="280.058 99.444 413.793 99.444 439.183 126.884 439.183 272.224 280.058 272.224 280.058 99.444"></polygon></mask><mask id="g" x="143.94493" y="138.63632" width="26.98646" height="44.82991" maskUnits="userSpaceOnUse"><path class="a" d="M170.19675,144.22921q2.56,20.76113-8.05253,22.87312.54228,4.38068,6.00638,9.54158c5.46409,5.1609-4.45156,9.942-13.1714,4.23247q-8.71985-5.70957-10.97295-8.47059,8.14809-2.25453,5.28364-16.27991-5.91747-3.71118-5.28364-7.1598c.63384-3.44861,3.86479-1.86737,4.95036.73529s1.54592,4.15521,1.95313,0,.4072-2.96318,2.15281-5.47216a7.218,7.218,0,0,0,1.19792-5.59289,12.51326,12.51326,0,0,0,3.93557,4.52518Q161.25363,145.58741,170.19675,144.22921Z"></path></mask><mask id="h" x="159.75773" y="405.39589" width="20.55831" height="28.36512" maskUnits="userSpaceOnUse"><path class="a" d="M180.316,431.61943a12.58035,12.58035,0,0,1-4.65-3.86342c-3.76291-6.099-5.03715-14.4905-4.26576-22.36012H163.57a13.69263,13.69263,0,0,1-1.66505,5.42154c-1.38136,2.4758-2.59285,4.98739-1.98711,6.79989q.60574,1.81249,10.61264,16.14369Z"></path></mask><mask id="i" x="107.86422" y="401.16384" width="17.6888" height="29.14287" maskUnits="userSpaceOnUse"><path class="a" d="M125.553,429.89692a12.58033,12.58033,0,0,1-3.90849-4.6122c-2.64665-6.6598-2.44438-15.145-.31815-22.76116l-7.71134-1.35972a13.69279,13.69279,0,0,1-2.5812,5.05c-1.79029,2.19832-3.41951,4.46137-3.13771,6.35152q.28181,1.89015,7.64809,17.7413Z"></path></mask><mask id="j" x="108.98268" y="239.04525" width="71.58213" height="169.10503" maskUnits="userSpaceOnUse"><path class="a" d="M137.67507,239.04525q-8.23386,11.56613-4.51281,29.2807c3.72106,17.71457-1.53059,29.61817-5.50884,48.75223q-3.97826,19.13406-18.67074,86.29279l13.89425,2.16419A389.60793,389.60793,0,0,0,137.744,368.5914q7.4653-21.26666,18.51544-55.00561,1.82046,30.88352,2.372,50.17015t1.26034,43.33027l14.07289,1.06407a506.91366,506.91366,0,0,0,6.35272-66.73194q.99324-33.84306-2.0007-101.618Z"></path></mask><mask id="k" x="121.63173" y="171.55402" width="66.53827" height="70.35246" maskUnits="userSpaceOnUse"><path class="a" d="M178.91836,240.62727q.45442-10.22106.26386-14.289c-.43468-9.27872-1.08971-15.32049,1.38192-19.15791,5.33287-8.27974,1.36013-14.88977-1.38192-18.554-4.34267-5.80321-2.73764-10.83949-6.51373-14.13472q-2.54333-2.21944-8.33888-2.1814,2.23515,5.00678-3.91036,6.1105t-14.0366-6.86664q-24.01611,1.95784-24.70845,10.73528t9.90313,20.96322l5.15711,24.65076v11.14264Z"></path></mask><mask id="l" x="23.6279" y="111.88043" width="173.77259" height="169.40919" maskUnits="userSpaceOnUse"><path class="a" d="M178.91836,240.62727q.45442-10.22106.26386-14.289c-.43468-9.27872-1.08971-15.32049,1.38192-19.15791,5.33287-8.27974,1.36013-14.88977-1.38192-18.554-4.34267-5.80321-2.73764-10.83949-6.51373-14.13472q-2.54333-2.21944-8.33888-2.1814,2.23515,5.00678-3.91036,6.1105t-14.0366-6.86664q-24.01611,1.95784-24.70845,10.73528t9.90313,20.96322l5.15711,24.65076v11.14264Z"></path></mask><mask id="m" x="56.32794" y="124.28465" width="173.77259" height="169.40919" maskUnits="userSpaceOnUse"><path class="a" d="M134.96333,179.62762c-2.36589-5.18738-12.16033-8.19591-16.27185,9.6744s-7.4927,44.22621,1.49854,45.51264q8.99125,1.28645,36.12659-17.30705l-4.18618-10.011-20.97957,9.12347Q137.32923,184.815,134.96333,179.62762Z"></path></mask><mask id="n" x="14.32853" y="381.97271" width="66.13922" height="56.05946" maskUnits="userSpaceOnUse"><path class="a" d="M15.65545,381.97271H78.305V406.7074a31.32476,31.32476,0,0,1-62.64952,0V381.97271Z"></path></mask></defs><title>meisterplan-lean-ppm-vorlagen</title><path class="b" d="M301.40545,468.9949c129.195,0,233.93-104.736,233.93-233.933,0-129.194-104.735-233.926-233.93-233.926-129.196,0-233.93,104.732-233.93,233.926,0,129.197,104.734,233.933,233.93,233.933"></path><path class="c" d="M22.66858,437.96788H243.46074"></path><path class="d" d="M255.493,191.23559V357.79552H467.906V191.23559a6.72,6.72,0,0,0-6.72-6.72H262.213A6.72,6.72,0,0,0,255.493,191.23559Z"></path><polygon class="e" points="264.272 115.202 398.007 115.202 423.397 142.642 423.397 287.982 264.272 287.982 264.272 115.202"></polygon><g class="f"><polygon class="g" points="398.007 115.202 398.007 144.244 423.397 144.244 423.397 115.202 398.007 115.202"></polygon></g><g class="f"><path class="h" d="M289.42278,163.56561H398.00611m-108.58333,20H398.00611m-108.58333,20H398.00611m-108.58333,20H398.00611"></path></g><polygon class="g" points="272.079 107.039 405.814 107.039 431.204 134.479 431.204 279.819 272.079 279.819 272.079 107.039"></polygon><g class="i"><polygon class="g" points="405.814 107.039 405.814 136.081 431.204 136.081 431.204 107.039 405.814 107.039"></polygon></g><g class="i"><path class="h" d="M297.23055,155.40288H405.81387m-108.58332,20H405.81387m-108.58332,20H405.81387m-108.58332,20H405.81387"></path></g><polygon class="e" points="280.058 99.444 413.793 99.444 439.183 126.884 439.183 272.224 280.058 272.224 280.058 99.444"></polygon><g class="j"><polygon class="g" points="413.793 99.444 413.793 128.486 439.183 128.486 439.183 99.444 413.793 99.444"></polygon></g><g class="j"><path class="k" d="M305.20878,187.80777H413.79211m-108.58333,20H413.79211"></path></g><path class="l" d="M225.62,201.2538l30.21467,156.54172H467.906l-24.59466-122.872a6.72,6.72,0,0,0-6.5893-5.401H309.30894L299.884,205.51785a6.72,6.72,0,0,0-6.25514-4.264Z"></path><path class="m" d="M170.62586,149.52082q4.84089-15.45883-8.612-19.98157c-13.45289-4.52272-19.66856,5.732-21.79161,12.57733s-4.43724,14.6932-10.44464,19.71074-10.36622,18.09552.82664,24.17,26.22547-3.36309,37.49478-8.6172-1.48413-14.16442.52135-20.5703A51.9177,51.9177,0,0,0,170.62586,149.52082Z"></path><path class="n" d="M170.19675,144.22921q2.56,20.76113-8.05253,22.87312.54228,4.38068,6.00638,9.54158c5.46409,5.1609-4.45156,9.942-13.1714,4.23247q-8.71985-5.70957-10.97295-8.47059,8.14809-2.25453,5.28364-16.27991-5.91747-3.71118-5.28364-7.1598c.63384-3.44861,3.86479-1.86737,4.95036.73529s1.54592,4.15521,1.95313,0,.4072-2.96318,2.15281-5.47216a7.218,7.218,0,0,0,1.19792-5.59289,12.51326,12.51326,0,0,0,3.93557,4.52518Q161.25363,145.58741,170.19675,144.22921Z"></path><g class="o"><path class="p" d="M162.14422,167.10233q-4.87744.02349-7.179-3.086,1.05415,7.51323,11.60531,10.92341T162.14422,167.10233Z"></path></g><ellipse class="q" cx="162.5193" cy="152.10477" rx="2.81908" ry="3.3829"></ellipse><ellipse class="q" cx="170.41273" cy="152.10477" rx="2.81908" ry="3.3829"></ellipse><path class="q" d="M165.33838,152.10477h2.25526m-7.89343,0-10.25091-2.74711"></path><path class="n" d="M180.316,431.61943a12.58035,12.58035,0,0,1-4.65-3.86342c-3.76291-6.099-5.03715-14.4905-4.26576-22.36012H163.57a13.69263,13.69263,0,0,1-1.66505,5.42154c-1.38136,2.4758-2.59285,4.98739-1.98711,6.79989q.60574,1.81249,10.61264,16.14369Z"></path><g class="r"><polygon class="p" points="173.747 406.958 160.827 412.344 161.571 405.822 173.747 406.958"></polygon></g><path class="m" d="M159.888,415.19128q-2.50167.37572-2.50167,4.38717v17.94067h2.372l.7898-11.33985,4.67867,8.48031a5.63815,5.63815,0,0,0,4.843,2.91378l16.1007.26747h0q4.52482.012.6989-2.89609a31.14694,31.14694,0,0,0-8.37959-4.542q-3.25476,3.78186-7.77764,1.50494T159.888,415.19128Z"></path><path class="n" d="M125.553,429.89692a12.58033,12.58033,0,0,1-3.90849-4.6122c-2.64665-6.6598-2.44438-15.145-.31815-22.76116l-7.71134-1.35972a13.69279,13.69279,0,0,1-2.5812,5.05c-1.79029,2.19832-3.41951,4.46137-3.13771,6.35152q.28181,1.89015,7.64809,17.7413Z"></path><g class="s"><polygon class="p" points="122.064 404.964 109.733 408.151 111.598 401.857 122.064 404.964"></polygon></g><path class="m" d="M108.288,410.17105q-2.52891-.06439-3.22548,3.88611l-3.11537,17.66811,2.33594.41189,2.747-11.03043,3.135,9.16393a5.63819,5.63819,0,0,0,4.26349,3.71049l15.80964,3.05926h0q4.454.79755,1.19119-2.73073a31.147,31.147,0,0,0-7.46358-5.92808q-3.862,3.15923-7.92081.1315T108.288,410.17105Z"></path><path class="t" d="M137.67507,239.04525q-8.23386,11.56613-4.51281,29.2807c3.72106,17.71457-1.53059,29.61817-5.50884,48.75223q-3.97826,19.13406-18.67074,86.29279l13.89425,2.16419A389.60793,389.60793,0,0,0,137.744,368.5914q7.4653-21.26666,18.51544-55.00561,1.82046,30.88352,2.372,50.17015t1.26034,43.33027l14.07289,1.06407a506.91366,506.91366,0,0,0,6.35272-66.73194q.99324-33.84306-2.0007-101.618Z"></path><g class="u"><path class="v" d="M168.75924,276.4748l-15.75543,47.123m-19.34836-81.02866,45.52674,2.26718m-38.68139-5.791v4.11136m22.55266-2.98372v4.11135l-.73846,19.47118a2.17567,2.17567,0,0,0,2.09166,2.25656q.04121.00158.08245.00157a2.25976,2.25976,0,0,0,2.25976-2.25975V240.17289h0m9.83618,0v4.11135q2.59715,74.30694,2.59714,81.9507a620.2851,620.2851,0,0,1-6.00824,76.82532m-22.52445-164.015v4.11136L148.028,254.74785l-9.71479,9.1568q4.23765,17.40084-2.80667,41.70165t-23.00145,92.78527m-2.77116-.63581,15.58457,3.36466m34.44055,1.58181,15.10559.71606"></path></g><path class="w" d="M168.72128,214.12457h25.93555l6.19682,3.3829a5.08939,5.08939,0,0,1-1.8424,4.04506,6.52945,6.52945,0,0,1-4.35442,1.5931H168.72128Z"></path><path class="x" d="M178.91836,240.62727q.45442-10.22106.26386-14.289c-.43468-9.27872-1.08971-15.32049,1.38192-19.15791,5.33287-8.27974,1.36013-14.88977-1.38192-18.554-4.34267-5.80321-2.73764-10.83949-6.51373-14.13472q-2.54333-2.21944-8.33888-2.1814,2.23515,5.00678-3.91036,6.1105t-14.0366-6.86664q-24.01611,1.95784-24.70845,10.73528t9.90313,20.96322l5.15711,24.65076v11.14264Z"></path><g class="y"><path class="w" d="M183.19721,194.26394q1.7887,6.87924-10.38689,9.38379c-9.62846,1.9806-24.56756,7.18986-34.46308-.79925q-2.2193-1.79172-3.68765-17.43442l-3.97008,17.43442,2.966,15.68185,3.89191,21.595,43.9885,1.78113L188.17,201.65519a6.19094,6.19094,0,0,0-2.3872-2.69486Q184.27743,198.06662,183.19721,194.26394Z"></path></g><g class="z"><circle class="aa" cx="24.7558" cy="168.76564" r="1.12763"></circle><circle class="aa" cx="32.93166" cy="164.95317" r="1.12763"></circle><circle class="aa" cx="41.10752" cy="161.14071" r="1.12763"></circle><circle class="aa" cx="49.28338" cy="157.32824" r="1.12763"></circle><circle class="aa" cx="56.43726" cy="153.99234" r="1.12763"></circle><circle class="aa" cx="64.61312" cy="150.17987" r="1.12763"></circle><circle class="aa" cx="72.78898" cy="146.3674" r="1.12763"></circle><circle class="aa" cx="80.96483" cy="142.55494" r="1.12763"></circle><circle class="aa" cx="88.11871" cy="139.21903" r="1.12763"></circle><circle class="aa" cx="96.29457" cy="135.40657" r="1.12763"></circle><circle class="aa" cx="104.47043" cy="131.5941" r="1.12763"></circle><circle class="aa" cx="112.64629" cy="127.78163" r="1.12763"></circle><circle class="aa" cx="120.82215" cy="123.96917" r="1.12763"></circle><circle class="aa" cx="127.97602" cy="120.63326" r="1.12763"></circle><circle class="aa" cx="136.15188" cy="116.8208" r="1.12763"></circle><circle class="aa" cx="144.32774" cy="113.00833" r="1.12763"></circle><circle class="aa" cx="28.56827" cy="176.9415" r="1.12763"></circle><circle class="aa" cx="36.74413" cy="173.12903" r="1.12763"></circle><circle class="aa" cx="44.91999" cy="169.31657" r="1.12763"></circle><circle class="aa" cx="53.09585" cy="165.5041" r="1.12763"></circle><circle class="aa" cx="60.24972" cy="162.16819" r="1.12763"></circle><circle class="aa" cx="68.42558" cy="158.35573" r="1.12763"></circle><circle class="aa" cx="76.60144" cy="154.54326" r="1.12763"></circle><circle class="aa" cx="84.7773" cy="150.7308" r="1.12763"></circle><circle class="aa" cx="91.93118" cy="147.39489" r="1.12763"></circle><circle class="aa" cx="100.10704" cy="143.58242" r="1.12763"></circle><circle class="aa" cx="108.2829" cy="139.76996" r="1.12763"></circle><circle class="aa" cx="116.45875" cy="135.95749" r="1.12763"></circle><circle class="aa" cx="124.63461" cy="132.14503" r="1.12763"></circle><circle class="aa" cx="131.78849" cy="128.80912" r="1.12763"></circle><circle class="aa" cx="139.96435" cy="124.99665" r="1.12763"></circle><circle class="aa" cx="148.14021" cy="121.18419" r="1.12763"></circle><circle class="aa" cx="32.38073" cy="185.11736" r="1.12763"></circle><circle class="aa" cx="40.55659" cy="181.30489" r="1.12763"></circle><circle class="aa" cx="48.73245" cy="177.49243" r="1.12763"></circle><circle class="aa" cx="56.90831" cy="173.67996" r="1.12763"></circle><circle class="aa" cx="64.06219" cy="170.34405" r="1.12763"></circle><circle class="aa" cx="72.23805" cy="166.53159" r="1.12763"></circle><circle class="aa" cx="80.41391" cy="162.71912" r="1.12763"></circle><circle class="aa" cx="88.58977" cy="158.90666" r="1.12763"></circle><circle class="aa" cx="95.74364" cy="155.57075" r="1.12763"></circle><circle class="aa" cx="103.9195" cy="151.75828" r="1.12763"></circle><circle class="aa" cx="112.09536" cy="147.94582" r="1.12763"></circle><circle class="aa" cx="120.27122" cy="144.13335" r="1.12763"></circle><circle class="aa" cx="128.44708" cy="140.32089" r="1.12763"></circle><circle class="aa" cx="135.60096" cy="136.98498" r="1.12763"></circle><circle class="aa" cx="143.77682" cy="133.17251" r="1.12763"></circle><circle class="aa" cx="151.95267" cy="129.36005" r="1.12763"></circle><circle class="aa" cx="35.71664" cy="192.27123" r="1.12763"></circle><circle class="aa" cx="43.8925" cy="188.45877" r="1.12763"></circle><circle class="aa" cx="52.06836" cy="184.6463" r="1.12763"></circle><circle class="aa" cx="60.24422" cy="180.83384" r="1.12763"></circle><circle class="aa" cx="67.3981" cy="177.49793" r="1.12763"></circle><circle class="aa" cx="75.57396" cy="173.68546" r="1.12763"></circle><circle class="aa" cx="83.74981" cy="169.873" r="1.12763"></circle><circle class="aa" cx="91.92567" cy="166.06053" r="1.12763"></circle><circle class="aa" cx="99.07955" cy="162.72463" r="1.12763"></circle><circle class="aa" cx="107.25541" cy="158.91216" r="1.12763"></circle><circle class="aa" cx="115.43127" cy="155.09969" r="1.12763"></circle><circle class="aa" cx="123.60713" cy="151.28723" r="1.12763"></circle><circle class="aa" cx="131.78299" cy="147.47476" r="1.12763"></circle><circle class="aa" cx="138.93686" cy="144.13886" r="1.12763"></circle><circle class="aa" cx="147.11272" cy="140.32639" r="1.12763"></circle><circle class="aa" cx="155.28858" cy="136.51392" r="1.12763"></circle><circle class="aa" cx="39.52911" cy="200.44709" r="1.12763"></circle><circle class="aa" cx="47.70497" cy="196.63463" r="1.12763"></circle><circle class="aa" cx="55.88083" cy="192.82216" r="1.12763"></circle><circle class="aa" cx="64.05669" cy="189.0097" r="1.12763"></circle><circle class="aa" cx="71.21056" cy="185.67379" r="1.12763"></circle><circle class="aa" cx="79.38642" cy="181.86132" r="1.12763"></circle><circle class="aa" cx="87.56228" cy="178.04886" r="1.12763"></circle><circle class="aa" cx="95.73814" cy="174.23639" r="1.12763"></circle><circle class="aa" cx="102.89202" cy="170.90048" r="1.12763"></circle><circle class="aa" cx="111.06788" cy="167.08802" r="1.12763"></circle><circle class="aa" cx="119.24373" cy="163.27555" r="1.12763"></circle><circle class="aa" cx="127.41959" cy="159.46309" r="1.12763"></circle><circle class="aa" cx="135.59545" cy="155.65062" r="1.12763"></circle><circle class="aa" cx="142.74933" cy="152.31471" r="1.12763"></circle><circle class="aa" cx="150.92519" cy="148.50225" r="1.12763"></circle><circle class="aa" cx="159.10105" cy="144.68978" r="1.12763"></circle><circle class="aa" cx="43.34157" cy="208.62295" r="1.12763"></circle><circle class="aa" cx="51.51743" cy="204.81049" r="1.12763"></circle><circle class="aa" cx="59.69329" cy="200.99802" r="1.12763"></circle><circle class="aa" cx="67.86915" cy="197.18556" r="1.12763"></circle><circle class="aa" cx="75.02303" cy="193.84965" r="1.12763"></circle><circle class="aa" cx="83.19889" cy="190.03718" r="1.12763"></circle><circle class="aa" cx="91.37475" cy="186.22472" r="1.12763"></circle><circle class="aa" cx="99.5506" cy="182.41225" r="1.12763"></circle><circle class="aa" cx="106.70448" cy="179.07634" r="1.12763"></circle><circle class="aa" cx="114.88034" cy="175.26388" r="1.12763"></circle><circle class="aa" cx="123.0562" cy="171.45141" r="1.12763"></circle><circle class="aa" cx="131.23206" cy="167.63895" r="1.12763"></circle><circle class="aa" cx="139.40792" cy="163.82648" r="1.12763"></circle><circle class="aa" cx="146.56179" cy="160.49057" r="1.12763"></circle><circle class="aa" cx="154.73765" cy="156.67811" r="1.12763"></circle><circle class="aa" cx="162.91351" cy="152.86564" r="1.12763"></circle><circle class="aa" cx="47.15404" cy="216.79881" r="1.12763"></circle><circle class="aa" cx="55.3299" cy="212.98635" r="1.12763"></circle><circle class="aa" cx="63.50576" cy="209.17388" r="1.12763"></circle><circle class="aa" cx="71.68162" cy="205.36142" r="1.12763"></circle><circle class="aa" cx="78.83549" cy="202.02551" r="1.12763"></circle><circle class="aa" cx="87.01135" cy="198.21304" r="1.12763"></circle><circle class="aa" cx="95.18721" cy="194.40058" r="1.12763"></circle><circle class="aa" cx="103.36307" cy="190.58811" r="1.12763"></circle><circle class="aa" cx="110.51695" cy="187.2522" r="1.12763"></circle><circle class="aa" cx="118.69281" cy="183.43974" r="1.12763"></circle><circle class="aa" cx="126.86867" cy="179.62727" r="1.12763"></circle><circle class="aa" cx="135.04452" cy="175.81481" r="1.12763"></circle><circle class="aa" cx="143.22038" cy="172.00234" r="1.12763"></circle><circle class="aa" cx="150.37426" cy="168.66643" r="1.12763"></circle><circle class="aa" cx="158.55012" cy="164.85397" r="1.12763"></circle><circle class="aa" cx="166.72598" cy="161.0415" r="1.12763"></circle><circle class="aa" cx="50.9665" cy="224.97467" r="1.12763"></circle><circle class="aa" cx="59.14236" cy="221.16221" r="1.12763"></circle><circle class="aa" cx="67.31822" cy="217.34974" r="1.12763"></circle><circle class="aa" cx="75.49408" cy="213.53727" r="1.12763"></circle><circle class="aa" cx="82.64796" cy="210.20137" r="1.12763"></circle><circle class="aa" cx="90.82382" cy="206.3889" r="1.12763"></circle><circle class="aa" cx="98.99968" cy="202.57644" r="1.12763"></circle><circle class="aa" cx="107.17554" cy="198.76397" r="1.12763"></circle><circle class="aa" cx="114.32941" cy="195.42806" r="1.12763"></circle><circle class="aa" cx="122.50527" cy="191.6156" r="1.12763"></circle><circle class="aa" cx="130.68113" cy="187.80313" r="1.12763"></circle><circle class="aa" cx="138.85699" cy="183.99067" r="1.12763"></circle><circle class="aa" cx="147.03285" cy="180.1782" r="1.12763"></circle><circle class="aa" cx="154.18673" cy="176.84229" r="1.12763"></circle><circle class="aa" cx="162.36259" cy="173.02983" r="1.12763"></circle><circle class="aa" cx="170.53844" cy="169.21736" r="1.12763"></circle><circle class="aa" cx="50.9665" cy="224.97467" r="1.12763"></circle><circle class="aa" cx="59.14236" cy="221.16221" r="1.12763"></circle><circle class="aa" cx="67.31822" cy="217.34974" r="1.12763"></circle><circle class="aa" cx="75.49408" cy="213.53727" r="1.12763"></circle><circle class="aa" cx="82.64796" cy="210.20137" r="1.12763"></circle><circle class="aa" cx="90.82382" cy="206.3889" r="1.12763"></circle><circle class="aa" cx="98.99968" cy="202.57644" r="1.12763"></circle><circle class="aa" cx="107.17554" cy="198.76397" r="1.12763"></circle><circle class="aa" cx="114.32941" cy="195.42806" r="1.12763"></circle><circle class="aa" cx="122.50527" cy="191.6156" r="1.12763"></circle><circle class="aa" cx="130.68113" cy="187.80313" r="1.12763"></circle><circle class="aa" cx="138.85699" cy="183.99067" r="1.12763"></circle><circle class="aa" cx="147.03285" cy="180.1782" r="1.12763"></circle><circle class="aa" cx="154.18673" cy="176.84229" r="1.12763"></circle><circle class="aa" cx="162.36259" cy="173.02983" r="1.12763"></circle><circle class="aa" cx="170.53844" cy="169.21736" r="1.12763"></circle><circle class="aa" cx="54.30241" cy="232.12855" r="1.12763"></circle><circle class="aa" cx="62.47827" cy="228.31608" r="1.12763"></circle><circle class="aa" cx="70.65413" cy="224.50362" r="1.12763"></circle><circle class="aa" cx="78.82999" cy="220.69115" r="1.12763"></circle><circle class="aa" cx="85.98387" cy="217.35524" r="1.12763"></circle><circle class="aa" cx="94.15973" cy="213.54278" r="1.12763"></circle><circle class="aa" cx="102.33558" cy="209.73031" r="1.12763"></circle><circle class="aa" cx="110.51144" cy="205.91785" r="1.12763"></circle><circle class="aa" cx="117.66532" cy="202.58194" r="1.12763"></circle><circle class="aa" cx="125.84118" cy="198.76947" r="1.12763"></circle><circle class="aa" cx="134.01704" cy="194.95701" r="1.12763"></circle><circle class="aa" cx="142.1929" cy="191.14454" r="1.12763"></circle><circle class="aa" cx="150.36876" cy="187.33208" r="1.12763"></circle><circle class="aa" cx="157.52263" cy="183.99617" r="1.12763"></circle><circle class="aa" cx="165.69849" cy="180.1837" r="1.12763"></circle><circle class="aa" cx="173.87435" cy="176.37124" r="1.12763"></circle><circle class="aa" cx="58.11488" cy="240.30441" r="1.12763"></circle><circle class="aa" cx="66.29074" cy="236.49194" r="1.12763"></circle><circle class="aa" cx="74.4666" cy="232.67948" r="1.12763"></circle><circle class="aa" cx="82.64246" cy="228.86701" r="1.12763"></circle><circle class="aa" cx="89.79633" cy="225.5311" r="1.12763"></circle><circle class="aa" cx="97.97219" cy="221.71864" r="1.12763"></circle><circle class="aa" cx="106.14805" cy="217.90617" r="1.12763"></circle><circle class="aa" cx="114.32391" cy="214.09371" r="1.12763"></circle><circle class="aa" cx="121.47779" cy="210.7578" r="1.12763"></circle><circle class="aa" cx="129.65365" cy="206.94533" r="1.12763"></circle><circle class="aa" cx="137.8295" cy="203.13287" r="1.12763"></circle><circle class="aa" cx="146.00536" cy="199.3204" r="1.12763"></circle><circle class="aa" cx="154.18122" cy="195.50794" r="1.12763"></circle><circle class="aa" cx="161.3351" cy="192.17203" r="1.12763"></circle><circle class="aa" cx="169.51096" cy="188.35956" r="1.12763"></circle><circle class="aa" cx="177.68682" cy="184.5471" r="1.12763"></circle><circle class="aa" cx="61.92734" cy="248.48027" r="1.12763"></circle><circle class="aa" cx="70.1032" cy="244.6678" r="1.12763"></circle><circle class="aa" cx="78.27906" cy="240.85533" r="1.12763"></circle><circle class="aa" cx="86.45492" cy="237.04287" r="1.12763"></circle><circle class="aa" cx="93.6088" cy="233.70696" r="1.12763"></circle><circle class="aa" cx="101.78466" cy="229.8945" r="1.12763"></circle><circle class="aa" cx="109.96052" cy="226.08203" r="1.12763"></circle><circle class="aa" cx="118.13638" cy="222.26956" r="1.12763"></circle><circle class="aa" cx="125.29025" cy="218.93366" r="1.12763"></circle><circle class="aa" cx="133.46611" cy="215.12119" r="1.12763"></circle><circle class="aa" cx="141.64197" cy="211.30873" r="1.12763"></circle><circle class="aa" cx="149.81783" cy="207.49626" r="1.12763"></circle><circle class="aa" cx="157.99369" cy="203.68379" r="1.12763"></circle><circle class="aa" cx="165.14756" cy="200.34789" r="1.12763"></circle><circle class="aa" cx="173.32342" cy="196.53542" r="1.12763"></circle><circle class="aa" cx="181.49928" cy="192.72296" r="1.12763"></circle><circle class="aa" cx="65.73981" cy="256.65613" r="1.12763"></circle><circle class="aa" cx="73.91567" cy="252.84366" r="1.12763"></circle><circle class="aa" cx="82.09153" cy="249.03119" r="1.12763"></circle><circle class="aa" cx="90.26739" cy="245.21873" r="1.12763"></circle><circle class="aa" cx="97.42126" cy="241.88282" r="1.12763"></circle><circle class="aa" cx="105.59712" cy="238.07036" r="1.12763"></circle><circle class="aa" cx="113.77298" cy="234.25789" r="1.12763"></circle><circle class="aa" cx="121.94884" cy="230.44542" r="1.12763"></circle><circle class="aa" cx="129.10272" cy="227.10952" r="1.12763"></circle><circle class="aa" cx="137.27858" cy="223.29705" r="1.12763"></circle><circle class="aa" cx="145.45444" cy="219.48458" r="1.12763"></circle><circle class="aa" cx="153.63029" cy="215.67212" r="1.12763"></circle><circle class="aa" cx="161.80615" cy="211.85965" r="1.12763"></circle><circle class="aa" cx="168.96003" cy="208.52375" r="1.12763"></circle><circle class="aa" cx="177.13589" cy="204.71128" r="1.12763"></circle><circle class="aa" cx="185.31175" cy="200.89881" r="1.12763"></circle><circle class="aa" cx="69.07572" cy="263.81" r="1.12763"></circle><circle class="aa" cx="77.25158" cy="259.99754" r="1.12763"></circle><circle class="aa" cx="85.42744" cy="256.18507" r="1.12763"></circle><circle class="aa" cx="93.60329" cy="252.3726" r="1.12763"></circle><circle class="aa" cx="100.75717" cy="249.0367" r="1.12763"></circle><circle class="aa" cx="108.93303" cy="245.22423" r="1.12763"></circle><circle class="aa" cx="117.10889" cy="241.41177" r="1.12763"></circle><circle class="aa" cx="125.28475" cy="237.5993" r="1.12763"></circle><circle class="aa" cx="132.43862" cy="234.26339" r="1.12763"></circle><circle class="aa" cx="140.61448" cy="230.45093" r="1.12763"></circle><circle class="aa" cx="148.79034" cy="226.63846" r="1.12763"></circle><circle class="aa" cx="156.9662" cy="222.826" r="1.12763"></circle><circle class="aa" cx="165.14206" cy="219.01353" r="1.12763"></circle><circle class="aa" cx="172.29594" cy="215.67762" r="1.12763"></circle><circle class="aa" cx="180.4718" cy="211.86516" r="1.12763"></circle><circle class="aa" cx="188.64766" cy="208.05269" r="1.12763"></circle><circle class="aa" cx="72.88818" cy="271.98586" r="1.12763"></circle><circle class="aa" cx="81.06404" cy="268.1734" r="1.12763"></circle><circle class="aa" cx="89.2399" cy="264.36093" r="1.12763"></circle><circle class="aa" cx="97.41576" cy="260.54846" r="1.12763"></circle><circle class="aa" cx="104.56964" cy="257.21256" r="1.12763"></circle><circle class="aa" cx="112.7455" cy="253.40009" r="1.12763"></circle><circle class="aa" cx="120.92135" cy="249.58763" r="1.12763"></circle><circle class="aa" cx="129.09721" cy="245.77516" r="1.12763"></circle><circle class="aa" cx="136.25109" cy="242.43925" r="1.12763"></circle><circle class="aa" cx="144.42695" cy="238.62679" r="1.12763"></circle><circle class="aa" cx="152.60281" cy="234.81432" r="1.12763"></circle><circle class="aa" cx="160.77867" cy="231.00186" r="1.12763"></circle><circle class="aa" cx="168.95453" cy="227.18939" r="1.12763"></circle><circle class="aa" cx="176.1084" cy="223.85348" r="1.12763"></circle><circle class="aa" cx="184.28426" cy="220.04102" r="1.12763"></circle><circle class="aa" cx="192.46012" cy="216.22855" r="1.12763"></circle><circle class="aa" cx="76.70065" cy="280.16172" r="1.12763"></circle><circle class="aa" cx="84.87651" cy="276.34925" r="1.12763"></circle><circle class="aa" cx="93.05237" cy="272.53679" r="1.12763"></circle><circle class="aa" cx="101.22823" cy="268.72432" r="1.12763"></circle><circle class="aa" cx="108.3821" cy="265.38842" r="1.12763"></circle><circle class="aa" cx="116.55796" cy="261.57595" r="1.12763"></circle><circle class="aa" cx="124.73382" cy="257.76348" r="1.12763"></circle><circle class="aa" cx="132.90968" cy="253.95102" r="1.12763"></circle><circle class="aa" cx="140.06356" cy="250.61511" r="1.12763"></circle><circle class="aa" cx="148.23942" cy="246.80265" r="1.12763"></circle><circle class="aa" cx="156.41527" cy="242.99018" r="1.12763"></circle><circle class="aa" cx="164.59113" cy="239.17771" r="1.12763"></circle><circle class="aa" cx="172.76699" cy="235.36525" r="1.12763"></circle><circle class="aa" cx="179.92087" cy="232.02934" r="1.12763"></circle><circle class="aa" cx="188.09673" cy="228.21688" r="1.12763"></circle><circle class="aa" cx="196.27259" cy="224.40441" r="1.12763"></circle></g><path class="ab" d="M157.47685,193.20863l18.01022,8.516"></path><path class="n" d="M148.24226,209.69439q6.9723-2.19838,9.665-5.22962c2.69268-3.03125,6.51209-8.37948,9.53874-8.37948s8.04108-.2194,8.04108,3.19458q0,3.414-25.93479,20.69266Z"></path><path class="ac" d="M176.5708,195.32217l-18.53,20.2974a1.12763,1.12763,0,0,0,.83279,1.8879h38.79083a1.12768,1.12768,0,0,0,.81954-.35309L217.667,196.857a1.12764,1.12764,0,0,0-.81954-1.90218H177.40358A1.12761,1.12761,0,0,0,176.5708,195.32217Z"></path><path class="ad" d="M177.781,196.41605,161.23637,214.6837a1.01488,1.01488,0,0,0,.75222,1.69614h34.62285a1.0149,1.0149,0,0,0,.74035-.32072l17.12769-18.26766a1.01487,1.01487,0,0,0-.74034-1.709H178.5332A1.01485,1.01485,0,0,0,177.781,196.41605Z"></path><path class="n" d="M201.42244,215.5956l-3.79931-6.482a1.52048,1.52048,0,0,0-1.68633-.70475.95288.95288,0,0,0-.63131,1.32089l2.25858,4.92215h0l-2.66323-3.98433a1.34312,1.34312,0,0,0-1.60822-.50353,1.00132,1.00132,0,0,0-.56536,1.29834q.01417.03606.03112.071l1.68549,3.47047h0l-2.74464-3.06821a1.59645,1.59645,0,0,0-1.72338-.44029.85357.85357,0,0,0-.43533,1.262l2.17092,3.41917h0l-1.89207-1.66415a1.06974,1.06974,0,0,0-1.32788-.06749.91456.91456,0,0,0-.25079,1.21856l2.60852,4.30274a1.59555,1.59555,0,0,0,2.95534-.75325l.01331-.25389h0l.46892.274a3.05167,3.05167,0,0,0,2.37868.29928,1.43972,1.43972,0,0,0,1.02081-1.641l-.04569-.2521h0l1.81889.87546a2.6761,2.6761,0,0,0,2.13639.08054,1.07449,1.07449,0,0,0,.60872-1.39232q-.016-.04086-.03528-.0803l-.74687-1.527Z"></path><path class="x" d="M134.96333,179.62762c-2.36589-5.18738-12.16033-8.19591-16.27185,9.6744s-7.4927,44.22621,1.49854,45.51264q8.99125,1.28645,36.12659-17.30705l-4.18618-10.011-20.97957,9.12347Q137.32923,184.815,134.96333,179.62762Z"></path><g class="ae"><g class="af"><circle class="aa" cx="57.45584" cy="181.16987" r="1.12763"></circle><circle class="aa" cx="65.6317" cy="177.3574" r="1.12763"></circle><circle class="aa" cx="73.80756" cy="173.54494" r="1.12763"></circle><circle class="aa" cx="81.98342" cy="169.73247" r="1.12763"></circle><circle class="aa" cx="89.1373" cy="166.39656" r="1.12763"></circle><circle class="aa" cx="97.31316" cy="162.5841" r="1.12763"></circle><circle class="aa" cx="105.48902" cy="158.77163" r="1.12763"></circle><circle class="aa" cx="113.66487" cy="154.95917" r="1.12763"></circle><circle class="aa" cx="120.81875" cy="151.62326" r="1.12763"></circle><circle class="aa" cx="128.99461" cy="147.81079" r="1.12763"></circle><circle class="aa" cx="137.17047" cy="143.99833" r="1.12763"></circle><circle class="aa" cx="145.34633" cy="140.18586" r="1.12763"></circle><circle class="aa" cx="153.52219" cy="136.3734" r="1.12763"></circle><circle class="aa" cx="160.67606" cy="133.03749" r="1.12763"></circle><circle class="aa" cx="168.85192" cy="129.22502" r="1.12763"></circle><circle class="aa" cx="177.02778" cy="125.41256" r="1.12763"></circle><circle class="aa" cx="61.26831" cy="189.34573" r="1.12763"></circle><circle class="aa" cx="69.44417" cy="185.53326" r="1.12763"></circle><circle class="aa" cx="77.62003" cy="181.72079" r="1.12763"></circle><circle class="aa" cx="85.79589" cy="177.90833" r="1.12763"></circle><circle class="aa" cx="92.94976" cy="174.57242" r="1.12763"></circle><circle class="aa" cx="101.12562" cy="170.75996" r="1.12763"></circle><circle class="aa" cx="109.30148" cy="166.94749" r="1.12763"></circle><circle class="aa" cx="117.47734" cy="163.13502" r="1.12763"></circle><circle class="aa" cx="124.63122" cy="159.79912" r="1.12763"></circle><circle class="aa" cx="132.80708" cy="155.98665" r="1.12763"></circle><circle class="aa" cx="140.98293" cy="152.17419" r="1.12763"></circle><circle class="aa" cx="149.15879" cy="148.36172" r="1.12763"></circle><circle class="aa" cx="157.33465" cy="144.54925" r="1.12763"></circle><circle class="aa" cx="164.48853" cy="141.21335" r="1.12763"></circle><circle class="aa" cx="172.66439" cy="137.40088" r="1.12763"></circle><circle class="aa" cx="180.84025" cy="133.58842" r="1.12763"></circle><circle class="aa" cx="65.08077" cy="197.52159" r="1.12763"></circle><circle class="aa" cx="73.25663" cy="193.70912" r="1.12763"></circle><circle class="aa" cx="81.43249" cy="189.89665" r="1.12763"></circle><circle class="aa" cx="89.60835" cy="186.08419" r="1.12763"></circle><circle class="aa" cx="96.76223" cy="182.74828" r="1.12763"></circle><circle class="aa" cx="104.93809" cy="178.93581" r="1.12763"></circle><circle class="aa" cx="113.11395" cy="175.12335" r="1.12763"></circle><circle class="aa" cx="121.28981" cy="171.31088" r="1.12763"></circle><circle class="aa" cx="128.44368" cy="167.97498" r="1.12763"></circle><circle class="aa" cx="136.61954" cy="164.16251" r="1.12763"></circle><circle class="aa" cx="144.7954" cy="160.35004" r="1.12763"></circle><circle class="aa" cx="152.97126" cy="156.53758" r="1.12763"></circle><circle class="aa" cx="161.14712" cy="152.72511" r="1.12763"></circle><circle class="aa" cx="168.301" cy="149.38921" r="1.12763"></circle><circle class="aa" cx="176.47685" cy="145.57674" r="1.12763"></circle><circle class="aa" cx="184.65271" cy="141.76427" r="1.12763"></circle><circle class="aa" cx="68.41668" cy="204.67546" r="1.12763"></circle><circle class="aa" cx="76.59254" cy="200.863" r="1.12763"></circle><circle class="aa" cx="84.7684" cy="197.05053" r="1.12763"></circle><circle class="aa" cx="92.94426" cy="193.23806" r="1.12763"></circle><circle class="aa" cx="100.09814" cy="189.90216" r="1.12763"></circle><circle class="aa" cx="108.27399" cy="186.08969" r="1.12763"></circle><circle class="aa" cx="116.44985" cy="182.27723" r="1.12763"></circle><circle class="aa" cx="124.62571" cy="178.46476" r="1.12763"></circle><circle class="aa" cx="131.77959" cy="175.12885" r="1.12763"></circle><circle class="aa" cx="139.95545" cy="171.31639" r="1.12763"></circle><circle class="aa" cx="148.13131" cy="167.50392" r="1.12763"></circle><circle class="aa" cx="156.30717" cy="163.69146" r="1.12763"></circle><circle class="aa" cx="164.48303" cy="159.87899" r="1.12763"></circle><circle class="aa" cx="171.6369" cy="156.54308" r="1.12763"></circle><circle class="aa" cx="179.81276" cy="152.73062" r="1.12763"></circle><circle class="aa" cx="187.98862" cy="148.91815" r="1.12763"></circle><circle class="aa" cx="72.22915" cy="212.85132" r="1.12763"></circle><circle class="aa" cx="80.40501" cy="209.03886" r="1.12763"></circle><circle class="aa" cx="88.58087" cy="205.22639" r="1.12763"></circle><circle class="aa" cx="96.75672" cy="201.41392" r="1.12763"></circle><circle class="aa" cx="103.9106" cy="198.07802" r="1.12763"></circle><circle class="aa" cx="112.08646" cy="194.26555" r="1.12763"></circle><circle class="aa" cx="120.26232" cy="190.45309" r="1.12763"></circle><circle class="aa" cx="128.43818" cy="186.64062" r="1.12763"></circle><circle class="aa" cx="135.59206" cy="183.30471" r="1.12763"></circle><circle class="aa" cx="143.76791" cy="179.49225" r="1.12763"></circle><circle class="aa" cx="151.94377" cy="175.67978" r="1.12763"></circle><circle class="aa" cx="160.11963" cy="171.86732" r="1.12763"></circle><circle class="aa" cx="168.29549" cy="168.05485" r="1.12763"></circle><circle class="aa" cx="175.44937" cy="164.71894" r="1.12763"></circle><circle class="aa" cx="183.62523" cy="160.90648" r="1.12763"></circle><circle class="aa" cx="191.80109" cy="157.09401" r="1.12763"></circle><circle class="aa" cx="76.04161" cy="221.02718" r="1.12763"></circle><circle class="aa" cx="84.21747" cy="217.21471" r="1.12763"></circle><circle class="aa" cx="92.39333" cy="213.40225" r="1.12763"></circle><circle class="aa" cx="100.56919" cy="209.58978" r="1.12763"></circle><circle class="aa" cx="107.72307" cy="206.25388" r="1.12763"></circle><circle class="aa" cx="115.89893" cy="202.44141" r="1.12763"></circle><circle class="aa" cx="124.07479" cy="198.62894" r="1.12763"></circle><circle class="aa" cx="132.25064" cy="194.81648" r="1.12763"></circle><circle class="aa" cx="139.40452" cy="191.48057" r="1.12763"></circle><circle class="aa" cx="147.58038" cy="187.66811" r="1.12763"></circle><circle class="aa" cx="155.75624" cy="183.85564" r="1.12763"></circle><circle class="aa" cx="163.9321" cy="180.04317" r="1.12763"></circle><circle class="aa" cx="172.10796" cy="176.23071" r="1.12763"></circle><circle class="aa" cx="179.26183" cy="172.8948" r="1.12763"></circle><circle class="aa" cx="187.43769" cy="169.08234" r="1.12763"></circle><circle class="aa" cx="195.61355" cy="165.26987" r="1.12763"></circle><circle class="aa" cx="79.85408" cy="229.20304" r="1.12763"></circle><circle class="aa" cx="88.02994" cy="225.39057" r="1.12763"></circle><circle class="aa" cx="96.2058" cy="221.57811" r="1.12763"></circle><circle class="aa" cx="104.38166" cy="217.76564" r="1.12763"></circle><circle class="aa" cx="111.53553" cy="214.42973" r="1.12763"></circle><circle class="aa" cx="119.71139" cy="210.61727" r="1.12763"></circle><circle class="aa" cx="127.88725" cy="206.8048" r="1.12763"></circle><circle class="aa" cx="136.06311" cy="202.99234" r="1.12763"></circle><circle class="aa" cx="143.21699" cy="199.65643" r="1.12763"></circle><circle class="aa" cx="151.39285" cy="195.84396" r="1.12763"></circle><circle class="aa" cx="159.5687" cy="192.0315" r="1.12763"></circle><circle class="aa" cx="167.74456" cy="188.21903" r="1.12763"></circle><circle class="aa" cx="175.92042" cy="184.40657" r="1.12763"></circle><circle class="aa" cx="183.0743" cy="181.07066" r="1.12763"></circle><circle class="aa" cx="191.25016" cy="177.25819" r="1.12763"></circle><circle class="aa" cx="199.42602" cy="173.44573" r="1.12763"></circle><circle class="aa" cx="83.66654" cy="237.3789" r="1.12763"></circle><circle class="aa" cx="91.8424" cy="233.56643" r="1.12763"></circle><circle class="aa" cx="100.01826" cy="229.75397" r="1.12763"></circle><circle class="aa" cx="108.19412" cy="225.9415" r="1.12763"></circle><circle class="aa" cx="115.348" cy="222.60559" r="1.12763"></circle><circle class="aa" cx="123.52386" cy="218.79313" r="1.12763"></circle><circle class="aa" cx="131.69972" cy="214.98066" r="1.12763"></circle><circle class="aa" cx="139.87558" cy="211.1682" r="1.12763"></circle><circle class="aa" cx="147.02945" cy="207.83229" r="1.12763"></circle><circle class="aa" cx="155.20531" cy="204.01982" r="1.12763"></circle><circle class="aa" cx="163.38117" cy="200.20736" r="1.12763"></circle><circle class="aa" cx="171.55703" cy="196.39489" r="1.12763"></circle><circle class="aa" cx="179.73289" cy="192.58243" r="1.12763"></circle><circle class="aa" cx="186.88677" cy="189.24652" r="1.12763"></circle><circle class="aa" cx="195.06262" cy="185.43405" r="1.12763"></circle><circle class="aa" cx="203.23848" cy="181.62159" r="1.12763"></circle><circle class="aa" cx="83.66654" cy="237.3789" r="1.12763"></circle><circle class="aa" cx="91.8424" cy="233.56643" r="1.12763"></circle><circle class="aa" cx="100.01826" cy="229.75397" r="1.12763"></circle><circle class="aa" cx="108.19412" cy="225.9415" r="1.12763"></circle><circle class="aa" cx="115.348" cy="222.60559" r="1.12763"></circle><circle class="aa" cx="123.52386" cy="218.79313" r="1.12763"></circle><circle class="aa" cx="131.69972" cy="214.98066" r="1.12763"></circle><circle class="aa" cx="139.87558" cy="211.1682" r="1.12763"></circle><circle class="aa" cx="147.02945" cy="207.83229" r="1.12763"></circle><circle class="aa" cx="155.20531" cy="204.01982" r="1.12763"></circle><circle class="aa" cx="163.38117" cy="200.20736" r="1.12763"></circle><circle class="aa" cx="171.55703" cy="196.39489" r="1.12763"></circle><circle class="aa" cx="179.73289" cy="192.58243" r="1.12763"></circle><circle class="aa" cx="186.88677" cy="189.24652" r="1.12763"></circle><circle class="aa" cx="195.06262" cy="185.43405" r="1.12763"></circle><circle class="aa" cx="203.23848" cy="181.62159" r="1.12763"></circle><circle class="aa" cx="87.00245" cy="244.53277" r="1.12763"></circle><circle class="aa" cx="95.17831" cy="240.72031" r="1.12763"></circle><circle class="aa" cx="103.35417" cy="236.90784" r="1.12763"></circle><circle class="aa" cx="111.53003" cy="233.09538" r="1.12763"></circle><circle class="aa" cx="118.68391" cy="229.75947" r="1.12763"></circle><circle class="aa" cx="126.85976" cy="225.947" r="1.12763"></circle><circle class="aa" cx="135.03562" cy="222.13454" r="1.12763"></circle><circle class="aa" cx="143.21148" cy="218.32207" r="1.12763"></circle><circle class="aa" cx="150.36536" cy="214.98617" r="1.12763"></circle><circle class="aa" cx="158.54122" cy="211.1737" r="1.12763"></circle><circle class="aa" cx="166.71708" cy="207.36123" r="1.12763"></circle><circle class="aa" cx="174.89294" cy="203.54877" r="1.12763"></circle><circle class="aa" cx="183.0688" cy="199.7363" r="1.12763"></circle><circle class="aa" cx="190.22267" cy="196.4004" r="1.12763"></circle><circle class="aa" cx="198.39853" cy="192.58793" r="1.12763"></circle><circle class="aa" cx="206.57439" cy="188.77546" r="1.12763"></circle><circle class="aa" cx="90.81492" cy="252.70863" r="1.12763"></circle><circle class="aa" cx="98.99078" cy="248.89617" r="1.12763"></circle><circle class="aa" cx="107.16664" cy="245.0837" r="1.12763"></circle><circle class="aa" cx="115.34249" cy="241.27124" r="1.12763"></circle><circle class="aa" cx="122.49637" cy="237.93533" r="1.12763"></circle><circle class="aa" cx="130.67223" cy="234.12286" r="1.12763"></circle><circle class="aa" cx="138.84809" cy="230.3104" r="1.12763"></circle><circle class="aa" cx="147.02395" cy="226.49793" r="1.12763"></circle><circle class="aa" cx="154.17783" cy="223.16203" r="1.12763"></circle><circle class="aa" cx="162.35368" cy="219.34956" r="1.12763"></circle><circle class="aa" cx="170.52954" cy="215.53709" r="1.12763"></circle><circle class="aa" cx="178.7054" cy="211.72463" r="1.12763"></circle><circle class="aa" cx="186.88126" cy="207.91216" r="1.12763"></circle><circle class="aa" cx="194.03514" cy="204.57626" r="1.12763"></circle><circle class="aa" cx="202.211" cy="200.76379" r="1.12763"></circle><circle class="aa" cx="210.38686" cy="196.95132" r="1.12763"></circle><circle class="aa" cx="94.62738" cy="260.88449" r="1.12763"></circle><circle class="aa" cx="102.80324" cy="257.07203" r="1.12763"></circle><circle class="aa" cx="110.9791" cy="253.25956" r="1.12763"></circle><circle class="aa" cx="119.15496" cy="249.4471" r="1.12763"></circle><circle class="aa" cx="126.30884" cy="246.11119" r="1.12763"></circle><circle class="aa" cx="134.4847" cy="242.29872" r="1.12763"></circle><circle class="aa" cx="142.66056" cy="238.48626" r="1.12763"></circle><circle class="aa" cx="150.83641" cy="234.67379" r="1.12763"></circle><circle class="aa" cx="157.99029" cy="231.33788" r="1.12763"></circle><circle class="aa" cx="166.16615" cy="227.52542" r="1.12763"></circle><circle class="aa" cx="174.34201" cy="223.71295" r="1.12763"></circle><circle class="aa" cx="182.51787" cy="219.90049" r="1.12763"></circle><circle class="aa" cx="190.69373" cy="216.08802" r="1.12763"></circle><circle class="aa" cx="197.8476" cy="212.75211" r="1.12763"></circle><circle class="aa" cx="206.02346" cy="208.93965" r="1.12763"></circle><circle class="aa" cx="214.19932" cy="205.12718" r="1.12763"></circle><circle class="aa" cx="98.43985" cy="269.06035" r="1.12763"></circle><circle class="aa" cx="106.61571" cy="265.24789" r="1.12763"></circle><circle class="aa" cx="114.79157" cy="261.43542" r="1.12763"></circle><circle class="aa" cx="122.96743" cy="257.62296" r="1.12763"></circle><circle class="aa" cx="130.1213" cy="254.28705" r="1.12763"></circle><circle class="aa" cx="138.29716" cy="250.47458" r="1.12763"></circle><circle class="aa" cx="146.47302" cy="246.66212" r="1.12763"></circle><circle class="aa" cx="154.64888" cy="242.84965" r="1.12763"></circle><circle class="aa" cx="161.80276" cy="239.51374" r="1.12763"></circle><circle class="aa" cx="169.97862" cy="235.70128" r="1.12763"></circle><circle class="aa" cx="178.15447" cy="231.88881" r="1.12763"></circle><circle class="aa" cx="186.33033" cy="228.07635" r="1.12763"></circle><circle class="aa" cx="194.50619" cy="224.26388" r="1.12763"></circle><circle class="aa" cx="201.66007" cy="220.92797" r="1.12763"></circle><circle class="aa" cx="209.83593" cy="217.11551" r="1.12763"></circle><circle class="aa" cx="218.01179" cy="213.30304" r="1.12763"></circle><circle class="aa" cx="101.77576" cy="276.21423" r="1.12763"></circle><circle class="aa" cx="109.95162" cy="272.40176" r="1.12763"></circle><circle class="aa" cx="118.12747" cy="268.5893" r="1.12763"></circle><circle class="aa" cx="126.30333" cy="264.77683" r="1.12763"></circle><circle class="aa" cx="133.45721" cy="261.44092" r="1.12763"></circle><circle class="aa" cx="141.63307" cy="257.62846" r="1.12763"></circle><circle class="aa" cx="149.80893" cy="253.81599" r="1.12763"></circle><circle class="aa" cx="157.98479" cy="250.00353" r="1.12763"></circle><circle class="aa" cx="165.13866" cy="246.66762" r="1.12763"></circle><circle class="aa" cx="173.31452" cy="242.85515" r="1.12763"></circle><circle class="aa" cx="181.49038" cy="239.04269" r="1.12763"></circle><circle class="aa" cx="189.66624" cy="235.23022" r="1.12763"></circle><circle class="aa" cx="197.8421" cy="231.41776" r="1.12763"></circle><circle class="aa" cx="204.99598" cy="228.08185" r="1.12763"></circle><circle class="aa" cx="213.17184" cy="224.26938" r="1.12763"></circle><circle class="aa" cx="221.3477" cy="220.45692" r="1.12763"></circle><circle class="aa" cx="105.58822" cy="284.39009" r="1.12763"></circle><circle class="aa" cx="113.76408" cy="280.57762" r="1.12763"></circle><circle class="aa" cx="121.93994" cy="276.76516" r="1.12763"></circle><circle class="aa" cx="130.1158" cy="272.95269" r="1.12763"></circle><circle class="aa" cx="137.26968" cy="269.61678" r="1.12763"></circle><circle class="aa" cx="145.44553" cy="265.80432" r="1.12763"></circle><circle class="aa" cx="153.62139" cy="261.99185" r="1.12763"></circle><circle class="aa" cx="161.79725" cy="258.17939" r="1.12763"></circle><circle class="aa" cx="168.95113" cy="254.84348" r="1.12763"></circle><circle class="aa" cx="177.12699" cy="251.03101" r="1.12763"></circle><circle class="aa" cx="185.30285" cy="247.21855" r="1.12763"></circle><circle class="aa" cx="193.47871" cy="243.40608" r="1.12763"></circle><circle class="aa" cx="201.65457" cy="239.59362" r="1.12763"></circle><circle class="aa" cx="208.80844" cy="236.25771" r="1.12763"></circle><circle class="aa" cx="216.9843" cy="232.44524" r="1.12763"></circle><circle class="aa" cx="225.16016" cy="228.63278" r="1.12763"></circle><circle class="aa" cx="109.40069" cy="292.56595" r="1.12763"></circle><circle class="aa" cx="117.57655" cy="288.75348" r="1.12763"></circle><circle class="aa" cx="125.75241" cy="284.94102" r="1.12763"></circle><circle class="aa" cx="133.92826" cy="281.12855" r="1.12763"></circle><circle class="aa" cx="141.08214" cy="277.79264" r="1.12763"></circle><circle class="aa" cx="149.258" cy="273.98018" r="1.12763"></circle><circle class="aa" cx="157.43386" cy="270.16771" r="1.12763"></circle><circle class="aa" cx="165.60972" cy="266.35525" r="1.12763"></circle><circle class="aa" cx="172.7636" cy="263.01934" r="1.12763"></circle><circle class="aa" cx="180.93945" cy="259.20687" r="1.12763"></circle><circle class="aa" cx="189.11531" cy="255.39441" r="1.12763"></circle><circle class="aa" cx="197.29117" cy="251.58194" r="1.12763"></circle><circle class="aa" cx="205.46703" cy="247.76948" r="1.12763"></circle><circle class="aa" cx="212.62091" cy="244.43357" r="1.12763"></circle><circle class="aa" cx="220.79677" cy="240.6211" r="1.12763"></circle><circle class="aa" cx="228.97263" cy="236.80864" r="1.12763"></circle></g></g><path class="ag" d="M4.06583,336.1294a14.77805,14.77805,0,0,1,9.52563,10.988l5.52673-1.704-4.94185,3.68534q8.13749,16.72047,19.86267,12.73463c11.72519-3.98585,4.33841-19.51-5.61077-24.04827Q18.47907,333.24681,4.06583,336.1294ZM5.14975,272.333a20.86263,20.86263,0,0,1,5.312,13.89536c0,7.67634-1.37623,15.65583,1.35541,22.97812l8.39641-1.70161-7.5319,4.94076q8.37891,16.2935,23.50122,14.73549,10.759-12.34788,2.84565-30.972T5.14975,272.333Zm45.89858,33.93923q-17.80085-47.924,45.04-63.95682a42.10934,42.10934,0,0,0-5.39752,16.757c-.62655,7.9943-1.35834,12.24858-2.43148,15.22142l-15.02459-1.22441,14.205,4.31276a37.49271,37.49271,0,0,1-14.205,20.37418A42.69489,42.69489,0,0,1,51.04833,306.27221ZM101.53381,286.45q-3.63906,11.2476-17.90117,21.728c-14.26212,10.48039-18.92225,15.19461-23.2271,34.3877q2.67282-4.52841,12.30807-6.73448a43.19176,43.19176,0,0,0,16.46032-7.3127l-2.48188-7.64267,4.92111,5.52067a33.12326,33.12326,0,0,0,9.08119-17.29029A85.45232,85.45232,0,0,0,101.53381,286.45ZM59.10426,364.3456q4.11671-20.9674,29.58357-22.476l-1.898,6.13128,5.18383-6.13128a31.8249,31.8249,0,0,1,16.64559,5.59747,50.8937,50.8937,0,0,0-13.6779,8.62738Q76.26159,373.54419,59.10426,364.3456Z"></path><path class="ah" d="M87.82317,247.8917q-49.7088,40.97567-42.88636,139.564M12.10351,276.9309Q40.17,310.6214,44.93681,389.92117m-31.32476-51.908q20.54543,10.31456,31.32476,49.44256m53.565-40.01716q-38.79508,4.15381-54.38838,40.01716"></path><path class="ah" d="M99.77388,294.36819q-4.39332,16.16611-18.62053,26.68063C66.92614,331.56333,48.85177,348.005,44.93681,389.92117"></path><path class="t" d="M15.65545,381.97271H78.305V406.7074a31.32476,31.32476,0,0,1-62.64952,0V381.97271Z"></path><g class="ai"><path class="aj" d="M14.32853,386.436H80.46775m-66.13922,4.10192H80.46775"></path></g><path class="ak" d="M321.47318,139.9731a8.1322,8.1322,0,1,1-8.1322,8.1322,8.13256,8.13256,0,0,1,8.1322-8.1322"></path><path class="ak" d="M321.47318,158.86277c-5.42824,0-16.2644,2.72429-16.2644,8.1322v4.0661h32.52879V166.995c0-5.40791-10.83615-8.1322-16.26439-8.1322"></path><path class="ak" d="M359.50044,139.9731a8.1322,8.1322,0,1,1-8.13219,8.1322,8.13256,8.13256,0,0,1,8.13219-8.1322"></path><path class="ak" d="M359.50044,158.86277c-5.42824,0-16.26439,2.72429-16.26439,8.1322v4.0661h32.52879V166.995c0-5.40791-10.83615-8.1322-16.2644-8.1322"></path><path class="ak" d="M395.98784,139.9731a8.1322,8.1322,0,1,1-8.1322,8.1322,8.13256,8.13256,0,0,1,8.1322-8.1322"></path><path class="ak" d="M395.98784,158.86277c-5.42824,0-16.2644,2.72429-16.2644,8.1322v4.0661h32.52879V166.995c0-5.40791-10.83615-8.1322-16.26439-8.1322"></path></svg> 