<svg width="428" height="385" viewBox="0 0 428 385" fill="none" xmlns="http://www.w3.org/2000/svg">
<path d="M378.16 157.068C405.243 197.876 432.731 246.266 421.369 294.802C411.162 338.391 364.354 379.414 311.706 379.73C269.882 379.987 231.12 355.565 188.82 365.645C136.771 378.045 83.0912 401.876 35.1187 366.219C8.06248 346.11 -4.82605 312.789 1.64909 282.274C6.17463 260.967 19.0896 241.842 27.832 221.554C35.1011 204.679 39.7501 184.895 32.8074 167.336C19.9894 134.888 -1.86195 104.228 33.7954 75.5111C55.0381 58.397 82.4384 54.2212 109.698 49.1469C141.235 43.2768 173.037 38.1768 205.228 36.0461C249.804 33.0939 295.527 35.9947 337.324 49.8486C345.537 52.5697 353.742 55.7957 360.19 61.0155C375.002 72.9867 369.294 83.1953 362.343 96.6897C352.507 115.789 365.325 137.866 376.255 154.227C376.89 155.16 377.525 156.11 378.16 157.068Z" fill="#1769FF"/>
<path d="M355.203 364.035H74.6349C73.3323 364.035 72.2764 363.087 72.2764 361.917V177.971C72.2764 176.801 73.3323 175.853 74.6349 175.853H355.205C356.507 175.853 357.563 176.801 357.563 177.971V361.917C357.562 363.087 356.506 364.035 355.203 364.035Z" fill="#C4C4D3"/>
<path d="M348.458 186.762H79.8633V354.489H348.458V186.762Z" fill="#E8E8E8"/>
<path d="M37.374 361.308C37.374 366.579 42.1183 370.853 47.9701 370.853H380.351C386.203 370.853 390.947 366.579 390.947 361.308H37.374V361.308Z" fill="#D3D3DE"/>
<path d="M327.213 201.762H102.626V354.489H327.213V201.762Z" fill="white"/>
<path d="M355.203 364.035H74.6349C73.3323 364.035 72.2764 363.087 72.2764 361.917V177.971C72.2764 176.801 73.3323 175.853 74.6349 175.853H355.205C356.507 175.853 357.563 176.801 357.563 177.971V361.917C357.562 363.087 356.506 364.035 355.203 364.035Z" fill="#D4D4E7"/>
<path d="M349.19 186.848H83.6309V354.575H349.19V186.848Z" fill="#E6EBF4"/>
<path d="M37.374 361.308C37.374 366.579 42.1183 370.853 47.9701 370.853H380.351C386.203 370.853 390.947 366.579 390.947 361.308H37.374Z" fill="#D3D3DE"/>
<path d="M325.213 201.762H104.626C103.521 201.762 102.626 202.658 102.626 203.762V352.489C102.626 353.594 103.521 354.489 104.626 354.489H325.213C326.318 354.489 327.213 353.594 327.213 352.489V203.762C327.213 202.658 326.318 201.762 325.213 201.762Z" fill="white"/>
<path d="M192.519 218.75H119.996V299.595H192.519V218.75Z" fill="#D9E7FF"/>
<path d="M192.519 308.669H119.996V335.067H192.519V308.669Z" fill="#D5DCEA"/>
<path d="M310.025 218.75H199.863V245.148H310.025V218.75Z" fill="#D5DCEA"/>
<path d="M310.025 255.048H199.863V335.068H310.025V255.048Z" fill="#D9E7FF"/>
<path d="M211.755 314.025C256.601 314.025 292.955 277.671 292.955 232.825C292.955 187.98 256.601 151.625 211.755 151.625C166.91 151.625 130.555 187.98 130.555 232.825C130.555 277.671 166.91 314.025 211.755 314.025Z" fill="#5F95F7"/>
<path d="M211.755 290.795C243.771 290.795 269.725 264.841 269.725 232.825C269.725 200.81 243.771 174.855 211.755 174.855C179.739 174.855 153.785 200.81 153.785 232.825C153.785 264.841 179.739 290.795 211.755 290.795Z" fill="#8AB3FF"/>
<path d="M211.775 293.146C185.105 293.146 160.655 275.296 153.475 248.336C144.925 216.196 164.115 183.096 196.255 174.546C211.825 170.406 228.075 172.576 242.005 180.656C255.945 188.736 265.895 201.756 270.045 217.326C274.185 232.896 272.015 249.146 263.935 263.086C255.855 277.026 242.835 286.976 227.265 291.126C222.085 292.486 216.885 293.146 211.775 293.146ZM157.995 247.126C165.885 276.766 196.415 294.476 226.055 286.586C240.415 282.766 252.425 273.586 259.885 260.726C267.335 247.866 269.335 232.886 265.515 218.526C261.695 204.166 252.515 192.156 239.655 184.696C226.795 177.246 211.815 175.246 197.455 179.066C167.815 186.956 150.115 217.486 157.995 247.126Z" fill="white"/>
<path d="M211.755 266.346C230.268 266.346 245.275 251.338 245.275 232.826C245.275 214.313 230.268 199.306 211.755 199.306C193.243 199.306 178.235 214.313 178.235 232.826C178.235 251.338 193.243 266.346 211.755 266.346Z" fill="#1769FF"/>
<path d="M213.607 245.988C220.887 244.968 225.961 238.239 224.941 230.96C223.92 223.68 217.192 218.606 209.912 219.626C202.633 220.647 197.559 227.375 198.579 234.655C199.599 241.934 206.328 247.008 213.607 245.988Z" fill="white"/>
<path d="M211.755 185.506C210.465 185.506 209.415 184.456 209.415 183.166V166.526C209.415 165.236 210.465 164.186 211.755 164.186C213.045 164.186 214.095 165.236 214.095 166.526V183.166C214.095 184.456 213.055 185.506 211.755 185.506Z" fill="white"/>
<path d="M211.755 301.476C210.465 301.476 209.415 300.426 209.415 299.136V282.496C209.415 281.206 210.465 280.156 211.755 280.156C213.045 280.156 214.095 281.206 214.095 282.496V299.136C214.095 300.426 213.055 301.476 211.755 301.476Z" fill="white"/>
<path d="M278.065 235.165H261.425C260.135 235.165 259.085 234.115 259.085 232.825C259.085 231.535 260.135 230.485 261.425 230.485H278.065C279.355 230.485 280.405 231.535 280.405 232.825C280.405 234.115 279.355 235.165 278.065 235.165Z" fill="white"/>
<path d="M162.095 235.165H145.455C144.165 235.165 143.115 234.115 143.115 232.825C143.115 231.535 144.165 230.485 145.455 230.485H162.095C163.385 230.485 164.435 231.535 164.435 232.825C164.435 234.115 163.385 235.165 162.095 235.165Z" fill="white"/>
<path d="M122.586 139.651C161.246 139.651 192.586 108.389 192.586 69.8253C192.586 31.2619 161.246 0 122.586 0C83.926 0 52.5859 31.2619 52.5859 69.8253C52.5859 108.389 83.926 139.651 122.586 139.651Z" fill="#8AB3FF"/>
<path d="M122.586 132.526C157.311 132.526 185.461 104.454 185.461 69.8255C185.461 35.197 157.311 7.125 122.586 7.125C87.8611 7.125 59.7109 35.197 59.7109 69.8255C59.7109 104.454 87.8611 132.526 122.586 132.526Z" fill="#5F95F7"/>
<path d="M122.586 128.97C155.333 128.97 181.88 102.49 181.88 69.8255C181.88 37.161 155.333 10.6812 122.586 10.6812C89.8389 10.6812 63.292 37.161 63.292 69.8255C63.292 102.49 89.8389 128.97 122.586 128.97Z" fill="white"/>
<path d="M122.586 7.0376V69.7381H187.408C187.033 63.9984 185.074 45.0073 169.901 28.5367C151.459 8.52244 127.278 7.19981 122.586 7.0376Z" fill="#C8DCFF"/>
<path d="M122.586 67.3676C120.876 67.3676 119.504 65.9826 119.504 64.2856V30.4336C119.504 28.7241 120.889 27.3516 122.586 27.3516C124.295 27.3516 125.668 28.7366 125.668 30.4336V64.2856C125.68 65.9951 124.295 67.3676 122.586 67.3676Z" fill="#5F95F7"/>
<path d="M143.711 72.9203H126.928C125.219 72.9203 123.846 71.5353 123.846 69.8383C123.846 68.1289 125.231 66.7563 126.928 66.7563H143.711C145.42 66.7563 146.793 68.1414 146.793 69.8383C146.793 71.5353 145.42 72.9203 143.711 72.9203Z" fill="#5F95F7"/>
<path d="M122.586 62.6382C118.618 62.6382 115.399 65.8699 115.399 69.8254C115.399 73.7933 118.631 77.0125 122.586 77.0125C126.554 77.0125 129.773 73.7808 129.773 69.8254C129.786 65.8699 126.554 62.6382 122.586 62.6382Z" fill="white"/>
<path d="M122.586 65.6831C120.303 65.6831 118.431 67.5423 118.431 69.8382C118.431 72.1216 120.29 73.9933 122.586 73.9933C124.87 73.9933 126.741 72.1341 126.741 69.8382C126.741 67.5423 124.882 65.6831 122.586 65.6831Z" fill="#1769FF"/>
<path d="M122.336 19.0411C120.627 19.0411 119.254 17.656 119.254 15.9591V10.1694C119.254 8.45995 120.639 7.0874 122.336 7.0874C124.046 7.0874 125.418 8.47243 125.418 10.1694V15.9591C125.431 17.656 124.046 19.0411 122.336 19.0411Z" fill="#5F95F7"/>
<path d="M122.336 133.35C120.627 133.35 119.254 131.965 119.254 130.268V124.141C119.254 122.432 120.639 121.059 122.336 121.059C124.046 121.059 125.418 122.444 125.418 124.141V130.268C125.431 131.977 124.046 133.35 122.336 133.35Z" fill="#5F95F7"/>
<path d="M68.3703 73.4438H61.9443C60.2349 73.4438 58.8623 72.0588 58.8623 70.3618C58.8623 68.6523 60.2473 67.2798 61.9443 67.2798H68.3703C70.0798 67.2798 71.4523 68.6648 71.4523 70.3618C71.4523 72.0588 70.0673 73.4438 68.3703 73.4438Z" fill="#5F95F7"/>
<path d="M182.866 73.4438H176.44C174.73 73.4438 173.358 72.0588 173.358 70.3618C173.358 68.6523 174.743 67.2798 176.44 67.2798H182.866C184.575 67.2798 185.948 68.6648 185.948 70.3618C185.948 72.0588 184.575 73.4438 182.866 73.4438Z" fill="#5F95F7"/>
<path d="M165.21 115.656C164.424 115.656 163.626 115.356 163.027 114.757L158.535 110.265C157.324 109.055 157.324 107.108 158.535 105.898C159.745 104.688 161.692 104.688 162.902 105.898L167.394 110.39C168.604 111.6 168.604 113.547 167.394 114.757C166.782 115.356 165.996 115.656 165.21 115.656Z" fill="#5F95F7"/>
<path d="M84.5042 34.9499C83.7181 34.9499 82.9195 34.6505 82.3206 34.0515L77.5166 29.2476C76.3063 28.0373 76.3063 26.0907 77.5166 24.8804C78.727 23.6701 80.6735 23.6701 81.8838 24.8804L86.6878 29.6843C87.8981 30.8947 87.8981 32.8412 86.6878 34.0515C86.0764 34.6505 85.2903 34.9499 84.5042 34.9499Z" fill="#5F95F7"/>
<path d="M79.7002 115.656C78.9141 115.656 78.1156 115.356 77.5166 114.757C76.3063 113.547 76.3063 111.6 77.5166 110.39L82.0086 105.898C83.219 104.688 85.1655 104.688 86.3758 105.898C87.5862 107.108 87.5862 109.055 86.3758 110.265L81.8838 114.757C81.2724 115.356 80.4863 115.656 79.7002 115.656Z" fill="#5F95F7"/>
<path d="M160.406 34.9499C159.62 34.9499 158.822 34.6505 158.223 34.0515C157.012 32.8412 157.012 30.8947 158.223 29.6843L163.027 24.8804C164.237 23.6701 166.183 23.6701 167.394 24.8804C168.604 26.0907 168.604 28.0373 167.394 29.2476L162.59 34.0515C161.978 34.6505 161.192 34.9499 160.406 34.9499Z" fill="#5F95F7"/>
<path d="M409.826 131.875V149.411H410.104L427.372 132.098V131.875H409.826Z" fill="#E6E7E8"/>
<path d="M376.536 142.864H287.133V140.782L287.177 53.3823H280.63L280.586 147.339V149.41H369.978H378.674H409.826V142.864H385.231H376.536Z" fill="#F1F1F1"/>
<path d="M287.177 53.3823L287.132 140.782V142.864H376.536H385.231H409.826V131.875H416.383H427.372V125.317V53.3823H287.177Z" fill="white"/>
<path d="M290.049 37.7065H422.852C424.478 37.7065 425.969 38.2631 427.15 39.1984C426.393 36.17 423.665 33.9321 420.403 33.9321H287.6C283.759 33.9321 280.642 37.0496 280.642 40.8907L280.63 53.3827H283.08V44.6761C283.091 40.8239 286.208 37.7065 290.049 37.7065Z" fill="#AAC4F1"/>
<path d="M427.372 40.8908C427.372 40.3007 427.294 39.744 427.161 39.1985C425.98 38.2632 424.489 37.7065 422.863 37.7065H290.049C286.208 37.7065 283.091 40.824 283.091 44.6651V53.3716H427.372V40.8908Z" fill="#AAC4F1"/>
<path d="M393.693 48.4503C392.145 48.4503 390.898 47.3481 390.898 45.9898V30.3136C390.898 28.9553 392.145 27.853 393.693 27.853C395.241 27.853 396.488 28.9553 396.488 30.3136V45.9898C396.488 47.3481 395.229 48.4503 393.693 48.4503Z" fill="#5F95F7"/>
<path d="M367.228 47.4372C365.681 47.4372 364.434 46.335 364.434 44.9766V31.3268C364.434 29.9684 365.681 28.8662 367.228 28.8662C368.776 28.8662 370.023 29.9684 370.023 31.3268V44.9655C370.023 46.335 368.776 47.4372 367.228 47.4372Z" fill="#5F95F7"/>
<path d="M340.775 47.4372C339.227 47.4372 337.98 46.335 337.98 44.9766V31.3268C337.98 29.9684 339.227 28.8662 340.775 28.8662C342.322 28.8662 343.569 29.9684 343.569 31.3268V44.9655C343.569 46.335 342.322 47.4372 340.775 47.4372Z" fill="#5F95F7"/>
<path d="M314.321 47.4372C312.773 47.4372 311.526 46.335 311.526 44.9766V31.3268C311.526 29.9684 312.773 28.8662 314.321 28.8662C315.869 28.8662 317.115 29.9684 317.115 31.3268V44.9655C317.115 46.335 315.857 47.4372 314.321 47.4372Z" fill="#5F95F7"/>
<path d="M316.425 75.2267C316.425 79.5354 312.929 83.0203 308.631 83.0203C304.323 83.0203 300.838 79.5243 300.838 75.2267C300.838 70.9291 304.334 67.4331 308.631 67.4331C312.94 67.422 316.425 70.918 316.425 75.2267Z" fill="#8AB3FF"/>
<path d="M308.631 109.196C312.936 109.196 316.425 105.706 316.425 101.402C316.425 97.0977 312.936 93.6084 308.631 93.6084C304.327 93.6084 300.838 97.0977 300.838 101.402C300.838 105.706 304.327 109.196 308.631 109.196Z" fill="#8AB3FF"/>
<path d="M308.631 135.382C312.936 135.382 316.425 131.893 316.425 127.588C316.425 123.284 312.936 119.795 308.631 119.795C304.327 119.795 300.838 123.284 300.838 127.588C300.838 131.893 304.327 135.382 308.631 135.382Z" fill="#CFE1FF"/>
<path d="M338.781 75.2267C338.781 79.5354 335.286 83.0203 330.988 83.0203C326.679 83.0203 323.194 79.5243 323.194 75.2267C323.194 70.9291 326.69 67.4331 330.988 67.4331C335.297 67.422 338.781 70.918 338.781 75.2267Z" fill="#8AB3FF"/>
<path d="M361.149 75.2267C361.149 79.5354 357.653 83.0203 353.356 83.0203C349.058 83.0203 345.562 79.5243 345.562 75.2267C345.562 70.9291 349.058 67.4331 353.356 67.4331C357.653 67.4331 361.149 70.9179 361.149 75.2267Z" fill="#CFE1FF"/>
<path d="M383.506 75.2267C383.506 79.5354 380.01 83.0203 375.712 83.0203C371.414 83.0203 367.918 79.5243 367.918 75.2267C367.918 70.9291 371.414 67.4331 375.712 67.4331C380.01 67.4331 383.506 70.9179 383.506 75.2267Z" fill="#1769FF"/>
<path d="M405.862 75.2267C405.862 79.5354 402.366 83.0203 398.068 83.0203C393.76 83.0203 390.275 79.5243 390.275 75.2267C390.275 70.9291 393.771 67.4331 398.068 67.4331C402.377 67.422 405.862 70.918 405.862 75.2267Z" fill="#5F95F7"/>
<path d="M330.988 135.382C335.292 135.382 338.781 131.893 338.781 127.588C338.781 123.284 335.292 119.795 330.988 119.795C326.684 119.795 323.194 123.284 323.194 127.588C323.194 131.893 326.684 135.382 330.988 135.382Z" fill="#1769FF"/>
<path d="M353.344 135.382C357.649 135.382 361.138 131.893 361.138 127.588C361.138 123.284 357.649 119.795 353.344 119.795C349.04 119.795 345.551 123.284 345.551 127.588C345.551 131.893 349.04 135.382 353.344 135.382Z" fill="#5F95F7"/>
<path d="M375.712 135.382C380.016 135.382 383.506 131.893 383.506 127.588C383.506 123.284 380.016 119.795 375.712 119.795C371.408 119.795 367.918 123.284 367.918 127.588C367.918 131.893 371.408 135.382 375.712 135.382Z" fill="#ABC4F0"/>
<path d="M398.013 135.382C402.317 135.382 405.806 131.893 405.806 127.588C405.806 123.284 402.317 119.795 398.013 119.795C393.709 119.795 390.219 123.284 390.219 127.588C390.219 131.893 393.709 135.382 398.013 135.382Z" fill="#5F95F7"/>
<path d="M330.988 109.195C335.292 109.195 338.781 105.706 338.781 101.401C338.781 97.0972 335.292 93.6079 330.988 93.6079C326.684 93.6079 323.194 97.0972 323.194 101.401C323.194 105.706 326.684 109.195 330.988 109.195Z" fill="#ABC4F0"/>
<path d="M353.344 109.196C357.649 109.196 361.138 105.706 361.138 101.402C361.138 97.0977 357.649 93.6084 353.344 93.6084C349.04 93.6084 345.551 97.0977 345.551 101.402C345.551 105.706 349.04 109.196 353.344 109.196Z" fill="#8AB3FF"/>
<path d="M375.701 109.196C380.005 109.196 383.494 105.706 383.494 101.402C383.494 97.0977 380.005 93.6084 375.701 93.6084C371.397 93.6084 367.907 97.0977 367.907 101.402C367.907 105.706 371.397 109.196 375.701 109.196Z" fill="#5F95F7"/>
<path d="M403.056 109.218C402.344 109.218 401.62 108.94 401.074 108.394L391.165 98.4851C390.074 97.394 390.074 95.6238 391.165 94.5327C392.257 93.4416 394.027 93.4416 395.118 94.5327L405.027 104.453C406.118 105.544 406.118 107.314 405.027 108.405C404.493 108.951 403.769 109.218 403.056 109.218Z" fill="#003EAE"/>
<path d="M392.958 109.363C392.245 109.363 391.522 109.084 390.976 108.539C389.885 107.448 389.885 105.677 390.976 104.586L401.163 94.3989C402.254 93.3078 404.025 93.3078 405.116 94.3989C406.207 95.49 406.207 97.2602 405.116 98.3513L394.929 108.539C394.383 109.084 393.67 109.363 392.958 109.363Z" fill="#003EAE"/>
</svg>
