<svg width="611" height="421" fill="none" xmlns="http://www.w3.org/2000/svg"><path opacity=".3" d="M294.642 68.52C358.6 36.344 367.09 40.522 439.173 27.308c73.124-13.371 152.863 12.274 168.801 104.619 15.729 91.144-31.823 142.383-97.083 183.802-50.364 31.966-129.01 40.114-181.093 32.749-36.51-5.17-88.072-29.301-125.468-54.581-45.677-30.817-86.927-51.814-59.531-110.052 14.323-30.451 44.121-52.738 69.846-68.963 33.371-21.048 34.581-23.538 79.997-46.364z" fill="url(#paint0_linear)"/><path d="M208.141 69.149c24.691-11.822 53.637-52.304 124.213-53.14 71.57-.836 145.406 58.076 145.645 148.155.239 88.925-42.862 136.413-111.45 165.113-52.962 22.132-118.051 14.31-166.282-1.094-33.836-10.788-86.342-30.336-135.187-48.563-77.335-28.859-73.638-108.171-50.497-141.906 18.284-26.653 33.042-44.184 96.818-50.553 37.853-3.821 61.551-1.214 96.74-18.012z" fill="#4FA3F6" fill-opacity=".22"/><mask id="mask0" mask-type="alpha" maskUnits="userSpaceOnUse" x="0" y="16" width="478" height="327"><path d="M208.141 69.149c24.691-11.822 53.637-52.304 124.213-53.14 71.57-.836 145.406 58.076 145.645 148.155.239 88.925-42.862 136.413-111.45 165.113-52.962 22.132-118.051 14.31-166.282-1.094-33.836-10.788-86.342-30.336-135.187-48.563-77.335-28.859-73.638-108.171-50.497-141.906 18.284-26.653 33.042-44.184 96.818-50.553 37.853-3.821 61.551-1.214 96.74-18.012z" fill="#4FA3F6"/></mask><g mask="url(#mask0)"><path d="M528.711 350H183.289C171 350 164 339.213 164 325.946c0-13.267 8-23.946 19.289-23.946h345.422c4.593 0 8.289 10.787 8.289 23.946 0 13.267-3.696 24.054-8.289 24.054z" fill="#355B5C"/><path d="M182.46 301.003l-2.488-5.023 1.719.136-2.715-4.796 1.177.09-3.258-6.697-3.348 6.199 1.221.091-2.714 4.389 1.719.136-2.488 4.661 5.203.362v3.032l.995.09v-3.032l4.977.362zm23.075-2.443l-2.805-5.657 1.946.136-3.077-5.43 1.357.09-3.755-7.557-3.801 7.014 1.403.091-3.077 4.978 1.946.181-2.805 5.249 5.881.407v3.484l1.132.091v-3.484l5.655.407z" fill="#355B5C"/><path d="M194.857 299.103l-3.484-6.969 2.398.136-3.755-6.697 1.629.09-4.615-9.322-4.706 8.643 1.72.136-3.756 6.2 2.398.135-3.483 6.516 7.284.543v4.254l1.403.091v-4.254l6.967.498z" fill="#355B5C"/><path d="M396.334 1.213c12.669 1.448 25.338 17.738 38.051 19.186-12.668 7.784-25.337.634-38.051 8.417V1.213z" fill="#ED2F37"/><path d="M396.38 46.6C430.5 32 465.427 156.94 493.5 174c28.073 17.06 37.529 30.889 37.529 30.889l60.855 107.02H174.135s8.394-3.148 21.365-17.409c12.971-14.261 16.401-27.698 25-35s12.874-8.275 26.5-21 25.85-62.516 46.175-81.758C313.5 137.5 325.817 131.618 342 120c16.183-11.619 20.259-58.8 54.38-73.4z" fill="#51C73F"/><path d="M309 153c-34 30.5 164 24.5 138.5 57.5s-179.5 46-209 54-30 47-63.5 47c-10.662 2.591 198.499 31 198.499 31l228.927-30.591-19.229-15.34-52.168-91.68S522 194.5 499 183c-23-11.5-62-134.5-92.5-137.5 11 8 19.5 58 2.5 63.5s-66 13.5-100 44z" fill="#30993F"/><path d="M239 245.5c120-46 47.5-74.5 61.5-91.5s46.664-34.741 60.5-46c13.836-11.259 72.692-73.556 35.38-61.4C363.089 57.446 361.5 89 341 113c-20.5 24-26 21.5-47.825 43.742C271.351 178.984 258 231.5 239 245.5z" fill="#74D945"/><path d="M594.776 296.347l-52.167-91.679-46.603-17.06s-58.543-115.526-53-96.49c5.542 19.037 11.636 28.602 13.817 37.301 2.182 8.699-57.73 9.684-58.323 20.081-.593 10.397 67.303 15.217 78.506 24.618 11.202 9.401 16 29.5 16 29.5l43.494 7.842 14.343 26.562-87.73 51.632 117.683 3.801 3.664 6.743 11.674 12.489h17.872l-19.23-15.34z" fill="#2A8537"/><path d="M400.674 57.349a1.64 1.64 0 01-1.176-.498 1.642 1.642 0 01-.498-1.177c0-.09 0-.226.045-.316 0-.09.045-.227.091-.317l.135-.272c.046-.09.136-.18.227-.271a1.64 1.64 0 012.352 0c.091.09.136.18.227.271l.135.272c.046.09.091.226.091.317 0 .09.045.226.045.316 0 .453-.181.86-.498 1.177a1.64 1.64 0 01-1.176.498zm6 7a1.64 1.64 0 01-1.176-.498 1.642 1.642 0 01-.498-1.177c0-.09 0-.226.045-.316 0-.09.045-.227.091-.317l.135-.272c.046-.09.136-.18.227-.271a1.64 1.64 0 012.352 0c.091.09.136.18.227.271l.135.272c.046.09.091.226.091.317 0 .09.045.226.045.316 0 .453-.181.86-.498 1.177a1.64 1.64 0 01-1.176.498zm3 9a1.64 1.64 0 01-1.176-.498 1.642 1.642 0 01-.498-1.177c0-.09 0-.226.045-.316 0-.09.045-.227.091-.317l.135-.272c.046-.09.136-.18.227-.271a1.64 1.64 0 012.352 0c.091.09.136.18.227.271l.135.272c.046.09.091.226.091.317 0 .09.045.226.045.316 0 .453-.181.86-.498 1.177a1.64 1.64 0 01-1.176.498zm3 11a1.64 1.64 0 01-1.176-.498 1.642 1.642 0 01-.498-1.177c0-.09 0-.226.045-.316 0-.09.045-.227.091-.317l.135-.272c.046-.09.136-.18.227-.271a1.64 1.64 0 012.352 0c.091.09.136.18.227.271l.135.272c.046.09.091.226.091.317 0 .09.045.226.045.316 0 .453-.181.86-.498 1.177a1.64 1.64 0 01-1.176.498zm0 11a1.64 1.64 0 01-1.176-.498 1.642 1.642 0 01-.498-1.177c0-.09 0-.226.045-.316 0-.09.045-.227.091-.317l.135-.272c.046-.09.136-.18.227-.271a1.64 1.64 0 012.352 0c.091.09.136.18.227.271l.135.272c.046.09.091.226.091.317 0 .09.045.226.045.316 0 .453-.181.86-.498 1.177a1.64 1.64 0 01-1.176.498zm-7 20a1.64 1.64 0 01-1.176-.498 1.643 1.643 0 01-.498-1.177c0-.09 0-.226.045-.316 0-.091.045-.227.091-.317l.135-.272a1.21 1.21 0 01.227-.271 1.64 1.64 0 012.352 0c.091.09.136.181.227.271l.135.272c.046.09.091.226.091.317 0 .09.045.226.045.316 0 .453-.181.86-.498 1.177a1.64 1.64 0 01-1.176.498zm-10 5a1.64 1.64 0 01-1.176-.498 1.643 1.643 0 01-.498-1.177c0-.09 0-.226.045-.316 0-.091.045-.227.091-.317l.135-.272a1.21 1.21 0 01.227-.271 1.64 1.64 0 012.352 0c.091.09.136.181.227.271l.135.272c.046.09.091.226.091.317 0 .09.045.226.045.316 0 .453-.181.86-.498 1.177a1.64 1.64 0 01-1.176.498zm-12 3a1.64 1.64 0 01-1.176-.498 1.643 1.643 0 01-.498-1.177c0-.09 0-.226.045-.316 0-.091.045-.227.091-.317l.135-.272a1.21 1.21 0 01.227-.271 1.64 1.64 0 012.352 0c.091.09.136.181.227.271l.135.272c.046.09.091.226.091.317 0 .09.045.226.045.316 0 .453-.181.86-.498 1.177a1.64 1.64 0 01-1.176.498zm-11 3a1.64 1.64 0 01-1.176-.498 1.643 1.643 0 01-.498-1.177c0-.09 0-.226.045-.316 0-.091.045-.227.091-.317l.135-.272a1.21 1.21 0 01.227-.271 1.64 1.64 0 012.352 0c.091.09.136.181.227.271l.135.272c.046.09.091.226.091.317 0 .09.045.226.045.316 0 .453-.181.86-.498 1.177a1.64 1.64 0 01-1.176.498zm-12 4a1.64 1.64 0 01-1.176-.498 1.643 1.643 0 01-.498-1.177c0-.09 0-.226.045-.316 0-.091.045-.227.091-.317l.135-.272a1.21 1.21 0 01.227-.271 1.64 1.64 0 012.352 0c.091.09.136.181.227.271l.135.272c.046.09.091.226.091.317 0 .09.045.226.045.316 0 .453-.181.86-.498 1.177a1.64 1.64 0 01-1.176.498zm-11 4a1.64 1.64 0 01-1.176-.498 1.643 1.643 0 01-.498-1.177c0-.09 0-.226.045-.316 0-.091.045-.227.091-.317l.135-.272a1.21 1.21 0 01.227-.271 1.64 1.64 0 012.352 0c.091.09.136.181.227.271l.135.272c.046.09.091.226.091.317 0 .09.045.226.045.316 0 .453-.181.86-.498 1.177a1.64 1.64 0 01-1.176.498zm-11 5a1.64 1.64 0 01-1.176-.498 1.643 1.643 0 01-.498-1.177c0-.09 0-.226.045-.316 0-.091.045-.227.091-.317l.135-.272a1.21 1.21 0 01.227-.271 1.64 1.64 0 012.352 0c.091.09.136.181.227.271l.135.272c.046.09.091.226.091.317 0 .09.045.226.045.316 0 .453-.181.86-.498 1.177a1.64 1.64 0 01-1.176.498zm-10 6a1.64 1.64 0 01-1.176-.498 1.643 1.643 0 01-.498-1.177c0-.09 0-.226.045-.316 0-.091.045-.227.091-.317l.135-.272a1.21 1.21 0 01.227-.271 1.64 1.64 0 012.352 0c.091.09.136.181.227.271l.135.272c.046.09.091.226.091.317 0 .09.045.226.045.316 0 .453-.181.86-.498 1.177a1.64 1.64 0 01-1.176.498zm-10 6a1.64 1.64 0 01-1.176-.498 1.643 1.643 0 01-.498-1.177c0-.09 0-.226.045-.316 0-.091.045-.227.091-.317l.135-.272a1.21 1.21 0 01.227-.271 1.64 1.64 0 012.352 0c.091.09.136.181.227.271l.135.272c.046.09.091.226.091.317 0 .09.045.226.045.316 0 .453-.181.86-.498 1.177a1.64 1.64 0 01-1.176.498zm-74 110a1.64 1.64 0 01-1.176-.498 1.643 1.643 0 01-.498-1.177c0-.09 0-.226.045-.316 0-.091.045-.227.091-.317l.135-.272a1.21 1.21 0 01.227-.271 1.64 1.64 0 012.352 0c.091.09.136.181.227.271l.135.272c.046.09.091.226.091.317 0 .09.045.226.045.316 0 .453-.181.86-.498 1.177a1.64 1.64 0 01-1.176.498zm-17 14a1.64 1.64 0 01-1.176-.498 1.643 1.643 0 01-.498-1.177c0-.09 0-.226.045-.316 0-.091.045-.227.091-.317l.135-.272a1.21 1.21 0 01.227-.271 1.64 1.64 0 012.352 0c.091.09.136.181.227.271l.135.272c.046.09.091.226.091.317 0 .09.045.226.045.316 0 .453-.181.86-.498 1.177a1.64 1.64 0 01-1.176.498zm-6 8a1.64 1.64 0 01-1.176-.498 1.643 1.643 0 01-.498-1.177c0-.09 0-.226.045-.316 0-.091.045-.227.091-.317l.135-.272a1.21 1.21 0 01.227-.271 1.64 1.64 0 012.352 0c.091.09.136.181.227.271l.135.272c.046.09.091.226.091.317 0 .09.045.226.045.316 0 .453-.181.86-.498 1.177a1.64 1.64 0 01-1.176.498zm-6 10a1.64 1.64 0 01-1.176-.498 1.643 1.643 0 01-.498-1.177c0-.09 0-.226.045-.316 0-.091.045-.227.091-.317l.135-.272a1.21 1.21 0 01.227-.271 1.64 1.64 0 012.352 0c.091.09.136.181.227.271l.135.272c.046.09.091.226.091.317 0 .09.045.226.045.316 0 .453-.181.86-.498 1.177a1.64 1.64 0 01-1.176.498zm-4 11a1.64 1.64 0 01-1.176-.498 1.643 1.643 0 01-.498-1.177c0-.09 0-.226.045-.316 0-.091.045-.227.091-.317l.135-.272a1.21 1.21 0 01.227-.271 1.64 1.64 0 012.352 0c.091.09.136.181.227.271l.135.272c.046.09.091.226.091.317 0 .09.045.226.045.316 0 .453-.181.86-.498 1.177a1.64 1.64 0 01-1.176.498zm44-45a1.64 1.64 0 01-1.176-.498 1.643 1.643 0 01-.498-1.177c0-.09 0-.226.045-.316 0-.091.045-.227.091-.317l.135-.272a1.21 1.21 0 01.227-.271 1.64 1.64 0 012.352 0c.091.09.136.181.227.271l.135.272c.046.09.091.226.091.317 0 .09.045.226.045.316 0 .453-.181.86-.498 1.177a1.64 1.64 0 01-1.176.498zm12-2a1.64 1.64 0 01-1.176-.498 1.643 1.643 0 01-.498-1.177c0-.09 0-.226.045-.316 0-.091.045-.227.091-.317l.135-.272a1.21 1.21 0 01.227-.271 1.64 1.64 0 012.352 0c.091.09.136.181.227.271l.135.272c.046.09.091.226.091.317 0 .09.045.226.045.316 0 .453-.181.86-.498 1.177a1.64 1.64 0 01-1.176.498zm12-2a1.64 1.64 0 01-1.176-.498 1.643 1.643 0 01-.498-1.177c0-.09 0-.226.045-.316 0-.091.045-.227.091-.317l.135-.272a1.21 1.21 0 01.227-.271 1.64 1.64 0 012.352 0c.091.09.136.181.227.271l.135.272c.046.09.091.226.091.317 0 .09.045.226.045.316 0 .453-.181.86-.498 1.177a1.64 1.64 0 01-1.176.498zm13-2a1.64 1.64 0 01-1.176-.498 1.643 1.643 0 01-.498-1.177c0-.09 0-.226.045-.316 0-.091.045-.227.091-.317l.135-.272a1.21 1.21 0 01.227-.271 1.64 1.64 0 012.352 0c.091.09.136.181.227.271l.135.272c.046.09.091.226.091.317 0 .09.045.226.045.316 0 .453-.181.86-.498 1.177a1.64 1.64 0 01-1.176.498zm13-2a1.64 1.64 0 01-1.176-.498 1.643 1.643 0 01-.498-1.177c0-.09 0-.226.045-.316 0-.091.045-.227.091-.317l.135-.272a1.21 1.21 0 01.227-.271 1.64 1.64 0 012.352 0c.091.09.136.181.227.271l.135.272c.046.09.091.226.091.317 0 .09.045.226.045.316 0 .453-.181.86-.498 1.177a1.64 1.64 0 01-1.176.498zm13-2a1.64 1.64 0 01-1.176-.498 1.643 1.643 0 01-.498-1.177c0-.09 0-.226.045-.316 0-.091.045-.227.091-.317l.135-.272a1.21 1.21 0 01.227-.271 1.64 1.64 0 012.352 0c.091.09.136.181.227.271l.135.272c.046.09.091.226.091.317 0 .09.045.226.045.316 0 .453-.181.86-.498 1.177a1.64 1.64 0 01-1.176.498zm13-3a1.64 1.64 0 01-1.176-.498 1.643 1.643 0 01-.498-1.177c0-.09 0-.226.045-.316 0-.091.045-.227.091-.317l.135-.272a1.21 1.21 0 01.227-.271 1.64 1.64 0 012.352 0c.091.09.136.181.227.271l.135.272c.046.09.091.226.091.317 0 .09.045.226.045.316 0 .453-.181.86-.498 1.177a1.64 1.64 0 01-1.176.498zm12-2a1.64 1.64 0 01-1.176-.498 1.643 1.643 0 01-.498-1.177c0-.09 0-.226.045-.316 0-.091.045-.227.091-.317l.135-.272a1.21 1.21 0 01.227-.271 1.64 1.64 0 012.352 0c.091.09.136.181.227.271l.135.272c.046.09.091.226.091.317 0 .09.045.226.045.316 0 .453-.181.86-.498 1.177a1.64 1.64 0 01-1.176.498zm14-3a1.64 1.64 0 01-1.176-.498 1.643 1.643 0 01-.498-1.177c0-.09 0-.226.045-.316 0-.091.045-.227.091-.317l.135-.272a1.21 1.21 0 01.227-.271 1.64 1.64 0 012.352 0c.091.09.136.181.227.271l.135.272c.046.09.091.226.091.317 0 .09.045.226.045.316 0 .453-.181.86-.498 1.177a1.64 1.64 0 01-1.176.498zm15-3a1.64 1.64 0 01-1.176-.498 1.643 1.643 0 01-.498-1.177c0-.09 0-.226.045-.316 0-.091.045-.227.091-.317l.135-.272a1.21 1.21 0 01.227-.271 1.64 1.64 0 012.352 0c.091.09.136.181.227.271l.135.272c.046.09.091.226.091.317 0 .09.045.226.045.316 0 .453-.181.86-.498 1.177a1.64 1.64 0 01-1.176.498zm15-4a1.64 1.64 0 01-1.176-.498 1.643 1.643 0 01-.498-1.177c0-.09 0-.226.045-.316 0-.091.045-.227.091-.317l.135-.272a1.21 1.21 0 01.227-.271 1.64 1.64 0 012.352 0c.091.09.136.181.227.271l.135.272c.046.09.091.226.091.317 0 .09.045.226.045.316 0 .453-.181.86-.498 1.177a1.64 1.64 0 01-1.176.498zm13-4a1.64 1.64 0 01-1.176-.498 1.643 1.643 0 01-.498-1.177c0-.09 0-.226.045-.316 0-.091.045-.227.091-.317l.135-.272a1.21 1.21 0 01.227-.271 1.64 1.64 0 012.352 0c.091.09.136.181.227.271l.135.272c.046.09.091.226.091.317 0 .09.045.226.045.316 0 .453-.181.86-.498 1.177a1.64 1.64 0 01-1.176.498zm12-3a1.64 1.64 0 01-1.176-.498 1.643 1.643 0 01-.498-1.177c0-.09 0-.226.045-.316 0-.091.045-.227.091-.317l.135-.272a1.21 1.21 0 01.227-.271 1.64 1.64 0 012.352 0c.091.09.136.181.227.271l.135.272c.046.09.091.226.091.317 0 .09.045.226.045.316 0 .453-.181.86-.498 1.177a1.64 1.64 0 01-1.176.498zm12-4a1.64 1.64 0 01-1.176-.498 1.643 1.643 0 01-.498-1.177c0-.09 0-.226.045-.316 0-.091.045-.227.091-.317l.135-.272a1.21 1.21 0 01.227-.271 1.64 1.64 0 012.352 0c.091.09.136.181.227.271l.135.272c.046.09.091.226.091.317 0 .09.045.226.045.316 0 .453-.181.86-.498 1.177a1.64 1.64 0 01-1.176.498zm13-7a1.64 1.64 0 01-1.176-.498 1.643 1.643 0 01-.498-1.177c0-.09 0-.226.045-.316 0-.091.045-.227.091-.317l.135-.272a1.21 1.21 0 01.227-.271 1.64 1.64 0 012.352 0c.091.09.136.181.227.271l.135.272c.046.09.091.226.091.317 0 .09.045.226.045.316 0 .453-.181.86-.498 1.177a1.64 1.64 0 01-1.176.498zm-119-50a1.64 1.64 0 01-1.176-.498 1.643 1.643 0 01-.498-1.177c0-.09 0-.226.045-.316 0-.091.045-.227.091-.317l.135-.272a1.21 1.21 0 01.227-.271 1.64 1.64 0 012.352 0c.091.09.136.181.227.271l.135.272c.046.09.091.226.091.317 0 .09.045.226.045.316 0 .453-.181.86-.498 1.177a1.64 1.64 0 01-1.176.498zm9 3a1.64 1.64 0 01-1.176-.498 1.643 1.643 0 01-.498-1.177c0-.09 0-.226.045-.316 0-.091.045-.227.091-.317l.135-.272a1.21 1.21 0 01.227-.271 1.64 1.64 0 012.352 0c.091.09.136.181.227.271l.135.272c.046.09.091.226.091.317 0 .09.045.226.045.316 0 .453-.181.86-.498 1.177a1.64 1.64 0 01-1.176.498zm10 2a1.64 1.64 0 01-1.176-.498 1.643 1.643 0 01-.498-1.177c0-.09 0-.226.045-.316 0-.091.045-.227.091-.317l.135-.272a1.21 1.21 0 01.227-.271 1.64 1.64 0 012.352 0c.091.09.136.181.227.271l.135.272c.046.09.091.226.091.317 0 .09.045.226.045.316 0 .453-.181.86-.498 1.177a1.64 1.64 0 01-1.176.498zm11 2a1.64 1.64 0 01-1.176-.498 1.643 1.643 0 01-.498-1.177c0-.09 0-.226.045-.316 0-.091.045-.227.091-.317l.135-.272a1.21 1.21 0 01.227-.271 1.64 1.64 0 012.352 0c.091.09.136.181.227.271l.135.272c.046.09.091.226.091.317 0 .09.045.226.045.316 0 .453-.181.86-.498 1.177a1.64 1.64 0 01-1.176.498zm12 2a1.64 1.64 0 01-1.176-.498 1.643 1.643 0 01-.498-1.177c0-.09 0-.226.045-.316 0-.091.045-.227.091-.317l.135-.272a1.21 1.21 0 01.227-.271 1.64 1.64 0 012.352 0c.091.09.136.181.227.271l.135.272c.046.09.091.226.091.317 0 .09.045.226.045.316 0 .453-.181.86-.498 1.177a1.64 1.64 0 01-1.176.498zm12 2a1.64 1.64 0 01-1.176-.498 1.643 1.643 0 01-.498-1.177c0-.09 0-.226.045-.316 0-.091.045-.227.091-.317l.135-.272a1.21 1.21 0 01.227-.271 1.64 1.64 0 012.352 0c.091.09.136.181.227.271l.135.272c.046.09.091.226.091.317 0 .09.045.226.045.316 0 .453-.181.86-.498 1.177a1.64 1.64 0 01-1.176.498zm14 2a1.64 1.64 0 01-1.176-.498 1.643 1.643 0 01-.498-1.177c0-.09 0-.226.045-.316 0-.091.045-.227.091-.317l.135-.272a1.21 1.21 0 01.227-.271 1.64 1.64 0 012.352 0c.091.09.136.181.227.271l.135.272c.046.09.091.226.091.317 0 .09.045.226.045.316 0 .453-.181.86-.498 1.177a1.64 1.64 0 01-1.176.498zm14 2a1.64 1.64 0 01-1.176-.498 1.643 1.643 0 01-.498-1.177c0-.09 0-.226.045-.316 0-.091.045-.227.091-.317l.135-.272a1.21 1.21 0 01.227-.271 1.64 1.64 0 012.352 0c.091.09.136.181.227.271l.135.272c.046.09.091.226.091.317 0 .09.045.226.045.316 0 .453-.181.86-.498 1.177a1.64 1.64 0 01-1.176.498zm13 2a1.64 1.64 0 01-1.176-.498 1.643 1.643 0 01-.498-1.177c0-.09 0-.226.045-.316 0-.091.045-.227.091-.317l.135-.272a1.21 1.21 0 01.227-.271 1.64 1.64 0 012.352 0c.091.09.136.181.227.271l.135.272c.046.09.091.226.091.317 0 .09.045.226.045.316 0 .453-.181.86-.498 1.177a1.64 1.64 0 01-1.176.498zm13 3a1.64 1.64 0 01-1.176-.498 1.643 1.643 0 01-.498-1.177c0-.09 0-.226.045-.316 0-.091.045-.227.091-.317l.135-.272a1.21 1.21 0 01.227-.271 1.64 1.64 0 012.352 0c.091.09.136.181.227.271l.135.272c.046.09.091.226.091.317 0 .09.045.226.045.316 0 .453-.181.86-.498 1.177a1.64 1.64 0 01-1.176.498zm12 4a1.64 1.64 0 01-1.176-.498 1.643 1.643 0 01-.498-1.177c0-.09 0-.226.045-.316 0-.091.045-.227.091-.317l.135-.272a1.21 1.21 0 01.227-.271 1.64 1.64 0 012.352 0c.091.09.136.181.227.271l.135.272c.046.09.091.226.091.317 0 .09.045.226.045.316 0 .453-.181.86-.498 1.177a1.64 1.64 0 01-1.176.498zm10 5a1.64 1.64 0 01-1.176-.498 1.643 1.643 0 01-.498-1.177c0-.09 0-.226.045-.316 0-.091.045-.227.091-.317l.135-.272a1.21 1.21 0 01.227-.271 1.64 1.64 0 012.352 0c.091.09.136.181.227.271l.135.272c.046.09.091.226.091.317 0 .09.045.226.045.316 0 .453-.181.86-.498 1.177a1.64 1.64 0 01-1.176.498zm-38.204-93.815a3.987 3.987 0 00-3.981 3.982 3.987 3.987 0 003.981 3.982 3.987 3.987 0 003.982-3.982 3.96 3.96 0 00-3.982-3.982z" fill="#fff"/><path d="M410.47 99a6.47 6.47 0 00-6.47 6.471 6.47 6.47 0 006.47 6.471 6.47 6.47 0 006.47-6.471A6.47 6.47 0 00410.47 99zm0 10.453a3.988 3.988 0 01-3.982-3.982 3.988 3.988 0 013.982-3.982 3.988 3.988 0 013.982 3.982 3.96 3.96 0 01-3.982 3.982z" fill="#ED2F37"/><path d="M308.47 154.534a3.987 3.987 0 00-3.981 3.982 3.987 3.987 0 003.981 3.982 3.988 3.988 0 003.982-3.982 3.988 3.988 0 00-3.982-3.982z" fill="#fff"/><path d="M308.47 152a6.47 6.47 0 00-6.47 6.471 6.47 6.47 0 006.47 6.471 6.47 6.47 0 006.47-6.471c0-3.53-2.896-6.471-6.47-6.471zm0 10.498a3.987 3.987 0 01-3.982-3.982 3.988 3.988 0 013.982-3.982 3.988 3.988 0 013.982 3.982c0 2.172-1.81 3.982-3.982 3.982z" fill="#ED2F37"/><path d="M449.47 203.534a3.987 3.987 0 00-3.981 3.982 3.987 3.987 0 003.981 3.982 3.987 3.987 0 003.982-3.982 3.988 3.988 0 00-3.982-3.982z" fill="#fff"/><path d="M449.47 201a6.47 6.47 0 00-6.47 6.471 6.47 6.47 0 006.47 6.471 6.47 6.47 0 006.47-6.471c0-3.53-2.896-6.471-6.47-6.471zm0 10.498a3.987 3.987 0 01-3.982-3.982 3.988 3.988 0 013.982-3.982 3.988 3.988 0 013.982 3.982c0 2.172-1.81 3.982-3.982 3.982z" fill="#ED2F37"/><path d="M235.47 261.534a3.988 3.988 0 00-3.982 3.982 3.988 3.988 0 003.982 3.982 3.987 3.987 0 003.982-3.982 3.988 3.988 0 00-3.982-3.982z" fill="#fff"/><path d="M235.47 259a6.47 6.47 0 00-6.47 6.471 6.47 6.47 0 006.47 6.471 6.47 6.47 0 006.47-6.471c0-3.53-2.896-6.471-6.47-6.471zm0 10.498a3.987 3.987 0 01-3.982-3.982 3.988 3.988 0 013.982-3.982 3.987 3.987 0 013.981 3.982c0 2.172-1.809 3.982-3.981 3.982zm-28.371 34.527l5.964 12.548L198 314.524l9.099-10.499z" fill="#ED2F37"/><path d="M252.349 320.634l-3.179-6.307 2.173.162-3.494-6.078 1.494.077-4.24-8.424-4.181 7.913 1.539.076-3.387 5.642 2.173.116-3.068 5.911 6.61.438.035 4.761 1.222.079-.035-4.761 6.338.395zm-15.401.31l-2.211-4.37 1.493.077-2.391-4.186 1.041.035-2.948-5.81-2.892 5.456 1.087.081-2.363 3.868 1.494.122-2.134 4.092 4.572.275.025 2.67.86.083-.024-2.67 4.391.277zm25.066 4.101l-1.566-3.063 1.041.081-1.656-2.971.724.038-2.073-4.099-2.047 3.82.725.084-1.604 2.73 1.041.081-1.512 2.865 3.214.197.018 1.9.634.04-.018-1.901 3.079.198z" fill="#355B5C"/><path d="M275.431 140.71h-73.388c-1.9-.136-3.438-1.765-3.438-3.711a3.728 3.728 0 013.71-3.711h1.538a3.727 3.727 0 003.71-3.71 3.728 3.728 0 00-3.71-3.711H169.15a3.728 3.728 0 00-3.71 3.711 3.727 3.727 0 003.71 3.71h17.917a3.728 3.728 0 013.71 3.711 3.728 3.728 0 01-3.71 3.711h-45.698a3.727 3.727 0 00-3.71 3.71 3.727 3.727 0 003.71 3.711h73.117a3.727 3.727 0 013.71 3.711 3.727 3.727 0 01-3.71 3.71h-45.743a3.727 3.727 0 00-3.71 3.711 3.727 3.727 0 003.71 3.71H197.7a3.728 3.728 0 013.71 3.711 3.728 3.728 0 01-3.71 3.711h-45.743a3.727 3.727 0 00-3.71 3.71 3.727 3.727 0 003.71 3.711h68.908a3.727 3.727 0 003.71-3.711 3.727 3.727 0 00-3.71-3.71h-7.918a3.728 3.728 0 01-3.71-3.711 3.728 3.728 0 013.71-3.711h34.613a3.727 3.727 0 003.71-3.71 3.727 3.727 0 00-3.71-3.711h-17.917a3.727 3.727 0 01-3.71-3.71 3.727 3.727 0 013.71-3.711h45.698a3.727 3.727 0 003.71-3.711c0-2.036-1.584-3.71-3.62-3.71zm-32.286 34.139a3.71 3.71 0 10-7.204-1.782 3.71 3.71 0 007.204 1.782z" fill="#fff"/><path d="M219.425 132.035a3.71 3.71 0 10-5.474-5.011 3.71 3.71 0 005.474 5.011zm-30.001-19.713a3.71 3.71 0 10-7.221-1.71 3.71 3.71 0 007.221 1.71zm2.034 76.588a3.71 3.71 0 10-7.333-1.135 3.71 3.71 0 007.333 1.135zm-30.984-29.367a3.711 3.711 0 10-7.333-1.147 3.711 3.711 0 007.333 1.147zm-37.604-12.33a3.711 3.711 0 00-5.247-5.248 3.71 3.71 0 105.247 5.248zM470.627 70.04h7.918a3.727 3.727 0 003.71-3.71 3.727 3.727 0 00-3.71-3.711h-1.538a3.727 3.727 0 01-3.71-3.71 3.727 3.727 0 013.71-3.711h34.703a3.727 3.727 0 013.71 3.71 3.727 3.727 0 01-3.71 3.711h-17.917a3.727 3.727 0 00-3.71 3.71 3.727 3.727 0 003.71 3.711h45.743a3.727 3.727 0 013.71 3.71 3.727 3.727 0 01-3.71 3.711h-27.962a3.727 3.727 0 00-3.71 3.711 3.727 3.727 0 003.71 3.71h45.698a3.727 3.727 0 013.71 3.711 3.727 3.727 0 01-3.71 3.71h-68.863a3.728 3.728 0 01-3.711-3.71 3.728 3.728 0 013.711-3.71h7.918a3.727 3.727 0 003.71-3.711 3.727 3.727 0 00-3.71-3.71h-25.7a3.727 3.727 0 01-3.71-3.711 3.727 3.727 0 013.71-3.71zm-8.382 6.32a3.71 3.71 0 10-5.248-5.247 3.71 3.71 0 005.248 5.248z" fill="#fff"/></g><path d="M399.629 3.213c12.669 1.448 25.337 17.738 38.051 19.186-12.669 7.784-25.337.634-38.051 8.417V3.213z" fill="#ED2F37"/><path d="M400.443 1.131h-1.674V51.95h1.674V1.13z" fill="#414042"/><path d="M401.258 1.63c0 .904-.724 1.628-1.629 1.628A1.622 1.622 0 01398 1.63c0-.905.724-1.629 1.629-1.629s1.629.724 1.629 1.63z" fill="#414042"/><path d="M473.922 72.04h7.918a3.727 3.727 0 003.71-3.71 3.727 3.727 0 00-3.71-3.711h-1.539a3.727 3.727 0 01-3.71-3.71 3.727 3.727 0 013.71-3.711h34.704a3.727 3.727 0 013.71 3.71 3.727 3.727 0 01-3.71 3.711h-17.918a3.727 3.727 0 00-3.71 3.71 3.727 3.727 0 003.71 3.711h45.743a3.728 3.728 0 013.711 3.71 3.728 3.728 0 01-3.711 3.711h-27.961a3.727 3.727 0 00-3.71 3.711 3.727 3.727 0 003.71 3.71h45.698a3.727 3.727 0 013.71 3.711 3.727 3.727 0 01-3.71 3.71h-68.864a3.727 3.727 0 01-3.71-3.71 3.727 3.727 0 013.71-3.71h7.918a3.727 3.727 0 003.71-3.711 3.727 3.727 0 00-3.71-3.71h-25.699a3.727 3.727 0 01-3.71-3.711 3.727 3.727 0 013.71-3.71zm-8.382 6.32a3.71 3.71 0 10-5.248-5.247 3.71 3.71 0 005.248 5.248z" fill="#fff"/><path d="M530.801 61.67a3.711 3.711 0 10-7.223-1.711 3.711 3.711 0 007.223 1.71zm23.705-.32a3.711 3.711 0 10-7.35-1.036 3.711 3.711 0 007.35 1.036zM494.25 43.286a3.71 3.71 0 10-7.326-1.192 3.71 3.71 0 007.326 1.192zm82.541 50.596a3.71 3.71 0 10-3.307-6.643 3.71 3.71 0 003.307 6.643zm-64.999 17.436a3.71 3.71 0 100-7.42 3.71 3.71 0 000 7.42z" fill="#fff"/><path d="M141.508 272.363l29.529-.881-3.085 18.952H137.1l4.408-18.071z" fill="#293762"/><path d="M141.972 273.183l28.184-.82-2.885 17.63h-29.42l4.121-16.81z" fill="#4FA3F6"/><path d="M137.1 290.434h30.412l-19.393 6.611h-30.852l19.833-6.611z" fill="#6A7495"/><path d="M117.267 297.045h30.852l19.833-6.888v1.599l-19.833 7.052h-30.852v-1.763z" fill="#293762"/><path d="M106.248 416.38c42.111 0 76.249-4.615 76.249-10.307s-34.138-10.307-76.249-10.307c-42.11 0-76.248 4.615-76.248 10.307s34.138 10.307 76.248 10.307z" fill="#EDF5FE"/><path d="M114.413 410.063c27.768 0 50.278-1.786 50.278-3.99 0-2.203-22.51-3.99-50.278-3.99-27.768 0-50.278 1.787-50.278 3.99 0 2.204 22.51 3.99 50.278 3.99z" fill="#4FA3F6" fill-opacity=".15"/><path d="M76.86 402.47l-1.023 4.819 8.003.823 3.068-2.762.542-1.293 6.017-3.291v-1.998l-4.272-.353-7.942 1.587-4.393 2.468zm33.789 1.137l-1.315 3.165.4 2.221 23.114-.055.286-1.666-1.717-1.333-7.38-1.832-6.122-1.444-3.432-.722-3.834 1.666z" fill="#000"/><path d="M98.314 255.174c1.422-1.186 1.682-6.751 1.793-7.714.11-.964 9.075 1.702 9.075 1.702s-1.802 3.258-1.559 5.431c.242 2.174-9.309.581-9.309.581z" fill="#F4B2A2"/><path d="M102.507 254.44c-2.397-.692-2.365 2.497-2.365 2.497 1.422-1.186-.11-8.521 0-9.484.11-.964 9.075 1.702 9.075 1.702s-.443.804-.872 1.868c-2.008.888-4.039 2.044-5.838 3.417z" fill="#EFA27A"/><path d="M95.421 236.94c.197-5.086 4.456-9.057 9.535-8.896 4.665.167 8.398 3.795 8.847 8.338.043.406.042.783.049 1.196l-.023.456c.505 1.218 1.487 3.321 1.645 4.306.108.732-.828 1.144-1.538 1.36.133 2.949.166 4.637-.777 5.389-1.516 1.28-5.182 1.404-7.681 1.335-3.449-.107-7.766-4.975-9.454-9.875a8.75 8.75 0 01-.603-3.609z" fill="#FAB28C"/><path d="M95.242 236.025c.196-5.086 4.455-9.056 9.534-8.896 3.941.122 7.168 2.721 8.394 6.244-1.984-2.123-5.377.426-6.885 1.366-.602.383.202 3.763-.313 4.205-1.442.512-1.037-.736-2.442-.985-.898-.161-1.719-.713-2.574-.469-1.5.411-2.763 1.452-2.976 3.039-.315 2.586 1.906 4.103 2.547 6.386l.029.145c-1.996-1.901-3.781-4.635-4.712-7.426a8.747 8.747 0 01-.602-3.609z" fill="#EFA27A"/><path d="M87.519 256.79c-5.135 5.172-9.79 11.859-13.115 17.067a57.774 57.774 0 00-3.915 7.13c-.74 1.589-.407 3.436.812 4.692 1.958 1.995 5.874 5.209 13.262 9.198 11.785 6.391 7.13-1.44 7.13-1.44s-8.496-7.315-13.262-10.898c2.216-2.143 4.95-5.209 6.539-7.315 2.142-2.807 7.056-9.531 7.056-9.531l-4.507-8.903z" fill="#293762"/><path d="M87.518 256.79c-5.135 5.172-9.79 11.859-13.114 17.067 11.13-11.631 7.723-6.283 7.723 4.735 2.143-2.807 10.018-11.959 10.018-11.959l-4.627-9.843z" fill="#222D33"/><path d="M84.01 328.753H102c-1.921 9.235-5.541 25.342-7.98 32.065-1.514 11.452-6.282 43.888-6.282 43.888H76.719s2.673-23.237 6.81-41.339c.924-11.895.296-23.532.48-34.614z" fill="#293762"/><path d="M98.315 318.641l20.161-2.19c.37 17.067.85 41.855.85 45.513v42.181l-9.551.882s-1.827-30.909-1.347-45.021c-5.264-17.565-9.004-31.317-10.113-41.365z" fill="#293762"/><path d="M102.037 333.297l-6.206 21.943s-1.921.517-5.8.554c-3.88.037-6.096-.849-6.096-.849s1.182-25.554 1.958-36.304c.443-6.169 0-10.502 0-10.502s8.977 1.662 13.336 1.773c4.396.111 4.101 15.442 4.101 15.442l-1.293 7.943z" fill="#293762"/><path d="M84.268 355.092c2.955-6.908 8.46-12.966 15.774-14.703l1.995-7.092 1.33-7.943s.295-15.331-4.1-15.442c-4.397-.111-16.366-4.052-16.366-4.052s1.313 8.815.87 14.985c0 11.9.201 34.1.201 34.1s.074.074.296.147z" fill="#222D33"/><path d="M118.366 307.806c5.135 9.162.849 47.767.849 47.767s-1.957.628-5.91.738c-4.803.148-6.096-.702-6.096-.702s-2.733-9.715-4.691-18.101c-.998-4.211-3.436-9.199-3.436-11.969 0-6.317.185-15.59.185-15.59s5.245-.111 10.048-.665c4.802-.591 9.051-1.478 9.051-1.478zm-8.259-57.039c-.527 3.966-.527 10.853-.527 10.853s-1.979.137-5.973.162c-4.852.032-6.159-.153-6.159-.153s-2.762-2.119-4.74-3.947c-1.008-.918 3.844-3.667 3.844-4.271.44-2.204 1.499-3.966 1.499-3.966s-.01 1.443 4.842 1.322c4.853-.129 7.214 0 7.214 0z" fill="#293762"/><path d="M109.774 251.648c-.526 3.967-.194 10.854-.194 10.854s-1.979.137-5.973.161c-4.852.032-6.159-.153-6.159-.153s-2.762-2.118-4.74-3.946c-1.008-.918 3.844-4.108 3.844-4.712 0-1.377.882-2.645.882-2.645s.606.562 5.459.441c4.853-.129 6.881 0 6.881 0zm-3.858 99.085c.295-3.435.997-6.649 3.288-9.346 2.29-2.697 5.467-4.913 8.94-5.726.665-.148 1.625-.296 2.586-.48.443-10.824.221-22.757-2.365-27.374 0 0-4.285.886-9.05 1.44-4.803.591-10.049.665-10.049.665s-.184 9.31-.184 15.59c0 2.77 2.438 7.758 3.435 11.969a556.095 556.095 0 003.362 13.262c.037.037.037 0 .037 0z" fill="#222D33"/><path d="M79.363 321.286c0-26.872 3.267-30.909 3.526-40.108.222-7.462 1.763-14.985 4.407-24.241 3.526-3.967 5.06-3.302 12.782-3.967 9.04 0 11.106-1.672 14.985 1.763 9.162 8.128.864 19.863 1.197 32.128.111 4.027 3.398 13.004 4.581 20.946 1.847 12.228 3.478 12.156 3.478 12.156s-17.837 3.672-26.445 3.967c-6.834.296-18.511-2.644-18.511-2.644z" fill="#293762"/><path d="M112.918 228.659c-1.221-1.979-1.75-4.952-9.345-3.935-6.529.88-9.237 3.128-10.453 6.065-2.322 8.206-.43 11.216 2.749 13.858 3.122 2.594 4.222 5.428 7.78-1.543-1.629-.807-2.409-2.648-1.37-4.059 1.401-1.86 1.718-.412 2.154-1.064.697-1.042-1.564-3.992 2.083-5.355 3.864-1.407 7.92-1.443 6.402-3.967z" fill="#323949"/><path d="M156.246 292.586l-2.66 1.183-2.106 1.182 3.99.776 1.515-.296-.739-2.845z" fill="#F4B2A2"/><path d="M151.481 294.951l2.659-.923 5.579.813.849 2.696-.776 2.919-5.947.812-2.328-.738-1.477-2.476 1.441-3.103z" fill="#FAB28C"/><path d="M108.452 268.396c.882 2.645 3.526 20.275 11.019 33.056 1.588-7.13-1.394-22.107-1.764-29.089-.406-6.982 1.612-14.325-3.966-14.104-5.578.222-5.289 10.137-5.289 10.137z" fill="#222D33"/><path d="M151.481 295.579a2.14 2.14 0 00-1.478-2.031c-5.393-1.774-20.429-7.315-21.611-8.054-1.33-.886-1.229-17.337-10.243-26.794-4.544-4.765-6.972-.1-8.117 2.412-.776 1.7-1.478 5.172-1.145 6.207 2.918 9.346 9.937 23.716 13.631 26.339 3.51 2.475 20.281 6.207 27.3 7.647.85.185 1.626-.48 1.626-1.33v-4.396h.037z" fill="#293762"/><path d="M346.5 403.765c42.25 0 76.5-4.707 76.5-10.513s-34.25-10.513-76.5-10.513-76.5 4.707-76.5 10.513 34.25 10.513 76.5 10.513z" fill="#EDF5FE"/><path d="M347.577 397.338c32.585 0 59.001-2.201 59.001-4.917 0-2.715-26.416-4.916-59.001-4.916-32.586 0-59.002 2.201-59.002 4.916 0 2.716 26.416 4.917 59.002 4.917z" fill="#4FA3F6" fill-opacity=".15"/><path d="M381.5 420.061c42.25 0 76.5-4.706 76.5-10.512s-34.25-10.513-76.5-10.513-76.5 4.707-76.5 10.513 34.25 10.512 76.5 10.512z" fill="#EDF5FE"/><path d="M382.577 413.635c32.585 0 59.001-2.201 59.001-4.917 0-2.715-26.416-4.917-59.001-4.917-32.586 0-59.002 2.202-59.002 4.917 0 2.716 26.416 4.917 59.002 4.917z" fill="#4FA3F6" fill-opacity=".15"/><path d="M275.5 417.141c41.145 0 74.5-4.509 74.5-10.071 0-5.561-33.355-10.07-74.5-10.07s-74.5 4.509-74.5 10.07c0 5.562 33.355 10.071 74.5 10.071z" fill="#EDF5FE"/><path d="M283.477 410.969c27.131 0 49.125-1.746 49.125-3.899 0-2.152-21.994-3.898-49.125-3.898s-49.125 1.746-49.125 3.898c0 2.153 21.994 3.899 49.125 3.899z" fill="#4FA3F6" fill-opacity=".15"/><path d="M285.377 406.918c-.327 2.354-1.112 4.642.196 4.904 3.073.653 5.949.327 7.976-.066.327-1.896.066-2.419-.654-5.23-2.092.719-5.295.981-7.518.392zm-20.857.196c-1.373.327-1.111 3.596-.654 4.577.458.981 7.323.065 8.173-.196 1.111-.327-.785-3.073-.654-3.989-1.177.85-6.146.327-6.865-.392z" fill="#190C03"/><path d="M259.486 321.596c.784 2.746-.066 14.841 0 18.307.196 7.192.065 14.122 1.111 21.183.654 4.381-.065 20.268.327 24.256.458 4.381 1.504 21.641 2.485 23.014 3.203 1.373 6.734 1.373 8.761-.261.523-2.55.327-28.441 1.242-34.652.588-4.184.981-7.911 1.177-12.292.261-5.361 1.765-25.76 2.877-24.91 1.111.785 3.922 19.615 4.642 23.08 1.503 7.257 1.83 14.907 1.438 22.425-.261 4.708 1.373 24.78 1.308 26.218 2.288.262 6.015 1.373 8.695.262.589-6.015 2.616-31.645 2.223-39.098-.392-8.303.589-12.161.589-20.53 0-4.184.85-17.718-1.112-29.029-5.753.589-34.194 2.681-35.763 2.027z" fill="#383838"/><path d="M230.587 284.002c-1.176-1.504-2.549-1.635-4.119-2.485-1.307-.653-2.419-2.026-2.746-2.876-.392-.85-2.549-1.962-3.334-3.073-1.765 1.765 3.073 3.661.85 5.165-3.204 2.157-7.257-2.615-8.238-1.635 0 .589 1.831 4.054 3.531 5.035 1.699.915 3.203 1.7 5.295 1.634 2.223-.065 4.904.327 6.669 1.765.393-1.503.916-2.549 2.092-3.53zm79.765-19.157c-.261-2.419-2.419-3.53-3.465-5.688-.392-.784-.654-5.95-.588-4.511 0 .458-.916-4.185-.523-4.511 2.746-.523 2.353 4.315 3.203 4.445 2.419.393 2.55-3.138 2.746-4.772.262-2.093-.719-4.315 1.635-5.231.196 1.439.327 3.008.392 5.1.065.784-.196 2.681.131 2.877.523.327.784 1.177.719 2.68 1.504 1.177.327 3.4-.065 4.773-.523 2.027.13 3.531-.131 5.427-1.242.327-2.419-.196-4.054-.589zm-34.782-32.363c-5.623-.654-11.442 6.472-9.023 11.115.065.065.065.065 0 0-1.504-1.243-1.504 2.549-1.308 3.203.197 1.046.72 3.204 2.093 3.204.065.654.392 1.569.719 2.157.457.654 1.373.981 1.634 1.635.523 1.177.131 3.923-1.242 4.315 1.569 1.373 12.03-1.046 14.318-.523-.719-1.111-1.111-2.419-.523-3.661.262-.654 1.439-4.838 1.439-4.838 1.177-.458 1.177-1.57 1.111-3.335 0-.981-.065-3.857-1.634-3.53-.85-4.708-1.766-9.088-7.584-9.742z" fill="#FAB28C"/><path d="M267.985 249.938c.654 1.373.916 2.943 2.55 4.119 1.504 1.047 3.596 1.308 5.296 1.373 3.269.131 6.8-3.596 6.996-6.799-2.092 2.419-3.988 3.334-7.192 3.857-2.877.458-5.231-1.177-7.65-2.55z" fill="#EFA27A"/><path d="M273.281 231.436c-4.25 1.569-7.126 2.157-8.107 7.061-.458 2.288.785 4.511 1.438 6.603.589 1.896.327 4.119 1.7 5.819 1.831 2.288 5.165 3.596 7.781 3.596 2.549-.588 3.726-1.634 5.426-3.138 2.027-1.765 2.289-4.054 1.962-6.538-.589-4.25 1.438-9.611-2.616-12.423-2.026-1.373-5.361-1.765-7.584-.98z" fill="#44221B"/><path d="M297.407 323.165c.131.262-.85-32.429.131-41.517 1.83 2.615 5.099 4.838 7.911 6.277 2.157 1.111 6.93 3.138 9.48 1.961 2.68-1.242 2.484-6.734 2.288-9.284-.327-3.465-1.242-13.795-1.83-15.887-.197-.589-4.316-.458-5.819-.131-.262 4.38.13 8.042.196 11.834-2.223-2.812-5.165-5.296-7.061-8.369-3.531-5.884-7.846-8.5-14.45-9.676-1.765-.327-3.334-.916-4.969-1.373-1.503-.327-14.449.196-14.449.457 0 0-6.734 3.662-11.245 6.996-1.242.915-5.165 8.957-6.538 12.488-.981 2.55-3.858 10.003-5.492 11.115-1.243 1.046-13.469-3.923-14.776-5.035-2.485 2.289-3.139 5.623-3.139 5.623 3.335 2.615 10.265 6.996 14.123 8.826 2.876 1.373 6.865 3.269 9.545 1.046 1.7-1.438 6.473-6.734 8.173-11.049 0 0-.85 19.811-.262 27.918.196 2.419-.065 5.099 0 7.388 24.387 7.388 34.456 2.942 38.183.392z" fill="#D4F6FF"/><path d="M218.688 282.106c-.065-.589-1.046-1.373-1.242-2.092-.262-.72-.196-1.439-1.046-1.635-.654 2.158.261 3.138 2.288 3.727z" fill="#FAB28C"/><path d="M230.195 283.74c-.065-.13-1.242 1.177-1.569 1.504-.654.719-2.027.392-2.811.066-.785-.327-1.7-.458-2.55-.458-.916-.066-1.765.196-2.681.131-1.634-.131-3.596-.916-4.707-2.158-.523-.588-1.112-1.242-1.569-1.896a45.646 45.646 0 00-1.308-1.831c1.242 3.858 4.904 7.258 8.892 6.8.915-.065 1.634-.131 2.55-.065.915.065 1.896.457 2.68.915.393.196.981.458.981.458.131-.327 1.831-3.204 2.092-3.466z" fill="#EFA27A"/><path d="M216.4 278.51c.065.065.065.588.131.85.065.327.13.458.392.719.392.392.981.785 1.373 1.112-.719 0-1.7-.393-2.027-.785-.196-.392-.131-1.504.131-1.896zm90.422-20.66c-.066.915 1.242 2.549 2.157 3.072.589.327 1.439.458 2.092.327.131-.065.589-.457.654-.392.458.065.327.392.719.523 2.746.915 1.57-5.296 1.439-6.865.131.785.719 2.354 1.504 2.681 0 1.177-.785 2.288-.981 3.465-.196 1.242.131 2.484.131 3.727-.85-.066-3.335-.066-4.25.13-.066-2.68-3.858-3.726-3.465-6.668z" fill="#EFA27A"/><path d="M238.891 295.967c3.334.784 7.388 2.419 10.592.588 2.549-1.438 5.034-3.923 6.668-6.407 3.727-5.819 3.139-11.507 3.073-18.176.85 3.203.785 6.93 1.243 10.199.98-2.157 1.765-9.938 2.484-11.245-1.177 2.615-.261 6.799-.654 9.807-.327 2.55-1.7 5.361-1.504 7.976.589-1.111 1.112-2.419 1.962-3.334-.458 7.388-2.354 15.103-3.465 22.295.392-6.277-.719-13.076 0-19.288-.327 3.531-4.969 8.369-7.911 10.265-3.792 2.354-7.454-.196-12.488-2.68zm37.986-27.983c0 3.661.262 7.388.458 11.114.654-.457 1.111-1.242 1.307-2.092-.261 2.746.262 6.342 1.504 8.827 1.504-4.119-2.55-8.958-1.046-12.75-.392.458-.981 1.243-1.242 1.7-.196-1.83-1.177-5.165-.981-6.799zm18.111 4.772c.915 1.504 1.896 4.381 3.203 6.342 1.504 2.289 3.269 4.185 5.558 5.623 3.465 2.288 7.78 4.708 12.095 3.335-5.623 8.303-19.287-5.95-21.706-11.507.392.392 1.046.653 1.438.98-.327-1.438-.719-3.269-.588-4.773zm15.037 3.073c1.373 1.308 3.204 3.596 3.269 6.015-.784-2.484-2.092-4.053-3.269-6.015z" fill="#CAE4EA"/><path d="M344.156 384.35c0 .297.148 2.224-.297 2.818-.296.444-1.482 1.186-1.779 1.186h-1.483c-.148 0-.148 2.372-.148 2.817-.148.593-1.927 1.631-3.262 1.927-1.334.297-4.003-.148-4.596-.444-.742-.445-.593-.593-.297-1.483.297-.89.89-4.152 4.152-5.931s4.745-2.224 5.634-2.224c.89 0 2.076 1.334 2.076 1.334z" fill="#231F20"/><path d="M343.859 382.126c.297.742.445 2.373 0 3.114-.444.741-1.631.445-2.224 1.483-.593.889-1.038 3.855-1.482 4.3-.593.444-2.373 1.631-3.559 1.631s-4.3-.149-4.448-.594c-.148-.444-.445-1.779 0-2.372s2.965-3.558 3.262-4.596c.297-.89.89-1.928.89-1.928s3.706-2.224 4.448-2.076c.741 0 3.113 1.038 3.113 1.038z" fill="#58595B"/><path opacity=".3" d="M343.859 382.126c.297.742-6.672 8.452-7.858 8.6-1.186 0-4.3-.593-4.003-1.186.445-.593 2.965-3.559 3.262-4.597.296-.889.889-1.927.889-1.927s3.707-2.224 4.449-2.076c.889.148 3.261 1.186 3.261 1.186z" fill="#58595B"/><path d="M373.514 390.429c.296 0 .296 1.038-.445 1.483-.89.593-4.003 1.038-6.376.297-1.483-.445-3.113-1.335-3.113-1.928 0-.889-2.818-3.113-2.818-2.372 0 1.631-3.706-.297-3.706-.741v-1.78c0-1.186.444-1.186 1.779-.593 1.334.593 5.782 4.004 7.265 4.597 1.335.444 7.414 1.037 7.414 1.037z" fill="#231F20"/><path d="M366.1 382.571c.593 1.038 2.669 3.114 4.003 4.3 1.335 1.186 3.707 2.669 3.855 2.965.297 1.78-1.037 1.78-2.52 1.928-.89.148-3.559.148-5.338-.593-2.224-1.038-2.817-2.966-3.855-3.559-3.707-2.372-4.596-2.669-4.893-2.817-.296-.148-.296-2.076.148-2.52.445-.445 2.818-1.038 4.004-.593 1.038.296 4.596.889 4.596.889z" fill="#58595B"/><path opacity=".3" d="M366.1 382.571c.593 1.038 2.669 3.114 4.004 4.3 1.334 1.186 3.855 2.817 3.855 2.965 0 .445-6.08 1.038-8.304-2.817-.889-1.631-8.451-4.448-8.155-4.596.445-.445 2.818-1.038 4.004-.593 1.038.148 4.596.741 4.596.741z" fill="#58595B"/><path d="M365.804 345.207c-.149-2.817-3.856-35.437-3.856-35.437l-4.151-9.637-25.799-2.224c-.445 1.186-3.262 11.416-3.262 11.416s5.782 70.874 6.672 73.691c.297 1.038 9.934 2.076 9.341-1.483-.593-3.558 1.483-64.646 1.483-64.646s7.858 24.02 8.006 27.43c.149 3.559.593 37.513 2.669 38.254 2.076.742 9.638 1.631 9.49.148 0-1.482-.445-34.695-.593-37.512z" fill="#1E405F"/><path d="M365.804 345.207c-.149-2.817-3.856-35.437-3.856-35.437l-4.151-9.637-10.231-.89.593 14.827-1.779 2.966s7.858 24.019 8.007 27.43c.148 3.558.593 37.512 2.669 38.253 2.075.742 9.637 1.631 9.489.149-.148-1.631-.593-34.844-.741-37.661z" fill="#1F4663"/><path d="M357.797 297.315c-4.152.594-14.827.742-18.83 0-3.855-.741-6.821-.741-6.821-.741l-.593 2.521s.148 1.038 7.858 1.482c7.71.445 17.052.149 18.386-.444.593-.297 0-2.818 0-2.818z" fill="#1D1D1B"/><path d="M340.746 300.281c0 .296.148.445.445.445l4.448.148c.148 0 .445-.148.445-.445l.148-2.372c0-.297-.148-.445-.445-.445l-4.448-.148c-.148 0-.445.148-.445.445l-.148 2.372z" fill="#1D1D1B"/><path d="M345.49 301.022l-4.448-.148c-.148 0-.296-.148-.444-.148-.149-.149-.149-.297-.149-.445l.149-2.372c0-.297.296-.593.593-.593l4.448.148c.148 0 .296.148.445.148.148.148.148.297.148.445l-.148 2.372c.148.297-.149.593-.594.593zm-4.448-3.262l-.148 2.373v.148h.148l4.448.148c.149 0 .149-.148.149-.148l.148-2.372v-.149h-.148l-4.448-.148-.149.148z" fill="#C3B398"/><path d="M341.042 249.424c.593-.89 8.748-.296 9.193 0 .445.297.593 3.41.593 3.41v4.597l-10.379-1.038v-3.855c0 .148 0-2.076.593-3.114z" fill="#BCBEC0"/><path d="M331.256 256.245c4.3-1.631 7.117-2.373 8.452-2.966 1.038-.445 2.224-2.076 2.076-3.262-.149-2.076-.445-7.265-.297-7.858l7.414-.89c-.297.593-.297 7.265.296 9.49.297 1.186 2.224 1.927 3.114 2.075 2.817.89 6.969 1.78 9.786 4.597 2.372 2.224-4.152 20.313-5.486 27.282-.593 3.113-.149 10.378-.149 10.378-8.303 2.373-18.682 1.631-22.24-1.482 0 0 .148-6.524 0-9.49-.297-6.82-2.521-20.906-2.966-27.874z" fill="#EDA47E"/><path d="M340.153 252.538c1.482 2.669 5.782 4.744 5.782 4.744s4.003-1.334 6.079-4.299c0 0 8.007 1.927 9.786 2.965 1.631 1.038-1.631 17.496-1.631 17.496l-1.631 23.575c0 .445-.445.89-.889 1.038-1.038.296-3.559.89-8.6 1.038-7.117.296-13.938-.742-16.458-1.186-.593-.149-1.038-.593-1.038-1.187l-.297-24.761s-1.779-16.31.445-16.903c2.224-.889 8.452-2.52 8.452-2.52z" fill="#E5E6E7"/><path d="M342.229 254.169c.296.296 3.706 3.113 3.706 3.113s-2.817.594-3.855-1.037l-1.631 1.482.593-8.155c0-.148.89 4.3 1.187 4.597z" fill="#D1D3D4"/><path d="M342.228 254.168l-1.927 3.558s-1.631-3.707-1.334-5.189c.148-.594 1.927-2.966 1.927-2.966l1.334 4.597z" fill="#F1F2F2"/><path d="M349.345 254.169c-.296.296-3.558 3.113-3.558 3.113s2.669.594 3.707-1.037l1.631 1.482-.89-8.155c0-.148-.445 4.3-.89 4.597z" fill="#D1D3D4"/><path d="M349.346 254.169l1.779 3.558s1.482-3.262 1.186-4.744c-.148-.594-2.076-3.411-2.076-3.411l-.889 4.597z" fill="#F1F2F2"/><path d="M345.935 257.134l-.148 41.664-.593-8.451v-33.361l.741.148z" fill="#D1D3D4"/><path d="M347.418 262.768c-.445 0-.741.297-.741.742s.296.741.741.741.741-.296.741-.741-.445-.742-.741-.742zm0 4.745c-.445 0-.741.297-.741.741 0 .445.296.742.741.742s.741-.297.741-.742c0-.444-.445-.741-.741-.741zm0 4.596c-.445 0-.741.297-.741.742s.296.741.741.741.741-.296.741-.741-.445-.742-.741-.742zm0 15.272c-.445 0-.741.297-.741.742 0 .444.296.741.741.741s.741-.297.741-.741c0-.445-.445-.742-.741-.742zm0 4.745c-.445 0-.741.297-.741.741 0 .445.296.742.741.742s.741-.297.741-.742c0-.444-.445-.741-.741-.741zm0 4.596c-.445 0-.741.297-.741.742s.296.741.741.741.741-.296.741-.741-.445-.742-.741-.742z" fill="#F1F2F2"/><path d="M353.349 231.483s-1.483 11.269-2.521 12.603c-1.038 1.335-2.817 4.152-4.003 4.597-1.186.444-2.521.593-3.707 0-1.334-.593-3.558-3.559-4.448-4.745-1.038-1.483-1.334-14.086-1.334-13.196 0 0 .889-6.079 8.303-5.783 6.524.297 7.71 6.524 7.71 6.524z" fill="#FAB28C"/><path d="M336.298 229.852c.148-3.558 4.3-9.044 10.823-5.93 0 0 2.373-.445 4.3.593 3.411 1.779 3.855 5.189 3.559 7.71-.445 2.817-1.631 5.634-2.373 6.672-.148.148-.444-.445-.444-.445 1.186-3.558-1.483-7.117-2.224-9.638 0 0-.445 5.042-6.821 2.669-4.003-1.482-4.893.149-4.893.149-.593.889-.741 3.855-.296 6.079 0 0-.149 0-.297-.149-.445-1.334-1.334-4.893-1.334-7.71z" fill="#3D2019"/><path opacity=".2" d="M348.604 225.552c-.889-.296-1.779-.593-2.817-.593-7.117-.296-8.155 5.486-8.303 5.783 0 .296.148 4.003.296 7.413 0 .149.149.445.149.594 0 .148.296.148.296.148-.445-2.224-.296-5.19.297-6.079 0 0 .889-1.631 4.893-.149 6.375 2.373 6.82-2.668 6.82-2.668 0-1.631-.593-3.262-1.631-4.449z" fill="#E3865D"/><path d="M352.014 236.821l-.444 3.855s.148.445.741.445 1.779-1.928 1.779-1.928 1.038-2.075.148-2.817c-1.038-.741-2.224.445-2.224.445z" fill="#FAB28C"/><path d="M337.78 236.673s0 6.524.297 8.599c.296 2.373.593 6.376 5.782 6.673 5.635.444 6.969-3.707 7.414-6.228.445-2.372 1.483-10.082 1.483-10.082s-1.335 5.782-2.817 6.524c-1.928.889-3.114-.593-6.376-.742-3.114-.148-3.855.742-4.3.445-.741-.445-1.483-5.189-1.483-5.189zm2.966 6.968s0-.593 2.372-.593c1.928 0 3.41.742 3.41.742s-1.038 2.817-3.262 2.669c-2.224-.445-2.52-2.818-2.52-2.818z" fill="#3D2019"/><path opacity=".2" d="M352.756 235.931s0 .297-.149.89c-.148 2.372-1.037 5.931-1.334 7.562-.445 2.372-1.779 6.672-7.265 6.227-5.041-.445-5.486-4.448-5.635-6.672-.148-1.186-.148-3.855-.148-5.783l-.296-1.186s0 6.524.296 8.6c.297 2.372.593 6.376 5.783 6.672 5.634.445 6.968-3.707 7.413-6.227.297-2.521 1.335-10.083 1.335-10.083z" fill="#3D2019"/><path opacity=".5" d="M347.27 223.921c-6.524-3.113-10.676 2.373-10.824 5.931-.148 2.817.89 6.228 1.483 8.007 0 .148.296.148.296.148-.445-2.224-.296-5.189.297-6.079 0 0 .889-1.631 4.893-.148 6.227 2.224 6.672-2.817 6.672-2.817 0-1.78-1.038-4.152-2.817-5.042z" fill="#3D2019"/><path d="M349.642 226.739c.148.444.148.889.148 1.186 0 0-.444 5.041-6.82 2.669-4.003-1.483-4.745-.149-5.041.296-.742 1.038-.149 4.745.296 6.969-.445-2.224-.296-5.19.297-6.079 0 0 .889-1.631 4.893-.148 6.227 2.372 6.672-2.669 6.672-2.669 0-.742-.148-1.483-.445-2.224z" fill="#3D2019"/><path d="M348.011 224.959c2.817 6.969-10.824-1.927-11.417 5.19.445-2.966 4.893-2.669 7.562-1.779 4.3 1.482 5.931-1.038 3.855-3.411z" fill="#3D2019"/><path d="M348.901 225.997c1.631 7.414-11.862-2.372-12.307 4.745.593-3.559 5.041-2.076 7.71-1.483 4.152 1.038 5.635-.741 4.597-3.262z" fill="#3D2019"/><path d="M359.428 254.762s6.672 2.076 7.413 6.524c1.187 6.524.445 16.161-2.52 22.537-1.779 3.707-9.193-1.631-8.303-3.41.593-1.187 1.631-7.562 1.631-7.562 1.038-6.079 3.262-14.234 1.779-18.089z" fill="#EEEFEF"/><path d="M366.841 261.286c0-.297-.148-.593-.296-.89 0 5.486-.593 13.344-2.669 17.793-1.334 2.817-5.19 0-7.414.741 0 0-.296 1.186-.444 1.483-1.038 1.779 6.524 7.117 8.303 3.41 2.965-6.376 3.707-16.013 2.52-22.537z" fill="#EEEFEF"/><path d="M337.039 282.488l19.72-3.706 5.634 2.965-4.151 6.079-20.462-1.631s-2.075.445-2.372.297c-.297 0-1.186-.149-1.779-.742s-1.779-2.817-1.779-2.817c.148.297 0 .742 0 1.186 0 0 .593.149.741.593.148.297.148.89.148 1.187-.148 0-1.038-.445-1.038-.445 0 .296 0 .445-.148.593 0 0-1.483-.89-1.631-1.186-.148-.149-.445-1.335-.445-1.335s-.296.593-.741.445c-.148 0-.593-1.483-.445-1.779.148-.297 1.483-2.521 1.631-2.669.148-.148 2.965 0 3.262.148.296-.148 3.855 2.817 3.855 2.817z" fill="#FAB28C"/><path opacity=".5" d="M330.367 281.895c-.297.445.296 2.669.296 2.669s-.148-2.372 0-2.669c.149-.148 1.187-.741 1.631-.889 0 0-1.631.445-1.927.889zm-.593-1.334c-.445.296-.445 2.669-.445 2.669s.445-2.373.593-2.521c.148-.148 1.334-.445 1.779-.593 0 0-1.631 0-1.927.445z" fill="#FAB28C"/><path d="M337.78 282.192s.742-.89 2.373-1.335c2.52-.741 12.01-2.372 16.161-2.668 2.076-.149 8.155 1.334 8.6 3.558.296 2.224-2.966 6.079-5.041 6.227-2.817.297-19.572-.889-20.61-1.779-.89-.741-1.483-4.003-1.483-4.003z" fill="#EEEFEF"/><path d="M355.276 286.047c-13.344.89-16.903-.593-16.013.148.89.89 17.792 2.076 20.61 1.779 1.334-.148 2.965-1.631 4.151-3.41.593-.889-3.558 1.186-8.748 1.483z" fill="#EEEFEF"/><path d="M337.187 282.34l.742-.445 1.631 4.448-1.928-.148-.445-3.855z" fill="#DDDEDF"/><path d="M331.553 254.762s-6.672 1.779-7.414 5.486c-1.186 5.634 5.486 18.682 9.045 21.054 3.262 2.224 5.634 1.928 6.227.297 1.186-4.003-.445-7.562-.445-7.562-.148-5.783-9.341-17.941-7.413-19.275z" fill="#EEEFEF"/><path d="M341.635 256.689c.445-.444 3.411-6.672 3.855-7.117.445-.444 2.966-2.075 3.559-2.372.445-.297.593-.148.89 0 .444.148.593.89 0 1.186-.594.297-.594.593-.594.593s.594-.445.89.149c.297.444.297.889.148 1.037-.148.149-.741.445-.741.445s.741-.445.741-.148c.297.593.297 1.334 0 1.483l-.444.445s.444-.297.593.148c.148.593.148 1.038-.445 1.482-.593.445-1.928 1.483-2.669 1.928-.741.445-1.631.89-2.224 1.483-.148.296-.741 1.038-.741 1.038l-2.818-1.78z" fill="#FAB28C"/><path opacity=".3" d="M350.235 252.686l.445-.445c.296-.148.296-.889 0-1.482-.148-.297-.445 0-.741.148.148-.148.444-.297.593-.445.148-.148.148-.445 0-.741-.149.593-1.335 1.334-1.78 1.927.593 0 1.187-.593 1.78-.593.593 1.186-.742 1.779-1.483 2.372.296 0 1.186-.741 1.483-.296.148.148-.149.741-.149.89-.148.296-.593 1.037 0 .593.593-.445.742-.89.445-1.483-.296-.593-.593-.445-.593-.445zm0-4.745c-.148.445-.445.593-.89.89-.444.297-.889.593-1.186 1.038.445.148 1.335-.593 1.928-.741-.297-.149-.742 0-.742 0s0-.149.594-.594c.296 0 .444-.444.296-.593z" fill="#FAB28C"/><path opacity=".15" d="M349.345 249.276s0-.148 0 0c-.444 0-.889.296-1.186.593-.445.296-.741.741-1.186.89 1.186 0 .593 1.186.297 1.482.593-.148 1.482.742.593 1.631.593 0 .593.742.593 1.038-.148.593-.593 1.186-1.038 1.483 0 0 .148 0 .148-.148.742-.445 2.076-1.483 2.669-1.928.593-.445.741-.89.445-1.483-.148-.445-.593-.148-.593-.148l.445-.445c.296-.148.296-.889 0-1.482-.149-.297-.445 0-.742.148.149-.148.445-.297.593-.445.149-.148.149-.593-.148-1.038-.296-.593-.89-.148-.89-.148z" fill="#FAB28C"/><path d="M345.49 250.165c-1.186-1.334.149-3.113.149-3.706 0-.89-.593-1.335-.742-.89-.148.593-1.334 2.521-1.334 2.965 0 .445-.89 2.818-.593 3.856.296 1.186-1.483 4.299-1.483 4.299l1.779-1.482 2.224-5.042z" fill="#FAB28C"/><path d="M341.635 256.096s-.889.593-1.631 2.076c-1.186 2.372-4.299 11.417-5.486 15.568-.593 2.076 0 8.304 2.076 9.045 2.076.741 6.524-1.928 7.117-3.855.742-2.669 2.521-19.424 1.928-20.461-.89-1.187-4.004-2.373-4.004-2.373z" fill="#F6F7F7"/><path d="M342.525 274.037c3.114-13.048 2.372-16.755 2.965-15.717.742 1.038-1.037 17.941-1.927 20.462-.297 1.186-2.224 2.669-4.003 3.41-1.038.593 1.631-2.966 2.965-8.155z" fill="#F6F7F7"/><path d="M342.228 255.207l-.889 1.186 4.151 2.224.594-1.335-3.856-2.075z" fill="#DDDEDF"/><path d="M379.749 269.271c-.216-.774-1.062-1.399-1.874-1.399h-27.746c-.812 0-1.293.625-1.078 1.399l4.992 17.723c.216.774 1.062 1.399 1.874 1.399h27.796c.812 0 1.293-.625 1.077-1.399l-5.041-17.723z" fill="#0F1726"/><path d="M380.561 269.271c-.215-.774-1.061-1.399-1.874-1.399h-27.762c-.812 0-1.293.625-1.077 1.399l4.991 17.723c.216.774 1.062 1.399 1.858 1.399h27.795c.813 0 1.293-.625 1.078-1.399l-5.009-17.723z" fill="#222B3B"/><path d="M377.576 270.011h-24.329l4.594 16.259h24.694l-4.959-16.259z" fill="#4FA3F6"/><path d="M367.725 269.188c0 .297-.365.543-.812.543-.448 0-.813-.246-.813-.543 0-.296.365-.543.813-.543.447-.016.812.231.812.543z" fill="#040C1D"/><path d="M358.455 285.711l-4.412-15.7h-.796l4.594 16.259h24.694l-.182-.559h-23.898z" fill="#00ADCD"/><path d="M404.877 295.812l-.62 21.27-3.235-.927-3.142-21.285c0 .015 3.854-5.175 6.997.942z" fill="#E59375"/><path d="M392.648 404.248l-.959 1.978-2.245 1.946s-.542.324-.696 1.514c0 0 4.396.092 7.476.154l.96-6.287-4.536.695z" fill="#282829"/><path d="M396.224 409.84l.944-6.287-4.52.695-2.662 5.469 6.238.123z" fill="#4C080F"/><path d="M394.351 400.031l-1.718 4.217s-.016 1.391 2.925 1.36l1.424.031s2.446-.217 1.842-2.194l-.913-3.352-3.56-.062z" fill="#000"/><path d="M395.202 404.789l.836 5.051.805.016 1.115-5.005-2.756-.062z" fill="#000"/><path d="M377.928 404.48l-.975 2.132-2.152 1.853s-.541.34-.665 1.53h7.476l.836-6.303-4.52.788z" fill="#282829"/><path d="M381.627 409.995l.821-6.318-4.52.803-2.539 5.515h6.238z" fill="#4C080F"/><path d="M379.553 400.232l-1.625 4.248s.015 1.39 2.956 1.298h1.424s2.446-.263 1.796-2.225l-.991-3.336h-3.56v.015z" fill="#000"/><path d="M380.497 404.974l.945 5.021h.805l1.006-5.021h-2.756z" fill="#000"/><path d="M399.861 267.328a5.544 5.544 0 015.697 5.376c.092 3.058-1.579 10.92-3.917 8.943-4.581-3.892-6.857-6.225-6.95-9.283-.077-3.059 2.121-4.959 5.17-5.036z" fill="#E59375"/><path d="M405.449 272.055l-5.433-1.267-3.777 4.31s2.508 18.15 4.721 21.811c2.353 3.908 3.359.201 3.917-1.236 0 .015 2.12-20.405.572-23.618z" fill="#E59375"/><path d="M392.199 400.587s6.161.572 6.176-.478c.016-2.503 2.183-19.834 2.585-23.742.635-6.287.898-10.627-2.043-19.231 0 0-7.043-6.673-8.885-2.039l.527 4.448c.557 3.09-.387 6.442-.558 9.608-.51 10.396 1.316 21.07 2.198 31.434z" fill="#180F3D"/><path d="M383.81 318.859s2.647 22.042 6.006 37.535c0 0 1.563 7.446 8.869 3.074 0 0 8.343-34.662 6.192-49.368.015 0-21.872-3.784-21.067 8.759z" fill="#180F3D"/><path d="M393.19 294.823c.697-.123 3.591 1.36 3.591 1.36s3.622 11.585 3.777 13.361c.155 1.761-11.996 10.89-25.555 5.685 0 0 6.284-16.328 6.671-20.344.371-4.016 11.516-.062 11.516-.062z" fill="#E79675"/><path d="M374.136 318.92s-.883-14.118 7.522-24.035c0 0 2.229 2.024 15.123 1.298 0 0 6.95 8.743 7.244 11.631 0 0 6.873 15.431-11.47 14.227.016 0-17.568 2.471-18.419-3.121z" fill="#211A48"/><path d="M383.949 326.536l-9.813-5.376s1.594 30.986 2.832 39.683c0 0 7.059 1.529 8.761.402 4.737-14.644 6.47-37.783 6.47-37.783l-8.25 3.074z" fill="#211A48"/><path d="M378.005 312.093s-4.705 1.359-3.73 10.056c.96 8.511 16.624 9.314 18.095.587 1.563-9.376-6.068-14.335-14.365-10.643z" fill="#211A48"/><path d="M378.129 267.158c-4.256 2.07-1.888 7.059-1.888 7.059l5.742 20.869s5.372 2.193 14.783 1.097c1.3-1.869 3.993-9.701 4.891-15.679.743-4.927 3.049-9.778.542-12.512-.96-1.05-8.297-2.1-8.328-2.27h-8.823l-6.919 1.436z" fill="#F7A483"/><path d="M384.63 266.355h9.442c-.433-1.375-1.315-4.928.062-7.337l-9.535-6.256c-.015-.016 1.687 10.488.031 13.593z" fill="#F7A483"/><path d="M397.385 255.233c-3.251 7.044-12.027 5.7-12.027 5.7-.666.046-2.554.34-2.817-.927l-.465-1.452-.928-4.186c-.202-.649-.326-1.56-.14-2.209.232-.787.387-2.07.016-3.46-.975-3.753.619-5.808.619-5.808 2.043-3.599 7.275-3.846 7.275-3.846 8.42-.819 9.504 5.746 9.504 5.746 1.656 3.738-1.037 10.906-1.037 10.442z" fill="#F7A483"/><path d="M387.355 266.355c-.124-1.236-.124-3.059.82-4.155 1.501-1.746 3.111-3.012 2.244-5.376v-.046c-1.13-.232-2.43-.417-2.832.371-.666 1.297-.759 2.548-2.369 2.981-.944.262-1.981.293-2.739-.294l.046.17c.263 1.267 2.152.973 2.817.927.047 2.209-.124 4.294-.712 5.422h2.725z" fill="#E1876F"/><path d="M381.426 245.486c.635 1.113 2.693 6.627 3.56 5.685 1.595-1.715 2.941-.139 2.508 1.575-.573 2.317-.929 1.838-1.192 3.244 0 0 2.91 4.402 4.721 4.742h3.08s2.879-1.189 5.433-7.043c2.229-5.299.79-12.203-4.086-14.551-4.365-2.117-9.953-1.236-13.265 2.27.015 0-1.997 1.947-.759 4.078z" fill="#5A2025"/><path d="M386.565 254.801a.62.62 0 01-1.238-.062.62.62 0 01.65-.587c.34.031.604.324.588.649z" fill="#fff"/><path d="M393.887 265.706l4.38.912s3.963 4.572 3.963 11.075c-.898 5.978-1.935 17.872-4.118 18.521-7.43 2.193-18.667-8.079-18.667-8.079l-1.393-7.353c7.445-4.309 5.928-9.191 5.928-9.191s.882 3.476 0 0c-.882-3.475-4.643-4.68-4.643-4.68l5.448-1.205s1.61.68 6.439.633c-.015.016 2.678-.216 2.663-.633z" fill="#7763AA"/><path d="M405.527 309.359l-7.291-15.74-18.791-5.5-6.811 21.502c0 .016 14.287 8.264 32.893-.262z" fill="#7763AA"/><path d="M378.284 400.479s6.207.433 6.284-.602c.186-2.502.712-11.693 1.332-15.586 1.052-6.688 3.297-16.08-.883-25.209-6.64-3.985-8.064 1.467-8.064 1.467s-1.966 11.045.309 23.572l1.022 16.358z" fill="#211A48"/><path d="M392.432 324.188c-6.579.679-11.408-1.761-11.408-1.761 8.9 1.931 13.976 0 13.976 0s4.041 1.869 9.691-4.557c-.016.015-1.068 5.159-12.259 6.318z" fill="#130736"/><path d="M381.581 242.227c-2.585 3.198 1.517 7.507 3.545 11.879 2.074 4.495.789 8.82-.325 13.315-2.647 10.72-.093 19.231 8.668 26.012 3.854 2.981 9.38 3.846 12.924 7.167.387-6.333 5.975-17.918 2.446-28.252-1.517-4.417-5.216-7.306-5.944-12.079-.805-5.406.078-11.292-2.368-16.374-2.059-4.278-7.677-6.843-12.244-5.174-.913.339-1.888.726-2.739 1.22.03-.016-3.963 2.286-3.963 2.286z" fill="#5A2025"/><path d="M383.989 274.101l-4.967-3.106-5.294 2.883s-4.558 17.556-3.594 21.857c.898 3.967 3.006 3.664 4.084 2.469.017 0 10.163-20.439 9.771-24.103zm-32.524 10.756c.576.996 2.955 1.502 4.033 2.138 0 0 .813-.26 1.375-1.012.428-1.141-.34-3.091-.591-4.247-.178-.809-.665-3.828-1.581-2.73-.503.607.251 3.684-.887 3.669-1.005-.014-.931-.173-1.507-1.358l-.946-3.322c.015-.015-.886 5.143.104 6.862z" fill="#F7A483"/><path d="M355.381 287.309c3.907 4.261 3.186 3.735 5.869 6.295 2.398 2.28 5.333 5.699 9.894 6.348 4.142.596 3.371-5.243.285-7.435-2.884-2.051-3.84-2.051-7.412-3.84-1.945-.964-4.377-2.613-6.959-3.682 0 0-3.119 0-1.677 2.314zm26.664-18.467c2.276 2.054 2.864 4.248 1.161 7.569-1.393 2.718-8.714 6.796-9.024 3.753-.604-5.978-.635-9.237 1.409-11.492 2.058-2.271 4.179-1.885 6.454.17z" fill="#F7A483"/><defs><linearGradient id="paint0_linear" x1="612.029" y1="156.007" x2="138.393" y2="236.399" gradientUnits="userSpaceOnUse"><stop stop-color="#EDF5FE"/><stop offset=".536" stop-color="#4FA3F6"/><stop offset="1" stop-color="#4FA3F6"/></linearGradient></defs></svg>