<svg xmlns="http://www.w3.org/2000/svg" width="614.006" height="420.06" viewBox="0 0 614.006 420.06">
  <g id="goal-obj-2" transform="translate(0 -0.001)">
    <path id="Path_1" data-name="Path 1" d="M294.642,68.52c63.958-32.176,72.448-28,144.531-41.212,73.124-13.371,152.863,12.274,168.8,104.619,15.729,91.144-31.823,142.383-97.083,183.8C460.527,347.7,381.881,355.843,329.8,348.478c-36.51-5.17-88.072-29.3-125.468-54.581C158.653,263.08,117.4,242.083,144.8,183.845c14.323-30.451,44.121-52.738,69.846-68.963,33.371-21.048,34.581-23.538,80-46.364Z" fill="#fff" opacity="0.3"/>
    <path id="Path_2" data-name="Path 2" d="M208.141,69.149c24.691-11.822,53.637-52.3,124.213-53.14C403.924,15.173,477.76,74.085,478,164.164c.239,88.925-42.862,136.413-111.45,165.113-52.962,22.132-118.051,14.31-166.282-1.094C166.431,317.4,113.925,297.847,65.08,279.62c-77.335-28.859-73.638-108.171-50.5-141.906C32.867,111.061,47.625,93.53,111.4,87.161c37.853-3.821,61.551-1.214,96.74-18.012Z" fill="rgba(79,163,246,0.22)"/>
    <g id="Group_2" data-name="Group 2">
      <path id="Path_3" data-name="Path 3" d="M528.711,350H183.289C171,350,164,339.213,164,325.946S172,302,183.289,302H528.711C533.3,302,537,312.787,537,325.946,537,339.213,533.3,350,528.711,350Z" fill="#355b5c"/>
      <path id="Path_4" data-name="Path 4" d="M182.46,301l-2.488-5.023,1.719.136-2.715-4.8,1.177.09-3.258-6.7-3.348,6.2,1.221.091-2.714,4.389,1.719.136-2.488,4.661,5.2.362v3.032l.995.09v-3.032l4.977.362Zm23.075-2.443-2.8-5.657,1.946.136-3.077-5.43,1.357.09-3.755-7.557-3.8,7.014,1.4.091-3.077,4.978,1.946.181-2.8,5.249,5.881.407v3.484l1.132.091v-3.484l5.655.407Z" fill="#355b5c"/>
      <path id="Path_5" data-name="Path 5" d="M194.857,299.1l-3.484-6.969,2.4.136-3.755-6.7,1.629.09-4.615-9.322-4.706,8.643,1.72.136-3.756,6.2,2.4.135-3.483,6.516,7.284.543v4.254l1.4.091v-4.254l6.967.5Z" fill="#355b5c"/>
      <path id="Path_6" data-name="Path 6" d="M396.334,1.213C409,2.661,421.672,18.951,434.385,20.4c-12.668,7.784-25.337.634-38.051,8.417Z" fill="#ed2f37"/>
      <path id="Path_7" data-name="Path 7" d="M396.38,46.6C430.5,32,465.427,156.94,493.5,174s37.529,30.889,37.529,30.889l60.855,107.02H174.135s8.394-3.148,21.365-17.409,16.4-27.7,25-35,12.874-8.275,26.5-21,25.85-62.516,46.175-81.758S325.817,131.618,342,120,362.259,61.2,396.38,46.6Z" fill="#236395"/>
      <path id="Path_8" data-name="Path 8" d="M309,153c-34,30.5,164,24.5,138.5,57.5s-179.5,46-209,54-30,47-63.5,47c-10.662,2.591,198.5,31,198.5,31l228.927-30.591L583.2,296.569l-52.168-91.68S522,194.5,499,183,437,48.5,406.5,45.5c11,8,19.5,58,2.5,63.5S343,122.5,309,153Z" fill="#173e5c"/>
      <path id="Path_9" data-name="Path 9" d="M239,245.5c120-46,47.5-74.5,61.5-91.5s46.664-34.741,60.5-46,72.692-73.556,35.38-61.4C363.089,57.446,361.5,89,341,113s-26,21.5-47.825,43.742S258,231.5,239,245.5Z" fill="#236395"/>
      <path id="Path_10" data-name="Path 10" d="M594.776,296.347l-52.167-91.679-46.6-17.06s-58.543-115.526-53-96.49,11.636,28.6,13.817,37.3S399.093,138.1,398.5,148.5s67.3,15.217,78.506,24.618,16,29.5,16,29.5L536.5,210.46l14.343,26.562-87.73,51.632,117.683,3.8,3.664,6.743,11.674,12.489h17.872l-19.23-15.34Z" fill="#0e273b"/>
      <path id="Path_11" data-name="Path 11" d="M400.674,57.349A1.7,1.7,0,0,1,399,55.674a.77.77,0,0,1,.045-.316.828.828,0,0,1,.091-.317l.135-.272a1.232,1.232,0,0,1,.227-.271,1.64,1.64,0,0,1,2.352,0c.091.09.136.18.227.271l.135.272a.823.823,0,0,1,.091.317c0,.09.045.226.045.316a1.7,1.7,0,0,1-1.674,1.675Zm6,7A1.7,1.7,0,0,1,405,62.674a.77.77,0,0,1,.045-.316.828.828,0,0,1,.091-.317l.135-.272a1.232,1.232,0,0,1,.227-.271,1.64,1.64,0,0,1,2.352,0c.091.09.136.18.227.271l.135.272a.823.823,0,0,1,.091.317c0,.09.045.226.045.316a1.7,1.7,0,0,1-1.674,1.675Zm3,9A1.7,1.7,0,0,1,408,71.674a.77.77,0,0,1,.045-.316.828.828,0,0,1,.091-.317l.135-.272a1.232,1.232,0,0,1,.227-.271,1.64,1.64,0,0,1,2.352,0c.091.09.136.18.227.271l.135.272a.823.823,0,0,1,.091.317c0,.09.045.226.045.316a1.7,1.7,0,0,1-1.674,1.675Zm3,11A1.7,1.7,0,0,1,411,82.674a.771.771,0,0,1,.045-.316.828.828,0,0,1,.091-.317l.135-.272a1.232,1.232,0,0,1,.227-.271,1.64,1.64,0,0,1,2.352,0c.091.09.136.18.227.271l.135.272a.823.823,0,0,1,.091.317c0,.09.045.226.045.316a1.7,1.7,0,0,1-1.674,1.675Zm0,11A1.7,1.7,0,0,1,411,93.674a.771.771,0,0,1,.045-.316.828.828,0,0,1,.091-.317l.135-.272a1.232,1.232,0,0,1,.227-.271,1.64,1.64,0,0,1,2.352,0c.091.09.136.18.227.271l.135.272a.823.823,0,0,1,.091.317c0,.09.045.226.045.316a1.7,1.7,0,0,1-1.674,1.675Zm-7,20A1.7,1.7,0,0,1,404,113.674a.771.771,0,0,1,.045-.316.823.823,0,0,1,.091-.317l.135-.272a1.209,1.209,0,0,1,.227-.271,1.64,1.64,0,0,1,2.352,0c.091.09.136.181.227.271l.135.272a.823.823,0,0,1,.091.317c0,.09.045.226.045.316a1.7,1.7,0,0,1-1.674,1.675Zm-10,5A1.7,1.7,0,0,1,394,118.674a.771.771,0,0,1,.045-.316.823.823,0,0,1,.091-.317l.135-.272a1.209,1.209,0,0,1,.227-.271,1.64,1.64,0,0,1,2.352,0c.091.09.136.181.227.271l.135.272a.823.823,0,0,1,.091.317c0,.09.045.226.045.316a1.7,1.7,0,0,1-1.674,1.675Zm-12,3A1.7,1.7,0,0,1,382,121.674a.771.771,0,0,1,.045-.316.823.823,0,0,1,.091-.317l.135-.272a1.209,1.209,0,0,1,.227-.271,1.64,1.64,0,0,1,2.352,0c.091.09.136.181.227.271l.135.272a.823.823,0,0,1,.091.317c0,.09.045.226.045.316a1.7,1.7,0,0,1-1.674,1.675Zm-11,3A1.7,1.7,0,0,1,371,124.674a.771.771,0,0,1,.045-.316.823.823,0,0,1,.091-.317l.135-.272a1.21,1.21,0,0,1,.227-.271,1.64,1.64,0,0,1,2.352,0c.091.09.136.181.227.271l.135.272a.823.823,0,0,1,.091.317c0,.09.045.226.045.316a1.7,1.7,0,0,1-1.674,1.675Zm-12,4A1.7,1.7,0,0,1,359,128.674a.771.771,0,0,1,.045-.316.823.823,0,0,1,.091-.317l.135-.272a1.21,1.21,0,0,1,.227-.271,1.64,1.64,0,0,1,2.352,0c.091.09.136.181.227.271l.135.272a.823.823,0,0,1,.091.317c0,.09.045.226.045.316a1.7,1.7,0,0,1-1.674,1.675Zm-11,4A1.7,1.7,0,0,1,348,132.674a.771.771,0,0,1,.045-.316.823.823,0,0,1,.091-.317l.135-.272a1.209,1.209,0,0,1,.227-.271,1.64,1.64,0,0,1,2.352,0c.091.09.136.181.227.271l.135.272a.823.823,0,0,1,.091.317c0,.09.045.226.045.316a1.7,1.7,0,0,1-1.674,1.675Zm-11,5A1.7,1.7,0,0,1,337,137.674a.771.771,0,0,1,.045-.316.823.823,0,0,1,.091-.317l.135-.272a1.21,1.21,0,0,1,.227-.271,1.64,1.64,0,0,1,2.352,0c.091.09.136.181.227.271l.135.272a.823.823,0,0,1,.091.317c0,.09.045.226.045.316a1.7,1.7,0,0,1-1.674,1.675Zm-10,6A1.7,1.7,0,0,1,327,143.674a.77.77,0,0,1,.045-.316.823.823,0,0,1,.091-.317l.135-.272a1.211,1.211,0,0,1,.227-.271,1.64,1.64,0,0,1,2.352,0c.091.09.136.181.227.271l.135.272a.823.823,0,0,1,.091.317c0,.09.045.226.045.316a1.7,1.7,0,0,1-1.674,1.675Zm-10,6A1.7,1.7,0,0,1,317,149.674a.77.77,0,0,1,.045-.316.823.823,0,0,1,.091-.317l.135-.272a1.21,1.21,0,0,1,.227-.271,1.64,1.64,0,0,1,2.352,0c.091.09.136.181.227.271l.135.272a.823.823,0,0,1,.091.317c0,.09.045.226.045.316a1.7,1.7,0,0,1-1.674,1.675Zm-74,110A1.7,1.7,0,0,1,243,259.674a.77.77,0,0,1,.045-.316.823.823,0,0,1,.091-.317l.135-.272a1.211,1.211,0,0,1,.227-.271,1.64,1.64,0,0,1,2.352,0c.091.09.136.181.227.271l.135.272a.823.823,0,0,1,.091.317c0,.09.045.226.045.316a1.7,1.7,0,0,1-1.674,1.675Zm-17,14A1.7,1.7,0,0,1,226,273.674a.771.771,0,0,1,.045-.316.823.823,0,0,1,.091-.317l.135-.272a1.209,1.209,0,0,1,.227-.271,1.64,1.64,0,0,1,2.352,0c.091.09.136.181.227.271l.135.272a.823.823,0,0,1,.091.317c0,.09.045.226.045.316a1.7,1.7,0,0,1-1.674,1.675Zm-6,8A1.7,1.7,0,0,1,220,281.674a.771.771,0,0,1,.045-.316.823.823,0,0,1,.091-.317l.135-.272a1.209,1.209,0,0,1,.227-.271,1.64,1.64,0,0,1,2.352,0c.091.09.136.181.227.271l.135.272a.823.823,0,0,1,.091.317c0,.09.045.226.045.316a1.7,1.7,0,0,1-1.674,1.675Zm-6,10A1.7,1.7,0,0,1,214,291.674a.771.771,0,0,1,.045-.316.823.823,0,0,1,.091-.317l.135-.272a1.209,1.209,0,0,1,.227-.271,1.64,1.64,0,0,1,2.352,0c.091.09.136.181.227.271l.135.272a.823.823,0,0,1,.091.317c0,.09.045.226.045.316a1.7,1.7,0,0,1-1.674,1.675Zm-4,11A1.7,1.7,0,0,1,210,302.674a.771.771,0,0,1,.045-.316.823.823,0,0,1,.091-.317l.135-.272a1.209,1.209,0,0,1,.227-.271,1.64,1.64,0,0,1,2.352,0c.091.09.136.181.227.271l.135.272a.823.823,0,0,1,.091.317c0,.09.045.226.045.316a1.7,1.7,0,0,1-1.674,1.675Zm44-45A1.7,1.7,0,0,1,254,257.674a.771.771,0,0,1,.045-.316.823.823,0,0,1,.091-.317l.135-.272a1.211,1.211,0,0,1,.227-.271,1.64,1.64,0,0,1,2.352,0c.091.09.136.181.227.271l.135.272a.823.823,0,0,1,.091.317c0,.09.045.226.045.316a1.7,1.7,0,0,1-1.674,1.675Zm12-2A1.7,1.7,0,0,1,266,255.674a.771.771,0,0,1,.045-.316.823.823,0,0,1,.091-.317l.135-.272a1.209,1.209,0,0,1,.227-.271,1.64,1.64,0,0,1,2.352,0c.091.09.136.181.227.271l.135.272a.823.823,0,0,1,.091.317c0,.09.045.226.045.316a1.7,1.7,0,0,1-1.674,1.675Zm12-2A1.7,1.7,0,0,1,278,253.674a.771.771,0,0,1,.045-.316.823.823,0,0,1,.091-.317l.135-.272a1.209,1.209,0,0,1,.227-.271,1.64,1.64,0,0,1,2.352,0c.091.09.136.181.227.271l.135.272a.823.823,0,0,1,.091.317c0,.09.045.226.045.316a1.7,1.7,0,0,1-1.674,1.675Zm13-2A1.7,1.7,0,0,1,291,251.674a.771.771,0,0,1,.045-.316.823.823,0,0,1,.091-.317l.135-.272a1.208,1.208,0,0,1,.227-.271,1.64,1.64,0,0,1,2.352,0c.091.09.136.181.227.271l.135.272a.823.823,0,0,1,.091.317c0,.09.045.226.045.316a1.7,1.7,0,0,1-1.674,1.675Zm13-2A1.7,1.7,0,0,1,304,249.674a.77.77,0,0,1,.045-.316.823.823,0,0,1,.091-.317l.135-.272a1.21,1.21,0,0,1,.227-.271,1.64,1.64,0,0,1,2.352,0c.091.09.136.181.227.271l.135.272a.823.823,0,0,1,.091.317c0,.09.045.226.045.316a1.7,1.7,0,0,1-1.674,1.675Zm13-2A1.7,1.7,0,0,1,317,247.674a.77.77,0,0,1,.045-.316.823.823,0,0,1,.091-.317l.135-.272a1.209,1.209,0,0,1,.227-.271,1.64,1.64,0,0,1,2.352,0c.091.09.136.181.227.271l.135.272a.823.823,0,0,1,.091.317c0,.09.045.226.045.316a1.7,1.7,0,0,1-1.674,1.675Zm13-3A1.7,1.7,0,0,1,330,244.674a.77.77,0,0,1,.045-.316.823.823,0,0,1,.091-.317l.135-.272a1.209,1.209,0,0,1,.227-.271,1.64,1.64,0,0,1,2.352,0c.091.09.136.181.227.271l.135.272a.823.823,0,0,1,.091.317c0,.09.045.226.045.316a1.7,1.7,0,0,1-1.674,1.675Zm12-2A1.7,1.7,0,0,1,342,242.674a.771.771,0,0,1,.045-.316.823.823,0,0,1,.091-.317l.135-.272a1.209,1.209,0,0,1,.227-.271,1.64,1.64,0,0,1,2.352,0c.091.09.136.181.227.271l.135.272a.823.823,0,0,1,.091.317c0,.09.045.226.045.316a1.7,1.7,0,0,1-1.674,1.675Zm14-3A1.7,1.7,0,0,1,356,239.674a.771.771,0,0,1,.045-.316.823.823,0,0,1,.091-.317l.135-.272a1.209,1.209,0,0,1,.227-.271,1.64,1.64,0,0,1,2.352,0c.091.09.136.181.227.271l.135.272a.823.823,0,0,1,.091.317c0,.09.045.226.045.316a1.7,1.7,0,0,1-1.674,1.675Zm15-3A1.7,1.7,0,0,1,371,236.674a.771.771,0,0,1,.045-.316.823.823,0,0,1,.091-.317l.135-.272a1.21,1.21,0,0,1,.227-.271,1.64,1.64,0,0,1,2.352,0c.091.09.136.181.227.271l.135.272a.823.823,0,0,1,.091.317c0,.09.045.226.045.316a1.7,1.7,0,0,1-1.674,1.675Zm15-4A1.7,1.7,0,0,1,386,232.674a.771.771,0,0,1,.045-.316.823.823,0,0,1,.091-.317l.135-.272a1.209,1.209,0,0,1,.227-.271,1.64,1.64,0,0,1,2.352,0c.091.09.136.181.227.271l.135.272a.823.823,0,0,1,.091.317c0,.09.045.226.045.316a1.7,1.7,0,0,1-1.674,1.675Zm13-4A1.7,1.7,0,0,1,399,228.674a.771.771,0,0,1,.045-.316.823.823,0,0,1,.091-.317l.135-.272a1.21,1.21,0,0,1,.227-.271,1.64,1.64,0,0,1,2.352,0c.091.09.136.181.227.271l.135.272a.823.823,0,0,1,.091.317c0,.09.045.226.045.316a1.7,1.7,0,0,1-1.674,1.675Zm12-3A1.7,1.7,0,0,1,411,225.674a.771.771,0,0,1,.045-.316.823.823,0,0,1,.091-.317l.135-.272a1.208,1.208,0,0,1,.227-.271,1.64,1.64,0,0,1,2.352,0c.091.09.136.181.227.271l.135.272a.823.823,0,0,1,.091.317c0,.09.045.226.045.316a1.7,1.7,0,0,1-1.674,1.675Zm12-4A1.7,1.7,0,0,1,423,221.674a.771.771,0,0,1,.045-.316.823.823,0,0,1,.091-.317l.135-.272a1.209,1.209,0,0,1,.227-.271,1.64,1.64,0,0,1,2.352,0c.091.09.136.181.227.271l.135.272a.823.823,0,0,1,.091.317c0,.09.045.226.045.316a1.7,1.7,0,0,1-1.674,1.675Zm13-7A1.7,1.7,0,0,1,436,214.674a.772.772,0,0,1,.045-.316.823.823,0,0,1,.091-.317l.135-.272a1.208,1.208,0,0,1,.227-.271,1.64,1.64,0,0,1,2.352,0c.091.09.136.181.227.271l.135.272a.823.823,0,0,1,.091.317c0,.09.045.226.045.316a1.7,1.7,0,0,1-1.674,1.675Zm-119-50A1.7,1.7,0,0,1,317,164.674a.771.771,0,0,1,.045-.316.823.823,0,0,1,.091-.317l.135-.272a1.209,1.209,0,0,1,.227-.271,1.64,1.64,0,0,1,2.352,0c.091.09.136.181.227.271l.135.272a.823.823,0,0,1,.091.317c0,.09.045.226.045.316a1.7,1.7,0,0,1-1.674,1.675Zm9,3A1.7,1.7,0,0,1,326,167.674a.77.77,0,0,1,.045-.316.823.823,0,0,1,.091-.317l.135-.272a1.209,1.209,0,0,1,.227-.271,1.64,1.64,0,0,1,2.352,0c.091.09.136.181.227.271l.135.272a.823.823,0,0,1,.091.317c0,.09.045.226.045.316a1.7,1.7,0,0,1-1.674,1.675Zm10,2A1.7,1.7,0,0,1,336,169.674a.771.771,0,0,1,.045-.316.823.823,0,0,1,.091-.317l.135-.272a1.209,1.209,0,0,1,.227-.271,1.64,1.64,0,0,1,2.352,0c.091.09.136.181.227.271l.135.272a.823.823,0,0,1,.091.317c0,.09.045.226.045.316a1.7,1.7,0,0,1-1.674,1.675Zm11,2A1.7,1.7,0,0,1,347,171.674a.771.771,0,0,1,.045-.316.823.823,0,0,1,.091-.317l.135-.272a1.21,1.21,0,0,1,.227-.271,1.64,1.64,0,0,1,2.352,0c.091.09.136.181.227.271l.135.272a.823.823,0,0,1,.091.317c0,.09.045.226.045.316a1.7,1.7,0,0,1-1.674,1.675Zm12,2A1.7,1.7,0,0,1,359,173.674a.771.771,0,0,1,.045-.316.823.823,0,0,1,.091-.317l.135-.272a1.21,1.21,0,0,1,.227-.271,1.64,1.64,0,0,1,2.352,0c.091.09.136.181.227.271l.135.272a.823.823,0,0,1,.091.317c0,.09.045.226.045.316a1.7,1.7,0,0,1-1.674,1.675Zm12,2A1.7,1.7,0,0,1,371,175.674a.771.771,0,0,1,.045-.316.823.823,0,0,1,.091-.317l.135-.272a1.21,1.21,0,0,1,.227-.271,1.64,1.64,0,0,1,2.352,0c.091.09.136.181.227.271l.135.272a.823.823,0,0,1,.091.317c0,.09.045.226.045.316a1.7,1.7,0,0,1-1.674,1.675Zm14,2A1.7,1.7,0,0,1,385,177.674a.771.771,0,0,1,.045-.316.823.823,0,0,1,.091-.317l.135-.272a1.21,1.21,0,0,1,.227-.271,1.64,1.64,0,0,1,2.352,0c.091.09.136.181.227.271l.135.272a.823.823,0,0,1,.091.317c0,.09.045.226.045.316a1.7,1.7,0,0,1-1.674,1.675Zm14,2A1.7,1.7,0,0,1,399,179.674a.771.771,0,0,1,.045-.316.823.823,0,0,1,.091-.317l.135-.272a1.21,1.21,0,0,1,.227-.271,1.64,1.64,0,0,1,2.352,0c.091.09.136.181.227.271l.135.272a.823.823,0,0,1,.091.317c0,.09.045.226.045.316a1.7,1.7,0,0,1-1.674,1.675Zm13,2A1.7,1.7,0,0,1,412,181.674a.771.771,0,0,1,.045-.316.823.823,0,0,1,.091-.317l.135-.272a1.209,1.209,0,0,1,.227-.271,1.64,1.64,0,0,1,2.352,0c.091.09.136.181.227.271l.135.272a.823.823,0,0,1,.091.317c0,.09.045.226.045.316a1.7,1.7,0,0,1-1.674,1.675Zm13,3A1.7,1.7,0,0,1,425,184.674a.771.771,0,0,1,.045-.316.823.823,0,0,1,.091-.317l.135-.272a1.209,1.209,0,0,1,.227-.271,1.64,1.64,0,0,1,2.352,0c.091.09.136.181.227.271l.135.272a.823.823,0,0,1,.091.317c0,.09.045.226.045.316a1.7,1.7,0,0,1-1.674,1.675Zm12,4A1.7,1.7,0,0,1,437,188.674a.771.771,0,0,1,.045-.316.823.823,0,0,1,.091-.317l.135-.272a1.209,1.209,0,0,1,.227-.271,1.64,1.64,0,0,1,2.352,0c.091.09.136.181.227.271l.135.272a.823.823,0,0,1,.091.317c0,.09.045.226.045.316a1.7,1.7,0,0,1-1.674,1.675Zm10,5A1.7,1.7,0,0,1,447,193.674a.772.772,0,0,1,.045-.316.823.823,0,0,1,.091-.317l.135-.272a1.209,1.209,0,0,1,.227-.271,1.64,1.64,0,0,1,2.352,0c.091.09.136.181.227.271l.135.272a.823.823,0,0,1,.091.317c0,.09.045.226.045.316a1.7,1.7,0,0,1-1.674,1.675Zm-38.2-93.815a3.96,3.96,0,1,0,2.822,1.16,3.987,3.987,0,0,0-2.822-1.16Z" fill="#fff"/>
      <path id="Path_12" data-name="Path 12" d="M410.47,99a6.471,6.471,0,1,0,6.47,6.472A6.47,6.47,0,0,0,410.47,99Zm0,10.453a3.96,3.96,0,1,1,2.822-1.16,3.988,3.988,0,0,1-2.822,1.16Z" fill="#ed2f37"/>
      <path id="Path_13" data-name="Path 13" d="M308.47,154.534a3.982,3.982,0,1,0,3.982,3.982,3.987,3.987,0,0,0-3.982-3.982Z" fill="#fff"/>
      <path id="Path_14" data-name="Path 14" d="M308.47,152a6.471,6.471,0,1,0,6.47,6.472A6.47,6.47,0,0,0,308.47,152Zm0,10.5a3.982,3.982,0,1,1,3.982-3.982A3.987,3.987,0,0,1,308.47,162.5Z" fill="#ed2f37"/>
      <path id="Path_15" data-name="Path 15" d="M449.47,203.534a3.982,3.982,0,1,0,3.982,3.982,3.987,3.987,0,0,0-3.982-3.982Z" fill="#fff"/>
      <path id="Path_16" data-name="Path 16" d="M449.47,201a6.471,6.471,0,1,0,6.47,6.472A6.47,6.47,0,0,0,449.47,201Zm0,10.5a3.982,3.982,0,1,1,3.982-3.982A3.987,3.987,0,0,1,449.47,211.5Z" fill="#ed2f37"/>
      <path id="Path_17" data-name="Path 17" d="M235.47,261.534a3.982,3.982,0,1,0,3.982,3.982A3.988,3.988,0,0,0,235.47,261.534Z" fill="#fff"/>
      <path id="Path_18" data-name="Path 18" d="M235.47,259a6.471,6.471,0,1,0,6.47,6.472A6.47,6.47,0,0,0,235.47,259Zm0,10.5a3.982,3.982,0,1,1,3.981-3.982A3.987,3.987,0,0,1,235.47,269.5ZM207.1,304.025l5.964,12.548L198,314.524Z" fill="#ed2f37"/>
      <path id="Path_19" data-name="Path 19" d="M252.349,320.634l-3.179-6.307,2.173.162-3.494-6.078,1.494.077-4.24-8.424-4.181,7.913,1.539.076-3.387,5.642,2.173.116-3.068,5.911,6.61.438.035,4.761,1.222.079-.035-4.761,6.338.395Zm-15.4.31-2.211-4.37,1.493.077-2.391-4.186,1.041.035-2.948-5.81-2.892,5.456,1.087.081-2.363,3.868,1.494.122-2.134,4.092,4.572.275.025,2.67.86.083-.024-2.67,4.391.277Zm25.066,4.1-1.566-3.063,1.041.081-1.656-2.971.724.038-2.073-4.1-2.047,3.82.725.084-1.6,2.73,1.041.081-1.512,2.865,3.214.2.018,1.9.634.04-.018-1.9,3.079.2Z" fill="#355b5c"/>
      <path id="Path_20" data-name="Path 20" d="M275.431,140.71H202.043a3.716,3.716,0,0,1,.272-7.422h1.538a3.71,3.71,0,0,0,0-7.421h-34.7a3.71,3.71,0,0,0,0,7.421h17.917a3.711,3.711,0,0,1,0,7.422h-45.7a3.711,3.711,0,0,0,0,7.421h73.117a3.71,3.71,0,0,1,0,7.421H168.743a3.711,3.711,0,0,0,0,7.421H197.7a3.711,3.711,0,0,1,0,7.422H151.957a3.711,3.711,0,0,0,0,7.421h68.908a3.711,3.711,0,0,0,0-7.421h-7.918a3.711,3.711,0,0,1,0-7.422H247.56a3.711,3.711,0,0,0,0-7.421H229.643a3.711,3.711,0,0,1,0-7.421h45.7a3.727,3.727,0,0,0,3.71-3.711A3.651,3.651,0,0,0,275.431,140.71Zm-32.286,34.139a3.711,3.711,0,1,0-4.493,2.711,3.711,3.711,0,0,0,4.493-2.711Z" fill="#fff"/>
      <path id="Path_21" data-name="Path 21" d="M219.425,132.035a3.711,3.711,0,1,0-5.243.232,3.711,3.711,0,0,0,5.243-.232Zm-30-19.713a3.71,3.71,0,1,0-4.465,2.756,3.71,3.71,0,0,0,4.465-2.756Zm2.034,76.588a3.71,3.71,0,1,0-4.234,3.1,3.71,3.71,0,0,0,4.234-3.1Zm-30.984-29.367a3.711,3.711,0,1,0-4.24,3.093,3.711,3.711,0,0,0,4.24-3.093Zm-37.6-12.33a3.711,3.711,0,1,0-5.248,0,3.71,3.71,0,0,0,5.248,0ZM470.627,70.04h7.918a3.711,3.711,0,0,0,0-7.421h-1.538a3.711,3.711,0,0,1,0-7.421h34.7a3.71,3.71,0,0,1,0,7.421H493.793a3.71,3.71,0,0,0,0,7.421h45.743a3.71,3.71,0,0,1,0,7.421H511.574a3.71,3.71,0,0,0,0,7.421h45.7a3.71,3.71,0,0,1,0,7.421H488.409a3.71,3.71,0,1,1,0-7.42h7.918a3.71,3.71,0,0,0,0-7.421h-25.7a3.711,3.711,0,0,1,0-7.421Zm-8.382,6.32a3.711,3.711,0,1,0-5.248,0,3.711,3.711,0,0,0,5.248,0Z" fill="#fff"/>
    </g>
    <path id="Path_22" data-name="Path 22" d="M399.629,3.213C412.3,4.661,424.966,20.951,437.68,22.4c-12.669,7.784-25.337.634-38.051,8.417Z" fill="#ed2f37"/>
    <path id="Path_23" data-name="Path 23" d="M400.443,1.131h-1.674V51.95h1.674V1.13Z" fill="#414042"/>
    <path id="Path_24" data-name="Path 24" d="M401.258,1.63A1.629,1.629,0,1,1,399.629,0a1.622,1.622,0,0,1,1.629,1.629Z" fill="#414042"/>
    <path id="Path_25" data-name="Path 25" d="M473.922,72.04h7.918a3.711,3.711,0,0,0,0-7.421H480.3a3.71,3.71,0,0,1,0-7.421h34.7a3.71,3.71,0,0,1,0,7.421H497.087a3.71,3.71,0,0,0,0,7.421H542.83a3.71,3.71,0,1,1,0,7.421H514.869a3.71,3.71,0,0,0,0,7.421h45.7a3.71,3.71,0,0,1,0,7.421H491.7a3.71,3.71,0,0,1,0-7.42h7.918a3.71,3.71,0,0,0,0-7.421h-25.7a3.71,3.71,0,0,1,0-7.421Zm-8.382,6.32a3.711,3.711,0,1,0-5.248,0,3.711,3.711,0,0,0,5.248,0Z" fill="#fff"/>
    <path id="Path_26" data-name="Path 26" d="M530.8,61.67a3.711,3.711,0,1,0-4.466,2.756A3.711,3.711,0,0,0,530.8,61.67Zm23.705-.32a3.711,3.711,0,1,0-4.193,3.157A3.711,3.711,0,0,0,554.506,61.35ZM494.25,43.286a3.711,3.711,0,1,0-4.259,3.067,3.711,3.711,0,0,0,4.259-3.067Zm82.541,50.6a3.71,3.71,0,1,0-4.975-1.668A3.71,3.71,0,0,0,576.791,93.882Zm-65,17.436a3.71,3.71,0,1,0-3.71-3.71A3.71,3.71,0,0,0,511.792,111.318Z" fill="#fff"/>
    <path id="Path_27" data-name="Path 27" d="M141.508,272.363l29.529-.881-3.085,18.952H137.1l4.408-18.071Z" fill="#293762"/>
    <path id="Path_28" data-name="Path 28" d="M141.972,273.183l28.184-.82-2.885,17.63h-29.42l4.121-16.81Z" fill="#4fa3f6"/>
    <path id="Path_29" data-name="Path 29" d="M137.1,290.434h30.412l-19.393,6.611H117.267Z" fill="#6a7495"/>
    <path id="Path_30" data-name="Path 30" d="M117.267,297.045h30.852l19.833-6.888v1.6l-19.833,7.052H117.267v-1.763Z" fill="#293762"/>
    <path id="Path_31" data-name="Path 31" d="M106.248,416.38c42.111,0,76.249-4.615,76.249-10.307s-34.138-10.307-76.249-10.307S30,400.381,30,406.073s34.138,10.307,76.248,10.307Z" fill="#edf5fe"/>
    <path id="Path_32" data-name="Path 32" d="M114.413,410.063c27.768,0,50.278-1.786,50.278-3.99s-22.51-3.99-50.278-3.99-50.278,1.787-50.278,3.99,22.51,3.99,50.278,3.99Z" fill="rgba(79,163,246,0.15)"/>
    <path id="Path_33" data-name="Path 33" d="M76.86,402.47l-1.023,4.819,8,.823,3.068-2.762.542-1.293,6.017-3.291v-2l-4.272-.353L81.253,400,76.86,402.47Zm33.789,1.137-1.315,3.165.4,2.221,23.114-.055.286-1.666-1.717-1.333-7.38-1.832-6.122-1.444-3.432-.722-3.834,1.666Z"/>
    <path id="Path_34" data-name="Path 34" d="M98.314,255.174c1.422-1.186,1.682-6.751,1.793-7.714s9.075,1.7,9.075,1.7-1.8,3.258-1.559,5.431-9.309.581-9.309.581Z" fill="#f4b2a2"/>
    <path id="Path_35" data-name="Path 35" d="M102.507,254.44c-2.4-.692-2.365,2.5-2.365,2.5,1.422-1.186-.11-8.521,0-9.484s9.075,1.7,9.075,1.7a19.1,19.1,0,0,0-.872,1.868,29.2,29.2,0,0,0-5.838,3.417Z" fill="#efa27a"/>
    <path id="Path_36" data-name="Path 36" d="M95.421,236.94a9.214,9.214,0,0,1,18.382-.558c.043.406.042.783.049,1.2l-.023.456a29.343,29.343,0,0,1,1.645,4.306c.108.732-.828,1.144-1.538,1.36.133,2.949.166,4.637-.777,5.389-1.516,1.28-5.182,1.4-7.681,1.335-3.449-.107-7.766-4.975-9.454-9.875a8.75,8.75,0,0,1-.6-3.609Z" fill="#fab28c"/>
    <path id="Path_37" data-name="Path 37" d="M95.242,236.025a9.211,9.211,0,0,1,17.928-2.652c-1.984-2.123-5.377.426-6.885,1.366-.6.383.2,3.763-.313,4.205-1.442.512-1.037-.736-2.442-.985-.9-.161-1.719-.713-2.574-.469a3.788,3.788,0,0,0-2.976,3.039c-.315,2.586,1.906,4.1,2.547,6.386l.029.145a18.99,18.99,0,0,1-4.712-7.426,8.747,8.747,0,0,1-.6-3.609Z" fill="#efa27a"/>
    <path id="Path_38" data-name="Path 38" d="M87.519,256.79A106.107,106.107,0,0,0,74.4,273.857a57.771,57.771,0,0,0-3.915,7.13,4.176,4.176,0,0,0,.812,4.692c1.958,1.995,5.874,5.209,13.262,9.2,11.785,6.391,7.13-1.44,7.13-1.44s-8.5-7.315-13.262-10.9a72.471,72.471,0,0,0,6.539-7.315c2.142-2.807,7.056-9.531,7.056-9.531l-4.507-8.9Z" fill="#293762"/>
    <path id="Path_39" data-name="Path 39" d="M87.518,256.79A106.041,106.041,0,0,0,74.4,273.857c11.13-11.631,7.723-6.283,7.723,4.735,2.143-2.807,10.018-11.959,10.018-11.959Z" fill="#222d33"/>
    <path id="Path_40" data-name="Path 40" d="M84.01,328.753H102c-1.921,9.235-5.541,25.342-7.98,32.065-1.514,11.452-6.282,43.888-6.282,43.888H76.719s2.673-23.237,6.81-41.339c.924-11.895.3-23.532.48-34.614Z" fill="#293762"/>
    <path id="Path_41" data-name="Path 41" d="M98.315,318.641l20.161-2.19c.37,17.067.85,41.855.85,45.513v42.181l-9.551.882s-1.827-30.909-1.347-45.021c-5.264-17.565-9-31.317-10.113-41.365Z" fill="#293762"/>
    <path id="Path_42" data-name="Path 42" d="M102.037,333.3,95.831,355.24a25.75,25.75,0,0,1-5.8.554,17.419,17.419,0,0,1-6.1-.849s1.182-25.554,1.958-36.3a67,67,0,0,0,0-10.5,122.415,122.415,0,0,0,13.336,1.773c4.4.111,4.1,15.442,4.1,15.442l-1.293,7.943Z" fill="#293762"/>
    <path id="Path_43" data-name="Path 43" d="M84.268,355.092c2.955-6.908,8.46-12.966,15.774-14.7l2-7.092,1.33-7.943s.295-15.331-4.1-15.442S82.9,305.86,82.9,305.86s1.313,8.815.87,14.985c0,11.9.2,34.1.2,34.1a.8.8,0,0,0,.3.147Z" fill="#222d33"/>
    <path id="Path_44" data-name="Path 44" d="M118.366,307.806c5.135,9.162.849,47.767.849,47.767a23.549,23.549,0,0,1-5.91.738c-4.8.148-6.1-.7-6.1-.7s-2.733-9.715-4.691-18.1c-1-4.211-3.436-9.2-3.436-11.969,0-6.317.185-15.59.185-15.59s5.245-.111,10.048-.665c4.8-.591,9.051-1.478,9.051-1.478Zm-8.259-57.039c-.527,3.966-.527,10.853-.527,10.853s-1.979.137-5.973.162a54.1,54.1,0,0,1-6.159-.153s-2.762-2.119-4.74-3.947c-1.008-.918,3.844-3.667,3.844-4.271a13.885,13.885,0,0,1,1.5-3.966s-.01,1.443,4.842,1.322,7.214,0,7.214,0Z" fill="#293762"/>
    <path id="Path_45" data-name="Path 45" d="M109.774,251.648a79.916,79.916,0,0,0-.194,10.854s-1.979.137-5.973.161a54.1,54.1,0,0,1-6.159-.153s-2.762-2.118-4.74-3.946c-1.008-.918,3.844-4.108,3.844-4.712a5.319,5.319,0,0,1,.882-2.645s.606.562,5.459.441,6.881,0,6.881,0Zm-3.858,99.085c.295-3.435,1-6.649,3.288-9.346a17.306,17.306,0,0,1,8.94-5.726c.665-.148,1.625-.3,2.586-.48.443-10.824.221-22.757-2.365-27.374,0,0-4.285.886-9.05,1.44-4.8.591-10.049.665-10.049.665s-.184,9.31-.184,15.59c0,2.77,2.438,7.758,3.435,11.969q1.6,6.652,3.362,13.262c.037.037.037,0,.037,0Z" fill="#222d33"/>
    <path id="Path_46" data-name="Path 46" d="M79.363,321.286c0-26.872,3.267-30.909,3.526-40.108.222-7.462,1.763-14.985,4.407-24.241,3.526-3.967,5.06-3.3,12.782-3.967,9.04,0,11.106-1.672,14.985,1.763,9.162,8.128.864,19.863,1.2,32.128.111,4.027,3.4,13,4.581,20.946,1.847,12.228,3.478,12.156,3.478,12.156s-17.837,3.672-26.445,3.967c-6.834.3-18.511-2.644-18.511-2.644Z" fill="#293762"/>
    <path id="Path_47" data-name="Path 47" d="M112.918,228.659c-1.221-1.979-1.75-4.952-9.345-3.935-6.529.88-9.237,3.128-10.453,6.065-2.322,8.206-.43,11.216,2.749,13.858,3.122,2.594,4.222,5.428,7.78-1.543-1.629-.807-2.409-2.648-1.37-4.059,1.4-1.86,1.718-.412,2.154-1.064.7-1.042-1.564-3.992,2.083-5.355,3.864-1.407,7.92-1.443,6.4-3.967Z" fill="#323949"/>
    <path id="Path_48" data-name="Path 48" d="M156.246,292.586l-2.66,1.183-2.106,1.182,3.99.776,1.515-.3-.739-2.845Z" fill="#f4b2a2"/>
    <path id="Path_49" data-name="Path 49" d="M151.481,294.951l2.659-.923,5.579.813.849,2.7-.776,2.919-5.947.812-2.328-.738-1.477-2.476,1.441-3.1Z" fill="#fab28c"/>
    <path id="Path_50" data-name="Path 50" d="M108.452,268.4c.882,2.645,3.526,20.275,11.019,33.056,1.588-7.13-1.394-22.107-1.764-29.089-.406-6.982,1.612-14.325-3.966-14.1s-5.289,10.137-5.289,10.137Z" fill="#222d33"/>
    <path id="Path_51" data-name="Path 51" d="M151.481,295.579A2.14,2.14,0,0,0,150,293.548c-5.393-1.774-20.429-7.315-21.611-8.054-1.33-.886-1.229-17.337-10.243-26.794-4.544-4.765-6.972-.1-8.117,2.412-.776,1.7-1.478,5.172-1.145,6.207,2.918,9.346,9.937,23.716,13.631,26.339,3.51,2.475,20.281,6.207,27.3,7.647a1.349,1.349,0,0,0,1.626-1.33v-4.4h.037Z" fill="#293762"/>
    <path id="Path_52" data-name="Path 52" d="M346.5,403.765c42.25,0,76.5-4.707,76.5-10.513s-34.25-10.513-76.5-10.513S270,387.446,270,393.252,304.25,403.765,346.5,403.765Z" fill="#edf5fe"/>
    <path id="Path_53" data-name="Path 53" d="M347.577,397.338c32.585,0,59-2.2,59-4.917s-26.416-4.916-59-4.916-59,2.2-59,4.916,26.416,4.917,59,4.917Z" fill="rgba(79,163,246,0.15)"/>
    <path id="Path_54" data-name="Path 54" d="M381.5,420.061c42.25,0,76.5-4.706,76.5-10.512s-34.25-10.513-76.5-10.513S305,403.743,305,409.549,339.25,420.061,381.5,420.061Z" fill="#edf5fe"/>
    <path id="Path_55" data-name="Path 55" d="M382.577,413.635c32.585,0,59-2.2,59-4.917s-26.416-4.917-59-4.917-59,2.2-59,4.917,26.416,4.917,59,4.917Z" fill="rgba(79,163,246,0.15)"/>
    <path id="Path_56" data-name="Path 56" d="M275.5,417.141c41.145,0,74.5-4.509,74.5-10.071S316.645,397,275.5,397,201,401.509,201,407.07,234.355,417.141,275.5,417.141Z" fill="#edf5fe"/>
    <path id="Path_57" data-name="Path 57" d="M283.477,410.969c27.131,0,49.125-1.746,49.125-3.9s-21.994-3.9-49.125-3.9-49.125,1.746-49.125,3.9S256.346,410.969,283.477,410.969Z" fill="rgba(79,163,246,0.15)"/>
    <path id="Path_58" data-name="Path 58" d="M285.377,406.918c-.327,2.354-1.112,4.642.2,4.9a20.119,20.119,0,0,0,7.976-.066c.327-1.9.066-2.419-.654-5.23a14.633,14.633,0,0,1-7.518.392Zm-20.857.2c-1.373.327-1.111,3.6-.654,4.577s7.323.065,8.173-.2c1.111-.327-.785-3.073-.654-3.989-1.177.85-6.146.327-6.865-.392Z" fill="#190c03"/>
    <path id="Path_59" data-name="Path 59" d="M259.486,321.6c.784,2.746-.066,14.841,0,18.307.2,7.192.065,14.122,1.111,21.183.654,4.381-.065,20.268.327,24.256.458,4.381,1.5,21.641,2.485,23.014,3.2,1.373,6.734,1.373,8.761-.261.523-2.55.327-28.441,1.242-34.652.588-4.184.981-7.911,1.177-12.292.261-5.361,1.765-25.76,2.877-24.91,1.111.785,3.922,19.615,4.642,23.08a88.581,88.581,0,0,1,1.438,22.425c-.261,4.708,1.373,24.78,1.308,26.218,2.288.262,6.015,1.373,8.7.262.589-6.015,2.616-31.645,2.223-39.1-.392-8.3.589-12.161.589-20.53,0-4.184.85-17.718-1.112-29.029-5.753.589-34.194,2.681-35.763,2.027Z" fill="#383838"/>
    <path id="Path_60" data-name="Path 60" d="M230.587,284c-1.176-1.5-2.549-1.635-4.119-2.485a6.337,6.337,0,0,1-2.746-2.876c-.392-.85-2.549-1.962-3.334-3.073-1.765,1.765,3.073,3.661.85,5.165-3.2,2.157-7.257-2.615-8.238-1.635,0,.589,1.831,4.054,3.531,5.035a9.914,9.914,0,0,0,5.295,1.634c2.223-.065,4.9.327,6.669,1.765a6.148,6.148,0,0,1,2.092-3.53Zm79.765-19.157c-.261-2.419-2.419-3.53-3.465-5.688-.392-.784-.654-5.95-.588-4.511,0,.458-.916-4.185-.523-4.511,2.746-.523,2.353,4.315,3.2,4.445,2.419.393,2.55-3.138,2.746-4.772.262-2.093-.719-4.315,1.635-5.231a47.879,47.879,0,0,1,.392,5.1c.065.784-.2,2.681.131,2.877.523.327.784,1.177.719,2.68,1.5,1.177.327,3.4-.065,4.773-.523,2.027.13,3.531-.131,5.427-1.242.327-2.419-.2-4.054-.589ZM275.57,232.482c-5.623-.654-11.442,6.472-9.023,11.115h0c-1.5-1.243-1.5,2.549-1.308,3.2.2,1.046.72,3.2,2.093,3.2a6.446,6.446,0,0,0,.719,2.157c.457.654,1.373.981,1.634,1.635.523,1.177.131,3.923-1.242,4.315,1.569,1.373,12.03-1.046,14.318-.523a3.719,3.719,0,0,1-.523-3.661c.262-.654,1.439-4.838,1.439-4.838,1.177-.458,1.177-1.57,1.111-3.335,0-.981-.065-3.857-1.634-3.53-.85-4.708-1.766-9.088-7.584-9.742Z" fill="#fab28c"/>
    <path id="Path_61" data-name="Path 61" d="M267.985,249.938c.654,1.373.916,2.943,2.55,4.119a10.167,10.167,0,0,0,5.3,1.373c3.269.131,6.8-3.6,7-6.8a10.519,10.519,0,0,1-7.192,3.857C272.758,252.946,270.4,251.311,267.985,249.938Z" fill="#efa27a"/>
    <path id="Path_62" data-name="Path 62" d="M273.281,231.436c-4.25,1.569-7.126,2.157-8.107,7.061-.458,2.288.785,4.511,1.438,6.6.589,1.9.327,4.119,1.7,5.819a10.625,10.625,0,0,0,7.781,3.6,10.969,10.969,0,0,0,5.426-3.138c2.027-1.765,2.289-4.054,1.962-6.538-.589-4.25,1.438-9.611-2.616-12.423A9.407,9.407,0,0,0,273.281,231.436Z" fill="#44221b"/>
    <path id="Path_63" data-name="Path 63" d="M297.407,323.165c.131.262-.85-32.429.131-41.517,1.83,2.615,5.1,4.838,7.911,6.277,2.157,1.111,6.93,3.138,9.48,1.961,2.68-1.242,2.484-6.734,2.288-9.284-.327-3.465-1.242-13.8-1.83-15.887-.2-.589-4.316-.458-5.819-.131-.262,4.38.13,8.042.2,11.834-2.223-2.812-5.165-5.3-7.061-8.369-3.531-5.884-7.846-8.5-14.45-9.676-1.765-.327-3.334-.916-4.969-1.373-1.5-.327-14.449.2-14.449.457a117.54,117.54,0,0,0-11.245,7c-1.242.915-5.165,8.957-6.538,12.488-.981,2.55-3.858,10-5.492,11.115-1.243,1.046-13.469-3.923-14.776-5.035a11.543,11.543,0,0,0-3.139,5.623,98.231,98.231,0,0,0,14.123,8.826c2.876,1.373,6.865,3.269,9.545,1.046,1.7-1.438,6.473-6.734,8.173-11.049,0,0-.85,19.811-.262,27.918.2,2.419-.065,5.1,0,7.388,24.387,7.388,34.456,2.942,38.183.392Z" fill="#d4f6ff"/>
    <path id="Path_64" data-name="Path 64" d="M218.688,282.106c-.065-.589-1.046-1.373-1.242-2.092-.262-.72-.2-1.439-1.046-1.635-.654,2.158.261,3.138,2.288,3.727Z" fill="#fab28c"/>
    <path id="Path_65" data-name="Path 65" d="M230.2,283.74c-.065-.13-1.242,1.177-1.569,1.5-.654.719-2.027.392-2.811.066a6.775,6.775,0,0,0-2.55-.458c-.916-.066-1.765.2-2.681.131a7.509,7.509,0,0,1-4.707-2.158,21.747,21.747,0,0,1-1.569-1.9Q213.677,280,213,279.1c1.242,3.858,4.9,7.258,8.892,6.8a16.582,16.582,0,0,1,2.55-.065,6.531,6.531,0,0,1,2.68.915c.393.2.981.458.981.458a37.732,37.732,0,0,1,2.092-3.466Z" fill="#efa27a"/>
    <path id="Path_66" data-name="Path 66" d="M216.4,278.51a8.255,8.255,0,0,1,.131.85,1.13,1.13,0,0,0,.392.719c.392.392.981.785,1.373,1.112a3.183,3.183,0,0,1-2.027-.785A2.72,2.72,0,0,1,216.4,278.51Zm90.422-20.66c-.066.915,1.242,2.549,2.157,3.072a3.319,3.319,0,0,0,2.092.327c.131-.065.589-.457.654-.392.458.065.327.392.719.523,2.746.915,1.57-5.3,1.439-6.865.131.785.719,2.354,1.5,2.681,0,1.177-.785,2.288-.981,3.465a23.706,23.706,0,0,0,.131,3.727,23.231,23.231,0,0,0-4.25.13c-.066-2.68-3.858-3.726-3.465-6.668Z" fill="#efa27a"/>
    <path id="Path_67" data-name="Path 67" d="M238.891,295.967c3.334.784,7.388,2.419,10.592.588a20.793,20.793,0,0,0,6.668-6.407c3.727-5.819,3.139-11.507,3.073-18.176.85,3.2.785,6.93,1.243,10.2.98-2.157,1.765-9.938,2.484-11.245-1.177,2.615-.261,6.8-.654,9.807-.327,2.55-1.7,5.361-1.5,7.976a15.439,15.439,0,0,1,1.962-3.334c-.458,7.388-2.354,15.1-3.465,22.3.392-6.277-.719-13.076,0-19.288-.327,3.531-4.969,8.369-7.911,10.265-3.792,2.354-7.454-.2-12.488-2.68Zm37.986-27.983c0,3.661.262,7.388.458,11.114a3.509,3.509,0,0,0,1.307-2.092,17.806,17.806,0,0,0,1.5,8.827c1.5-4.119-2.55-8.958-1.046-12.75a14.058,14.058,0,0,0-1.242,1.7c-.2-1.83-1.177-5.165-.981-6.8Zm18.111,4.772c.915,1.5,1.9,4.381,3.2,6.342a18.233,18.233,0,0,0,5.558,5.623c3.465,2.288,7.78,4.708,12.1,3.335-5.623,8.3-19.287-5.95-21.706-11.507.392.392,1.046.653,1.438.98A16.751,16.751,0,0,1,294.988,272.756Zm15.037,3.073c1.373,1.308,3.2,3.6,3.269,6.015C312.51,279.36,311.2,277.791,310.025,275.829Z" fill="#cae4ea"/>
    <path id="Path_68" data-name="Path 68" d="M344.156,384.35c0,.3.148,2.224-.3,2.818a4.158,4.158,0,0,1-1.779,1.186H340.6a15.322,15.322,0,0,0-.148,2.817c-.148.593-1.927,1.631-3.262,1.927a10.739,10.739,0,0,1-4.6-.444c-.742-.445-.593-.593-.3-1.483s.89-4.152,4.152-5.931,4.745-2.224,5.634-2.224S344.156,384.35,344.156,384.35Z" fill="#231f20"/>
    <path id="Path_69" data-name="Path 69" d="M343.859,382.126a4.5,4.5,0,0,1,0,3.114c-.444.741-1.631.445-2.224,1.483-.593.889-1.038,3.855-1.482,4.3-.593.444-2.373,1.631-3.559,1.631s-4.3-.149-4.448-.594-.445-1.779,0-2.372,2.965-3.558,3.262-4.6a12.988,12.988,0,0,1,.89-1.928s3.706-2.224,4.448-2.076a14.965,14.965,0,0,1,3.113,1.038Z" fill="#58595b"/>
    <path id="Path_70" data-name="Path 70" d="M343.859,382.126c.3.742-6.672,8.452-7.858,8.6-1.186,0-4.3-.593-4-1.186.445-.593,2.965-3.559,3.262-4.6a12.939,12.939,0,0,1,.889-1.927s3.707-2.224,4.449-2.076A23.5,23.5,0,0,1,343.859,382.126Z" fill="#58595b" opacity="0.3"/>
    <path id="Path_71" data-name="Path 71" d="M373.514,390.429c.3,0,.3,1.038-.445,1.483-.89.593-4,1.038-6.376.3-1.483-.445-3.113-1.335-3.113-1.928,0-.889-2.818-3.113-2.818-2.372,0,1.631-3.706-.3-3.706-.741v-1.78c0-1.186.444-1.186,1.779-.593s5.782,4,7.265,4.6a71.958,71.958,0,0,0,7.414,1.037Z" fill="#231f20"/>
    <path id="Path_72" data-name="Path 72" d="M366.1,382.571a25.98,25.98,0,0,0,4,4.3c1.335,1.186,3.707,2.669,3.855,2.965.3,1.78-1.037,1.78-2.52,1.928a12.165,12.165,0,0,1-5.338-.593c-2.224-1.038-2.817-2.966-3.855-3.559a33.378,33.378,0,0,0-4.893-2.817,3.053,3.053,0,0,1,.148-2.52,5.643,5.643,0,0,1,4-.593c1.038.3,4.6.889,4.6.889Z" fill="#58595b"/>
    <path id="Path_73" data-name="Path 73" d="M366.1,382.571a25.948,25.948,0,0,0,4,4.3c1.334,1.186,3.855,2.817,3.855,2.965,0,.445-6.08,1.038-8.3-2.817-.889-1.631-8.451-4.448-8.155-4.6a5.643,5.643,0,0,1,4-.593c1.038.148,4.6.741,4.6.741Z" fill="#58595b" opacity="0.3"/>
    <path id="Path_74" data-name="Path 74" d="M365.8,345.207c-.149-2.817-3.856-35.437-3.856-35.437l-4.151-9.637L332,297.909c-.445,1.186-3.262,11.416-3.262,11.416s5.782,70.874,6.672,73.691c.3,1.038,9.934,2.076,9.341-1.483s1.483-64.646,1.483-64.646,7.858,24.02,8.006,27.43c.149,3.559.593,37.513,2.669,38.254s9.638,1.631,9.49.148c0-1.482-.445-34.7-.593-37.512Z" fill="#1e405f"/>
    <path id="Path_75" data-name="Path 75" d="M365.8,345.207c-.149-2.817-3.856-35.437-3.856-35.437l-4.151-9.637-10.231-.89.593,14.827-1.779,2.966s7.858,24.019,8.007,27.43c.148,3.558.593,37.512,2.669,38.253s9.637,1.631,9.489.149c-.148-1.631-.593-34.844-.741-37.661Z" fill="#1f4663"/>
    <path id="Path_76" data-name="Path 76" d="M357.8,297.315c-4.152.594-14.827.742-18.83,0a40.114,40.114,0,0,0-6.821-.741l-.593,2.521s.148,1.038,7.858,1.482,17.052.149,18.386-.444C358.39,299.836,357.8,297.315,357.8,297.315Z" fill="#1d1d1b"/>
    <path id="Path_77" data-name="Path 77" d="M340.746,300.281a.393.393,0,0,0,.445.445l4.448.148a.474.474,0,0,0,.445-.445l.148-2.372a.393.393,0,0,0-.445-.445l-4.448-.148a.474.474,0,0,0-.445.445Z" fill="#1d1d1b"/>
    <path id="Path_78" data-name="Path 78" d="M345.49,301.022l-4.448-.148c-.148,0-.3-.148-.444-.148a.544.544,0,0,1-.149-.445l.149-2.372a.637.637,0,0,1,.593-.593l4.448.148c.148,0,.3.148.445.148a.546.546,0,0,1,.148.445l-.148,2.372C346.232,300.726,345.935,301.022,345.49,301.022Zm-4.448-3.262-.148,2.373v.148h.148l4.448.148a.145.145,0,0,0,.149-.148l.148-2.372v-.149h-.148l-4.448-.148Z" fill="#c3b398"/>
    <path id="Path_79" data-name="Path 79" d="M341.042,249.424c.593-.89,8.748-.3,9.193,0s.593,3.41.593,3.41v4.6l-10.379-1.038v-3.855a8.522,8.522,0,0,1,.593-3.114Z" fill="#bcbec0"/>
    <path id="Path_80" data-name="Path 80" d="M331.256,256.245c4.3-1.631,7.117-2.373,8.452-2.966a3.826,3.826,0,0,0,2.076-3.262c-.149-2.076-.445-7.265-.3-7.858l7.414-.89c-.3.593-.3,7.265.3,9.49.3,1.186,2.224,1.927,3.114,2.075,2.817.89,6.969,1.78,9.786,4.6,2.372,2.224-4.152,20.313-5.486,27.282-.593,3.113-.149,10.378-.149,10.378-8.3,2.373-18.682,1.631-22.24-1.482,0,0,.148-6.524,0-9.49-.3-6.82-2.521-20.906-2.966-27.874Z" fill="#eda47e"/>
    <path id="Path_81" data-name="Path 81" d="M340.153,252.538c1.482,2.669,5.782,4.744,5.782,4.744a13.628,13.628,0,0,0,6.079-4.3s8.007,1.927,9.786,2.965c1.631,1.038-1.631,17.5-1.631,17.5l-1.631,23.575a1.272,1.272,0,0,1-.889,1.038,35.382,35.382,0,0,1-8.6,1.038,81.554,81.554,0,0,1-16.458-1.186,1.259,1.259,0,0,1-1.038-1.187l-.3-24.761s-1.779-16.31.445-16.9c2.224-.889,8.452-2.52,8.452-2.52Z" fill="#e5e6e7"/>
    <path id="Path_82" data-name="Path 82" d="M342.229,254.169c.3.3,3.706,3.113,3.706,3.113s-2.817.594-3.855-1.037l-1.631,1.482.593-8.155a42.379,42.379,0,0,0,1.187,4.6Z" fill="#d1d3d4"/>
    <path id="Path_83" data-name="Path 83" d="M342.228,254.168l-1.927,3.558s-1.631-3.707-1.334-5.189a20.627,20.627,0,0,1,1.927-2.966l1.334,4.6Z" fill="#f1f2f2"/>
    <path id="Path_84" data-name="Path 84" d="M349.345,254.169c-.3.3-3.558,3.113-3.558,3.113s2.669.594,3.707-1.037l1.631,1.482-.89-8.155c0-.148-.445,4.3-.89,4.6Z" fill="#d1d3d4"/>
    <path id="Path_85" data-name="Path 85" d="M349.346,254.169l1.779,3.558s1.482-3.262,1.186-4.744a28.825,28.825,0,0,0-2.076-3.411l-.889,4.6Z" fill="#f1f2f2"/>
    <path id="Path_86" data-name="Path 86" d="M345.935,257.134l-.148,41.664-.593-8.451V256.986l.741.148Z" fill="#d1d3d4"/>
    <path id="Path_87" data-name="Path 87" d="M347.418,262.768a.742.742,0,1,0,.741.742A.8.8,0,0,0,347.418,262.768Zm0,4.745a.742.742,0,1,0,.741.741A.8.8,0,0,0,347.418,267.513Zm0,4.6a.742.742,0,1,0,.741.742A.8.8,0,0,0,347.418,272.109Zm0,15.272a.742.742,0,1,0,.741.742A.8.8,0,0,0,347.418,287.381Zm0,4.745a.742.742,0,1,0,.741.741A.8.8,0,0,0,347.418,292.126Zm0,4.6a.742.742,0,1,0,.741.742A.8.8,0,0,0,347.418,296.722Z" fill="#f1f2f2"/>
    <path id="Path_88" data-name="Path 88" d="M353.349,231.483s-1.483,11.269-2.521,12.6-2.817,4.152-4,4.6a4.612,4.612,0,0,1-3.707,0c-1.334-.593-3.558-3.559-4.448-4.745-1.038-1.483-1.334-14.086-1.334-13.2,0,0,.889-6.079,8.3-5.783C352.163,225.256,353.349,231.483,353.349,231.483Z" fill="#fab28c"/>
    <path id="Path_89" data-name="Path 89" d="M336.3,229.852a7.3,7.3,0,0,1,10.823-5.93,7.363,7.363,0,0,1,4.3.593c3.411,1.779,3.855,5.189,3.559,7.71a18.724,18.724,0,0,1-2.373,6.672c-.148.148-.444-.445-.444-.445,1.186-3.558-1.483-7.117-2.224-9.638,0,0-.445,5.042-6.821,2.669-4-1.482-4.893.149-4.893.149-.593.889-.741,3.855-.3,6.079a.458.458,0,0,1-.3-.149,29.134,29.134,0,0,1-1.334-7.71Z" fill="#3d2019"/>
    <path id="Path_90" data-name="Path 90" d="M348.6,225.552a8.679,8.679,0,0,0-2.817-.593c-7.117-.3-8.155,5.486-8.3,5.783,0,.3.148,4,.3,7.413,0,.149.149.445.149.594s.3.148.3.148c-.445-2.224-.3-5.19.3-6.079,0,0,.889-1.631,4.893-.149,6.375,2.373,6.82-2.668,6.82-2.668a6.85,6.85,0,0,0-1.631-4.449Z" fill="#e3865d" opacity="0.2"/>
    <path id="Path_91" data-name="Path 91" d="M352.014,236.821l-.444,3.855a.739.739,0,0,0,.741.445c.593,0,1.779-1.928,1.779-1.928s1.038-2.075.148-2.817c-1.038-.741-2.224.445-2.224.445Z" fill="#fab28c"/>
    <path id="Path_92" data-name="Path 92" d="M337.78,236.673s0,6.524.3,8.6c.3,2.373.593,6.376,5.782,6.673,5.635.444,6.969-3.707,7.414-6.228.445-2.372,1.483-10.082,1.483-10.082s-1.335,5.782-2.817,6.524c-1.928.889-3.114-.593-6.376-.742-3.114-.148-3.855.742-4.3.445-.741-.445-1.483-5.189-1.483-5.189Zm2.966,6.968s0-.593,2.372-.593a8.386,8.386,0,0,1,3.41.742s-1.038,2.817-3.262,2.669a3.371,3.371,0,0,1-2.52-2.818Z" fill="#3d2019"/>
    <path id="Path_93" data-name="Path 93" d="M352.756,235.931a4.131,4.131,0,0,1-.149.89,71.06,71.06,0,0,1-1.334,7.562c-.445,2.372-1.779,6.672-7.265,6.227-5.041-.445-5.486-4.448-5.635-6.672-.148-1.186-.148-3.855-.148-5.783l-.3-1.186s0,6.524.3,8.6c.3,2.372.593,6.376,5.783,6.672,5.634.445,6.968-3.707,7.413-6.227.3-2.521,1.335-10.083,1.335-10.083Z" fill="#3d2019" opacity="0.2"/>
    <path id="Path_94" data-name="Path 94" d="M347.27,223.921a7.3,7.3,0,0,0-10.824,5.931,24.1,24.1,0,0,0,1.483,8.007c0,.148.3.148.3.148-.445-2.224-.3-5.189.3-6.079,0,0,.889-1.631,4.893-.148,6.227,2.224,6.672-2.817,6.672-2.817a5.967,5.967,0,0,0-2.817-5.042Z" fill="#3d2019" opacity="0.5"/>
    <path id="Path_95" data-name="Path 95" d="M349.642,226.739a3.686,3.686,0,0,1,.148,1.186s-.444,5.041-6.82,2.669c-4-1.483-4.745-.149-5.041.3-.742,1.038-.149,4.745.3,6.969-.445-2.224-.3-5.19.3-6.079,0,0,.889-1.631,4.893-.148,6.227,2.372,6.672-2.669,6.672-2.669a5.937,5.937,0,0,0-.445-2.224Z" fill="#3d2019"/>
    <path id="Path_96" data-name="Path 96" d="M348.011,224.959c2.817,6.969-10.824-1.927-11.417,5.19.445-2.966,4.893-2.669,7.562-1.779,4.3,1.482,5.931-1.038,3.855-3.411Z" fill="#3d2019"/>
    <path id="Path_97" data-name="Path 97" d="M348.9,226c1.631,7.414-11.862-2.372-12.307,4.745.593-3.559,5.041-2.076,7.71-1.483C348.456,230.3,349.939,228.518,348.9,226Z" fill="#3d2019"/>
    <path id="Path_98" data-name="Path 98" d="M359.428,254.762s6.672,2.076,7.413,6.524c1.187,6.524.445,16.161-2.52,22.537-1.779,3.707-9.193-1.631-8.3-3.41.593-1.187,1.631-7.562,1.631-7.562,1.038-6.079,3.262-14.234,1.779-18.089Z" fill="#eeefef"/>
    <path id="Path_99" data-name="Path 99" d="M366.841,261.286a2.112,2.112,0,0,0-.3-.89c0,5.486-.593,13.344-2.669,17.793-1.334,2.817-5.19,0-7.414.741a13.768,13.768,0,0,1-.444,1.483c-1.038,1.779,6.524,7.117,8.3,3.41C367.286,277.447,368.028,267.81,366.841,261.286Z" fill="#eeefef"/>
    <path id="Path_100" data-name="Path 100" d="M337.039,282.488l19.72-3.706,5.634,2.965-4.151,6.079L337.78,286.2a10.323,10.323,0,0,1-2.372.3,2.836,2.836,0,0,1-1.779-.742,19.388,19.388,0,0,1-1.779-2.817c.148.3,0,.742,0,1.186,0,0,.593.149.741.593a3.275,3.275,0,0,1,.148,1.187,7.242,7.242,0,0,1-1.038-.445c0,.3,0,.445-.148.593a8.821,8.821,0,0,1-1.631-1.186,7.022,7.022,0,0,1-.445-1.335s-.3.593-.741.445a3.167,3.167,0,0,1-.445-1.779c.148-.3,1.483-2.521,1.631-2.669a12.337,12.337,0,0,1,3.262.148C333.48,279.523,337.039,282.488,337.039,282.488Z" fill="#fab28c"/>
    <path id="Path_101" data-name="Path 101" d="M330.367,281.895c-.3.445.3,2.669.3,2.669a15.959,15.959,0,0,1,0-2.669,8.084,8.084,0,0,1,1.631-.889S330.663,281.451,330.367,281.895Zm-.593-1.334c-.445.3-.445,2.669-.445,2.669a20.262,20.262,0,0,1,.593-2.521,12.338,12.338,0,0,1,1.779-.593s-1.631,0-1.927.445Z" fill="#fab28c" opacity="0.5"/>
    <path id="Path_102" data-name="Path 102" d="M337.78,282.192a4.892,4.892,0,0,1,2.373-1.335,126.408,126.408,0,0,1,16.161-2.668c2.076-.149,8.155,1.334,8.6,3.558.3,2.224-2.966,6.079-5.041,6.227-2.817.3-19.572-.889-20.61-1.779-.89-.741-1.483-4-1.483-4Z" fill="#eeefef"/>
    <path id="Path_103" data-name="Path 103" d="M355.276,286.047c-13.344.89-16.9-.593-16.013.148.89.89,17.792,2.076,20.61,1.779,1.334-.148,2.965-1.631,4.151-3.41C364.617,283.675,360.466,285.75,355.276,286.047Z" fill="#eeefef"/>
    <path id="Path_104" data-name="Path 104" d="M337.187,282.34l.742-.445,1.631,4.448-1.928-.148-.445-3.855Z" fill="#dddedf"/>
    <path id="Path_105" data-name="Path 105" d="M331.553,254.762s-6.672,1.779-7.414,5.486c-1.186,5.634,5.486,18.682,9.045,21.054,3.262,2.224,5.634,1.928,6.227.3a11.8,11.8,0,0,0-.445-7.562C338.818,268.254,329.625,256.1,331.553,254.762Z" fill="#eeefef"/>
    <path id="Path_106" data-name="Path 106" d="M341.635,256.689c.445-.444,3.411-6.672,3.855-7.117a29.869,29.869,0,0,1,3.559-2.372c.445-.3.593-.148.89,0a.645.645,0,0,1,0,1.186c-.594.3-.594.593-.594.593s.594-.445.89.149c.3.444.3.889.148,1.037a4.692,4.692,0,0,1-.741.445s.741-.445.741-.148c.3.593.3,1.334,0,1.483l-.444.445s.444-.3.593.148a1.2,1.2,0,0,1-.445,1.482c-.593.445-1.928,1.483-2.669,1.928a11.642,11.642,0,0,0-2.224,1.483,10.147,10.147,0,0,1-.741,1.038l-2.818-1.78Z" fill="#fab28c"/>
    <path id="Path_107" data-name="Path 107" d="M350.235,252.686l.445-.445c.3-.148.3-.889,0-1.482-.148-.3-.445,0-.741.148.148-.148.444-.3.593-.445a.662.662,0,0,0,0-.741c-.149.593-1.335,1.334-1.78,1.927.593,0,1.187-.593,1.78-.593.593,1.186-.742,1.779-1.483,2.372.3,0,1.186-.741,1.483-.3.148.148-.149.741-.149.89-.148.3-.593,1.037,0,.593a1.059,1.059,0,0,0,.445-1.483c-.3-.593-.593-.445-.593-.445Zm0-4.745c-.148.445-.445.593-.89.89a4.016,4.016,0,0,0-1.186,1.038c.445.148,1.335-.593,1.928-.741a1.154,1.154,0,0,0-.742,0s0-.149.594-.594a.4.4,0,0,0,.3-.593Z" fill="#fab28c" opacity="0.3"/>
    <path id="Path_108" data-name="Path 108" d="M349.345,249.276h0a1.831,1.831,0,0,0-1.186.593c-.445.3-.741.741-1.186.89,1.186,0,.593,1.186.3,1.482.593-.148,1.482.742.593,1.631.593,0,.593.742.593,1.038a2.719,2.719,0,0,1-1.038,1.483.145.145,0,0,0,.148-.148c.742-.445,2.076-1.483,2.669-1.928a1.06,1.06,0,0,0,.445-1.483c-.148-.445-.593-.148-.593-.148l.445-.445c.3-.148.3-.889,0-1.482-.149-.3-.445,0-.742.148.149-.148.445-.3.593-.445s.149-.593-.148-1.038c-.3-.593-.89-.148-.89-.148Z" fill="#fab28c" opacity="0.15"/>
    <path id="Path_109" data-name="Path 109" d="M345.49,250.165c-1.186-1.334.149-3.113.149-3.706,0-.89-.593-1.335-.742-.89-.148.593-1.334,2.521-1.334,2.965s-.89,2.818-.593,3.856c.3,1.186-1.483,4.3-1.483,4.3l1.779-1.482,2.224-5.042Z" fill="#fab28c"/>
    <path id="Path_110" data-name="Path 110" d="M341.635,256.1A5.591,5.591,0,0,0,340,258.172a153.06,153.06,0,0,0-5.486,15.568c-.593,2.076,0,8.3,2.076,9.045s6.524-1.928,7.117-3.855c.742-2.669,2.521-19.424,1.928-20.461C344.749,257.282,341.635,256.1,341.635,256.1Z" fill="#f6f7f7"/>
    <path id="Path_111" data-name="Path 111" d="M342.525,274.037c3.114-13.048,2.372-16.755,2.965-15.717.742,1.038-1.037,17.941-1.927,20.462-.3,1.186-2.224,2.669-4,3.41C338.522,282.785,341.191,279.226,342.525,274.037Z" fill="#f6f7f7"/>
    <path id="Path_112" data-name="Path 112" d="M342.228,255.207l-.889,1.186,4.151,2.224.594-1.335-3.856-2.075Z" fill="#dddedf"/>
    <path id="Path_113" data-name="Path 113" d="M379.749,269.271a2.05,2.05,0,0,0-1.874-1.4H350.129a1.05,1.05,0,0,0-1.078,1.4l4.992,17.723a2.05,2.05,0,0,0,1.874,1.4h27.8a1.049,1.049,0,0,0,1.077-1.4Z" fill="#0f1726"/>
    <path id="Path_114" data-name="Path 114" d="M380.561,269.271a2.047,2.047,0,0,0-1.874-1.4H350.925a1.049,1.049,0,0,0-1.077,1.4l4.991,17.723a2.046,2.046,0,0,0,1.858,1.4h27.8a1.049,1.049,0,0,0,1.078-1.4l-5.009-17.723Z" fill="#222b3b"/>
    <path id="Path_115" data-name="Path 115" d="M377.576,270.011H353.247l4.594,16.259h24.694l-4.959-16.259Z" fill="#4fa3f6"/>
    <path id="Path_116" data-name="Path 116" d="M367.725,269.188c0,.3-.365.543-.812.543s-.813-.246-.813-.543.365-.543.813-.543C367.36,268.629,367.725,268.876,367.725,269.188Z" fill="#040c1d"/>
    <path id="Path_117" data-name="Path 117" d="M358.455,285.711l-4.412-15.7h-.8l4.594,16.259h24.694l-.182-.559Z" fill="#00adcd"/>
    <path id="Path_118" data-name="Path 118" d="M404.877,295.812l-.62,21.27-3.235-.927L397.88,294.87c0,.015,3.854-5.175,7,.942Z" fill="#e59375"/>
    <path id="Path_119" data-name="Path 119" d="M392.648,404.248l-.959,1.978-2.245,1.946s-.542.324-.7,1.514c0,0,4.4.092,7.476.154l.96-6.287-4.536.7Z" fill="#282829"/>
    <path id="Path_120" data-name="Path 120" d="M396.224,409.84l.944-6.287-4.52.7-2.662,5.469,6.238.123Z" fill="#4c080f"/>
    <path id="Path_121" data-name="Path 121" d="M394.351,400.031l-1.718,4.217s-.016,1.391,2.925,1.36l1.424.031s2.446-.217,1.842-2.194l-.913-3.352-3.56-.062Z"/>
    <path id="Path_122" data-name="Path 122" d="M395.2,404.789l.836,5.051.8.016,1.115-5.005-2.756-.062Z"/>
    <path id="Path_123" data-name="Path 123" d="M377.928,404.48l-.975,2.132-2.152,1.853a2.01,2.01,0,0,0-.665,1.53h7.476l.836-6.3-4.52.788Z" fill="#282829"/>
    <path id="Path_124" data-name="Path 124" d="M381.627,409.995l.821-6.318-4.52.8L375.389,410h6.238Z" fill="#4c080f"/>
    <path id="Path_125" data-name="Path 125" d="M379.553,400.232l-1.625,4.248s.015,1.39,2.956,1.3h1.424s2.446-.263,1.8-2.225l-.991-3.336h-3.56Z"/>
    <path id="Path_126" data-name="Path 126" d="M380.5,404.974l.945,5.021h.8l1.006-5.021Z"/>
    <path id="Path_127" data-name="Path 127" d="M399.861,267.328a5.544,5.544,0,0,1,5.7,5.376c.092,3.058-1.579,10.92-3.917,8.943-4.581-3.892-6.857-6.225-6.95-9.283C394.614,269.305,396.812,267.4,399.861,267.328Z" fill="#e59375"/>
    <path id="Path_128" data-name="Path 128" d="M405.449,272.055l-5.433-1.267-3.777,4.31s2.508,18.15,4.721,21.811c2.353,3.908,3.359.2,3.917-1.236,0,.015,2.12-20.4.572-23.618Z" fill="#e59375"/>
    <path id="Path_129" data-name="Path 129" d="M392.2,400.587s6.161.572,6.176-.478c.016-2.5,2.183-19.834,2.585-23.742.635-6.287.9-10.627-2.043-19.231,0,0-7.043-6.673-8.885-2.039l.527,4.448c.557,3.09-.387,6.442-.558,9.608-.51,10.4,1.316,21.07,2.2,31.434Z" fill="#180f3d"/>
    <path id="Path_130" data-name="Path 130" d="M383.81,318.859s2.647,22.042,6.006,37.535c0,0,1.563,7.446,8.869,3.074,0,0,8.343-34.662,6.192-49.368C404.892,310.1,383,306.316,383.81,318.859Z" fill="#180f3d"/>
    <path id="Path_131" data-name="Path 131" d="M393.19,294.823c.7-.123,3.591,1.36,3.591,1.36s3.622,11.585,3.777,13.361c.155,1.761-12,10.89-25.555,5.685,0,0,6.284-16.328,6.671-20.344.371-4.016,11.516-.062,11.516-.062Z" fill="#e79675"/>
    <path id="Path_132" data-name="Path 132" d="M374.136,318.92s-.883-14.118,7.522-24.035c0,0,2.229,2.024,15.123,1.3,0,0,6.95,8.743,7.244,11.631,0,0,6.873,15.431-11.47,14.227.016,0-17.568,2.471-18.419-3.121Z" fill="#211a48"/>
    <path id="Path_133" data-name="Path 133" d="M383.949,326.536l-9.813-5.376s1.594,30.986,2.832,39.683c0,0,7.059,1.529,8.761.4,4.737-14.644,6.47-37.783,6.47-37.783l-8.25,3.074Z" fill="#211a48"/>
    <path id="Path_134" data-name="Path 134" d="M378.005,312.093s-4.7,1.359-3.73,10.056c.96,8.511,16.624,9.314,18.1.587C393.933,313.36,386.3,308.4,378.005,312.093Z" fill="#211a48"/>
    <path id="Path_135" data-name="Path 135" d="M378.129,267.158c-4.256,2.07-1.888,7.059-1.888,7.059l5.742,20.869s5.372,2.193,14.783,1.1c1.3-1.869,3.993-9.7,4.891-15.679.743-4.927,3.049-9.778.542-12.512-.96-1.05-8.3-2.1-8.328-2.27h-8.823l-6.919,1.436Z" fill="#f7a483"/>
    <path id="Path_136" data-name="Path 136" d="M384.63,266.355h9.442c-.433-1.375-1.315-4.928.062-7.337l-9.535-6.256C384.584,252.746,386.286,263.25,384.63,266.355Z" fill="#f7a483"/>
    <path id="Path_137" data-name="Path 137" d="M397.385,255.233c-3.251,7.044-12.027,5.7-12.027,5.7-.666.046-2.554.34-2.817-.927l-.465-1.452-.928-4.186a4.29,4.29,0,0,1-.14-2.209,6.594,6.594,0,0,0,.016-3.46c-.975-3.753.619-5.808.619-5.808,2.043-3.6,7.275-3.846,7.275-3.846,8.42-.819,9.5,5.746,9.5,5.746,1.656,3.738-1.037,10.906-1.037,10.442Z" fill="#f7a483"/>
    <path id="Path_138" data-name="Path 138" d="M387.355,266.355c-.124-1.236-.124-3.059.82-4.155,1.5-1.746,3.111-3.012,2.244-5.376v-.046c-1.13-.232-2.43-.417-2.832.371-.666,1.3-.759,2.548-2.369,2.981a3.088,3.088,0,0,1-2.739-.294l.046.17c.263,1.267,2.152.973,2.817.927a12.852,12.852,0,0,1-.712,5.422h2.725Z" fill="#e1876f"/>
    <path id="Path_139" data-name="Path 139" d="M381.426,245.486c.635,1.113,2.693,6.627,3.56,5.685,1.6-1.715,2.941-.139,2.508,1.575-.573,2.317-.929,1.838-1.192,3.244,0,0,2.91,4.4,4.721,4.742h3.08s2.879-1.189,5.433-7.043c2.229-5.3.79-12.2-4.086-14.551a11.627,11.627,0,0,0-13.265,2.27c.015,0-2,1.947-.759,4.078Z" fill="#5a2025"/>
    <path id="Path_140" data-name="Path 140" d="M386.565,254.8a.62.62,0,1,1-.588-.649A.641.641,0,0,1,386.565,254.8Z" fill="#fff"/>
    <path id="Path_141" data-name="Path 141" d="M393.887,265.706l4.38.912a18.4,18.4,0,0,1,3.963,11.075c-.9,5.978-1.935,17.872-4.118,18.521-7.43,2.193-18.667-8.079-18.667-8.079l-1.393-7.353c7.445-4.309,5.928-9.191,5.928-9.191h0c-.882-3.475-4.643-4.68-4.643-4.68l5.448-1.2s1.61.68,6.439.633C391.209,266.355,393.9,266.123,393.887,265.706Z" fill="#7763aa"/>
    <path id="Path_142" data-name="Path 142" d="M405.527,309.359l-7.291-15.74-18.791-5.5-6.811,21.5c0,.016,14.287,8.264,32.893-.262Z" fill="#7763aa"/>
    <path id="Path_143" data-name="Path 143" d="M378.284,400.479s6.207.433,6.284-.6c.186-2.5.712-11.693,1.332-15.586,1.052-6.688,3.3-16.08-.883-25.209-6.64-3.985-8.064,1.467-8.064,1.467a74.309,74.309,0,0,0,.309,23.572l1.022,16.358Z" fill="#211a48"/>
    <path id="Path_144" data-name="Path 144" d="M392.432,324.188a22.38,22.38,0,0,1-11.408-1.761c8.9,1.931,13.976,0,13.976,0s4.041,1.869,9.691-4.557c-.016.015-1.068,5.159-12.259,6.318Z" fill="#130736"/>
    <path id="Path_145" data-name="Path 145" d="M381.581,242.227c-2.585,3.2,1.517,7.507,3.545,11.879,2.074,4.5.789,8.82-.325,13.315-2.647,10.72-.093,19.231,8.668,26.012,3.854,2.981,9.38,3.846,12.924,7.167.387-6.333,5.975-17.918,2.446-28.252-1.517-4.417-5.216-7.306-5.944-12.079-.8-5.406.078-11.292-2.368-16.374-2.059-4.278-7.677-6.843-12.244-5.174a18,18,0,0,0-2.739,1.22c.03-.016-3.963,2.286-3.963,2.286Z" fill="#5a2025"/>
    <path id="Path_146" data-name="Path 146" d="M383.989,274.1,379.022,271l-5.294,2.883s-4.558,17.556-3.594,21.857c.9,3.967,3.006,3.664,4.084,2.469C374.235,298.2,384.381,277.765,383.989,274.1Zm-32.524,10.756c.576,1,2.955,1.5,4.033,2.138a3.08,3.08,0,0,0,1.375-1.012c.428-1.141-.34-3.091-.591-4.247-.178-.809-.665-3.828-1.581-2.73-.5.607.251,3.684-.887,3.669-1.005-.014-.931-.173-1.507-1.358L351.361,278C351.376,277.98,350.475,283.138,351.465,284.857Z" fill="#f7a483"/>
    <path id="Path_147" data-name="Path 147" d="M355.381,287.309c3.907,4.261,3.186,3.735,5.869,6.3,2.4,2.28,5.333,5.7,9.894,6.348,4.142.6,3.371-5.243.285-7.435-2.884-2.051-3.84-2.051-7.412-3.84-1.945-.964-4.377-2.613-6.959-3.682C357.058,284.995,353.939,284.995,355.381,287.309Zm26.664-18.467c2.276,2.054,2.864,4.248,1.161,7.569-1.393,2.718-8.714,6.8-9.024,3.753-.6-5.978-.635-9.237,1.409-11.492,2.058-2.271,4.179-1.885,6.454.17Z" fill="#f7a483"/>
  </g>
</svg>
